<?xml version="1.0" encoding="UTF-8"?>
<svg version="1.1" xmlns="http://www.w3.org/2000/svg" width="512" height="512">
<path d="M0 0 C0.7927684 -0.0033284 1.5855368 -0.0066568 2.40232849 -0.01008606 C4.07037788 -0.01511237 5.73843718 -0.01749573 7.40649414 -0.01733398 C9.90333517 -0.01950494 12.39972206 -0.03766415 14.89648438 -0.05664062 C22.692939 -0.0868471 30.45092937 0.06882013 38.2109375 0.8671875 C39.45093506 0.99311279 40.69093262 1.11903809 41.96850586 1.2487793 C46.26368111 2.40909607 48.3602135 3.89669104 51.37109375 7.16796875 C52.25992259 9.86621942 52.74833142 11.93439768 53.078125 14.6953125 C53.24100761 15.79974953 53.24100761 15.79974953 53.40718079 16.92649841 C53.75506282 19.33744753 54.06437112 21.75146529 54.37109375 24.16796875 C54.60068669 25.84800599 54.83166092 27.527855 55.06396484 29.20751953 C55.76720944 34.37719975 56.41581468 39.55298232 57.05859375 44.73046875 C57.28542283 46.53194949 57.51263452 48.3333821 57.74023438 50.13476562 C58.28824507 54.47862715 58.83114921 58.82309755 59.37109375 63.16796875 C59.89429199 63.35383545 60.41749023 63.53970215 60.95654297 63.73120117 C63.38877574 64.59947349 65.81788841 65.47599508 68.24609375 66.35546875 C69.11637207 66.66991943 69.98665039 66.98437012 70.88330078 67.30834961 C76.31340772 69.30595109 81.40263133 71.50445558 86.36328125 74.515625 C88.42601965 75.38193808 88.42601965 75.38193808 90.796875 74.5625 C93.79357545 72.93909778 96.11621897 71.03715208 98.68359375 68.79296875 C104.13100282 64.11411692 109.79007111 59.78870688 115.55859375 55.51489258 C120.2990785 51.99563281 124.91226115 48.36868501 129.453125 44.59375 C133.25564441 41.76702987 136.77886471 41.64949128 141.37109375 42.16796875 C158.66552735 50.07999708 174.90975734 69.56437245 186.37109375 84.16796875 C187.30501953 85.23144531 187.30501953 85.23144531 188.2578125 86.31640625 C191.61221401 90.27287983 193.48971066 93.48601085 193.05859375 98.78515625 C191.73228258 103.38203019 188.7650228 106.78775646 185.77099609 110.44238281 C184.18493983 112.39743089 182.64579912 114.38462508 181.109375 116.37890625 C177.55268145 120.993196 173.96587044 125.58331162 170.37109375 130.16796875 C169.52587158 131.24618896 169.52587158 131.24618896 168.66357422 132.34619141 C165.57042399 136.29021118 162.47281267 140.23068474 159.37109375 144.16796875 C159.6635498 144.85310547 159.95600586 145.53824219 160.25732422 146.24414062 C161.59302647 149.38285546 162.91961446 152.52534564 164.24609375 155.66796875 C164.93638672 157.28445312 164.93638672 157.28445312 165.640625 158.93359375 C168.04003677 164.63654347 170.09194036 170.11036876 171.37109375 176.16796875 C172.76207275 176.23709473 172.76207275 176.23709473 174.18115234 176.30761719 C184.33421664 176.87049497 194.39618181 177.82597889 204.48388672 179.10498047 C206.1754681 179.31572948 207.86824771 179.51705075 209.56201172 179.70947266 C212.05600261 179.99304319 214.54524556 180.30389685 217.03515625 180.62109375 C217.78519928 180.70151917 218.53524231 180.78194458 219.30801392 180.86480713 C224.73586514 181.60388531 227.50904845 183.2565753 231.37109375 187.16796875 C233.9878481 193.2737289 234.08323813 200.03857064 234.55859375 206.60546875 C234.64463867 207.79035889 234.73068359 208.97524902 234.81933594 210.19604492 C235.57143834 221.91526704 235.30037777 233.4692658 234.37109375 245.16796875 C234.314375 245.9254541 234.25765625 246.68293945 234.19921875 247.46337891 C233.28752038 258.5980133 233.28752038 258.5980133 230.30859375 262.91796875 C224.49873074 267.36807659 216.35919831 267.55506418 209.2421875 268.45703125 C208.40824966 268.56518158 207.57431183 268.67333191 206.71510315 268.78475952 C204.966666 269.01026993 203.21795756 269.23368625 201.46899414 269.45507812 C198.81108324 269.79265257 196.15458142 270.14006016 193.49804688 270.48828125 C191.78783646 270.70762499 190.07755228 270.92639447 188.3671875 271.14453125 C187.58363388 271.24762604 186.80008026 271.35072083 185.99278259 271.4569397 C181.07878007 272.06958001 176.32350519 272.26011645 171.37109375 272.16796875 C171.12782349 273.16437378 171.12782349 273.16437378 170.87963867 274.1809082 C169.07306401 281.2192146 166.63103674 287.72254681 163.68359375 294.35546875 C163.06000977 295.78342773 163.06000977 295.78342773 162.42382812 297.24023438 C161.41293126 299.5525157 160.39533638 301.86157605 159.37109375 304.16796875 C160.1703125 305.13734375 160.96953125 306.10671875 161.79296875 307.10546875 C169.11168732 316.02336719 176.18609845 325.07829843 183.02392578 334.36962891 C184.28461614 336.05252944 185.58032634 337.6978406 186.8984375 339.3359375 C192.85180548 346.92151181 192.85180548 346.92151181 193.24609375 351.29296875 C188.52373663 372.20626455 159.7673237 393.66184247 143.37109375 405.16796875 C139.93318633 406.88692246 137.03699491 407.03744531 133.37109375 406.16796875 C129.71316203 404.00443596 126.49235643 401.36830116 123.21533203 398.67041016 C119.67653161 395.78746367 116.04490944 393.02161553 112.43359375 390.23046875 C108.08536045 386.86976633 103.75012591 383.50852952 99.5390625 379.9765625 C98.95697021 379.49888428 98.37487793 379.02120605 97.77514648 378.52905273 C96.22791988 377.25587365 94.6972744 375.96261904 93.16796875 374.66796875 C90.46213161 372.84098738 90.46213161 372.84098738 87.5 373.703125 C85.95119141 374.42822266 85.95119141 374.42822266 84.37109375 375.16796875 C83.11523158 375.70983821 81.85868198 376.25011638 80.6015625 376.7890625 C78.58366321 377.69092791 76.56946369 378.60053751 74.55664062 379.51367188 C70.95508666 381.12094814 67.35992894 382.54796205 63.6105957 383.77758789 C62.81289261 384.04019913 62.01518951 384.30281036 61.1933136 384.57337952 C60.29131477 384.86770119 60.29131477 384.86770119 59.37109375 385.16796875 C59.29450027 385.83116119 59.2179068 386.49435364 59.13899231 387.17764282 C58.33630009 394.09150048 57.50418027 401.00136576 56.6550293 407.90966797 C56.34215278 410.48688904 56.03674322 413.06502818 55.73901367 415.64404297 C55.30926087 419.35521937 54.85258889 423.06224398 54.390625 426.76953125 C54.26331497 427.91974762 54.13600494 429.06996399 54.00483704 430.2550354 C53.16298832 436.7641149 52.28771443 440.68015098 47.37109375 445.16796875 C37.5819778 449.76285991 23.74676566 448.35436767 13.16967773 448.35327148 C10.83753746 448.35544181 8.50588419 448.37361031 6.17382812 448.39257812 C-1.54505234 448.4244638 -9.21993863 448.20712222 -16.90625 447.46875 C-17.59554092 447.41615524 -18.28483185 447.36356049 -18.99501038 447.30937195 C-24.21279088 446.72301535 -27.11965814 445.0317985 -30.62890625 441.16796875 C-31.51773509 438.46971808 -32.00614392 436.40153982 -32.3359375 433.640625 C-32.44452591 432.90433365 -32.55311432 432.1680423 -32.66499329 431.40943909 C-33.01287532 428.99848997 -33.32218362 426.58447221 -33.62890625 424.16796875 C-33.85849919 422.48793151 -34.08947342 420.8080825 -34.32177734 419.12841797 C-35.02502194 413.95873775 -35.67362718 408.78295518 -36.31640625 403.60546875 C-36.54323533 401.80398801 -36.77044702 400.0025554 -36.99804688 398.20117188 C-37.54605757 393.85731035 -38.08896171 389.51283995 -38.62890625 385.16796875 C-39.41370361 384.8891687 -39.41370361 384.8891687 -40.21435547 384.60473633 C-42.64658824 383.73646401 -45.07570091 382.85994242 -47.50390625 381.98046875 C-48.37418457 381.66601807 -49.24446289 381.35156738 -50.14111328 381.02758789 C-55.57122022 379.02998641 -60.66044383 376.83148192 -65.62109375 373.8203125 C-67.68383215 372.95399942 -67.68383215 372.95399942 -70.0546875 373.7734375 C-73.05138795 375.39683972 -75.37403147 377.29878542 -77.94140625 379.54296875 C-83.38881532 384.22182058 -89.04788361 388.54723062 -94.81640625 392.82104492 C-99.556891 396.34030469 -104.17007365 399.96725249 -108.7109375 403.7421875 C-112.51345691 406.56890763 -116.03667721 406.68644622 -120.62890625 406.16796875 C-126.95950577 403.09075711 -132.09964273 398.12625016 -137.22265625 393.390625 C-139.34198164 391.43300138 -141.4991156 389.54272524 -143.69140625 387.66796875 C-150.9913996 381.27680992 -157.51442528 374.40130088 -163.54296875 366.796875 C-164.8337144 365.17014874 -166.15650231 363.56763825 -167.52734375 362.0078125 C-170.87550057 358.0544724 -172.74694977 354.84287872 -172.31640625 349.55078125 C-170.99009508 344.95390731 -168.0228353 341.54818104 -165.02880859 337.89355469 C-163.44275233 335.93850661 -161.90361162 333.95131242 -160.3671875 331.95703125 C-156.81049395 327.3427415 -153.22368294 322.75262588 -149.62890625 318.16796875 C-149.0654248 317.44915527 -148.50194336 316.7303418 -147.92138672 315.98974609 C-144.82823649 312.04572632 -141.73062517 308.10525276 -138.62890625 304.16796875 C-138.85030273 303.65000732 -139.07169922 303.1320459 -139.29980469 302.59838867 C-150.62890625 276.04101766 -150.62890625 276.04101766 -150.62890625 272.16796875 C-151.90399048 272.09884277 -151.90399048 272.09884277 -153.20483398 272.02832031 C-163.21077678 271.42928163 -173.1445383 270.45112233 -183.09350586 269.23095703 C-184.84049479 269.02048435 -186.58860471 268.81913537 -188.33764648 268.62646484 C-190.90763946 268.34289585 -193.4730197 268.03196418 -196.0390625 267.71484375 C-196.81411636 267.63441833 -197.58917023 267.55399292 -198.38771057 267.47113037 C-203.90308514 266.74398834 -206.7164636 265.15511645 -210.62890625 261.16796875 C-213.2456606 255.0622086 -213.34105063 248.29736686 -213.81640625 241.73046875 C-213.90245117 240.54557861 -213.98849609 239.36068848 -214.07714844 238.13989258 C-214.82925084 226.42067046 -214.55819027 214.8666717 -213.62890625 203.16796875 C-213.5721875 202.4104834 -213.51546875 201.65299805 -213.45703125 200.87255859 C-212.54533288 189.7379242 -212.54533288 189.7379242 -209.56640625 185.41796875 C-203.69129 180.91787971 -195.43978614 180.7623201 -188.24609375 179.87890625 C-187.3875882 179.77075592 -186.52908264 179.66260559 -185.64456177 179.55117798 C-183.84484803 179.32562281 -182.04486487 179.10220782 -180.24462891 178.88085938 C-177.50338389 178.54290435 -174.763414 178.19572984 -172.0234375 177.84765625 C-170.26439173 177.62835356 -168.50527925 177.40958521 -166.74609375 177.19140625 C-165.93550507 177.08831146 -165.12491638 176.98521667 -164.2897644 176.8789978 C-159.69633061 176.32124555 -155.25611254 176.06695825 -150.62890625 176.16796875 C-150.46672607 175.50369873 -150.3045459 174.83942871 -150.13745117 174.1550293 C-148.33087651 167.1167229 -145.88884924 160.61339069 -142.94140625 153.98046875 C-142.52568359 153.02849609 -142.10996094 152.07652344 -141.68164062 151.09570312 C-140.67074376 148.7834218 -139.65314888 146.47436145 -138.62890625 144.16796875 C-139.428125 143.19859375 -140.22734375 142.22921875 -141.05078125 141.23046875 C-148.36949982 132.31257031 -155.44391095 123.25763907 -162.28173828 113.96630859 C-163.54242864 112.28340806 -164.83813884 110.6380969 -166.15625 109 C-172.10961798 101.41442569 -172.10961798 101.41442569 -172.50390625 97.04296875 C-168.36260797 78.70293351 -143.90979232 59.07219953 -129.62890625 48.16796875 C-128.83484375 47.54535156 -128.04078125 46.92273438 -127.22265625 46.28125 C-123.35851944 43.44269745 -119.79624271 41.01802282 -114.765625 41.47265625 C-109.6827592 43.12667839 -105.71086406 46.83530183 -101.62890625 50.16796875 C-100.43607487 51.11996877 -99.24201028 52.07042515 -98.046875 53.01953125 C-95.50068648 55.04597483 -92.96288107 57.08234187 -90.4296875 59.125 C-84.90304809 63.56809557 -79.27318592 67.8757099 -73.62890625 72.16796875 C-72.901875 72.76480469 -72.17484375 73.36164063 -71.42578125 73.9765625 C-69.61892213 75.47724425 -69.61892213 75.47724425 -67.06640625 74.66796875 C-63.32501254 73.03536059 -59.627065 71.31811141 -55.92358398 69.6015625 C-52.41169273 68.07345391 -48.86621786 66.77155073 -45.25390625 65.5 C-44.29291016 65.16047302 -44.29291016 65.16047302 -43.3125 64.81408691 C-41.75209134 64.26314039 -40.19060996 63.71523359 -38.62890625 63.16796875 C-38.55231277 62.50477631 -38.4757193 61.84158386 -38.39680481 61.15829468 C-37.59411259 54.24443702 -36.76199277 47.33457174 -35.9128418 40.42626953 C-35.59996528 37.84904846 -35.29455572 35.27090932 -34.99682617 32.69189453 C-34.56707337 28.98071813 -34.11040139 25.27369352 -33.6484375 21.56640625 C-33.52112747 20.41618988 -33.39381744 19.26597351 -33.26264954 18.0809021 C-32.42090962 11.57266378 -31.54731665 7.65348625 -26.62890625 3.16796875 C-24.48828125 2.1796875 -24.48828125 2.1796875 -22.37890625 1.85546875 C-21.693125 1.73558594 -21.00734375 1.61570313 -20.30078125 1.4921875 C-19.4190625 1.38519531 -18.53734375 1.27820312 -17.62890625 1.16796875 C-16.9932222 1.08728149 -16.35753815 1.00659424 -15.70259094 0.92346191 C-10.44902984 0.2904229 -5.28910475 0.00801275 0 0 Z M-10.62890625 23.16796875 C-10.74712738 24.14729622 -10.74712738 24.14729622 -10.86773682 25.14640808 C-11.69186233 31.94596096 -12.53915107 38.74234202 -13.39990234 45.53735352 C-13.71802253 48.073073 -14.03024433 50.60953978 -14.33642578 53.14672852 C-14.77776342 56.79526251 -15.24029989 60.44057598 -15.70703125 64.0859375 C-15.83950256 65.21944138 -15.97197388 66.35294525 -16.10845947 67.52079773 C-17.43485809 77.58164492 -17.43485809 77.58164492 -21.62890625 81.16796875 C-23.94042969 82.34301758 -23.94042969 82.34301758 -26.48828125 83.125 C-27.431875 83.42897705 -28.37546875 83.7329541 -29.34765625 84.04614258 C-30.848125 84.50863403 -30.848125 84.50863403 -32.37890625 84.98046875 C-41.09345697 87.82350881 -49.1726839 91.09589165 -57.25390625 95.40625 C-68.08804012 101.06156756 -68.08804012 101.06156756 -74.62890625 99.16796875 C-77.35032276 97.61391394 -79.74971167 95.75092567 -82.19140625 93.79296875 C-82.88250488 93.25639648 -83.57360352 92.71982422 -84.28564453 92.16699219 C-86.41012879 90.51305084 -88.51966252 88.84127896 -90.62890625 87.16796875 C-91.89476704 86.17962237 -93.16164846 85.1925814 -94.4296875 84.20703125 C-103.31317119 77.28181854 -103.31317119 77.28181854 -107.58203125 73.66796875 C-108.46375 72.92546875 -109.34546875 72.18296875 -110.25390625 71.41796875 C-111.00929688 70.763125 -111.7646875 70.10828125 -112.54296875 69.43359375 C-114.51243529 67.97342272 -114.51243529 67.97342272 -116.66015625 68.26171875 C-119.0135842 69.34504273 -120.60072533 70.66001047 -122.50390625 72.41796875 C-124.86091835 74.56585594 -127.19301529 76.6169535 -129.69140625 78.60546875 C-133.39097309 81.83275046 -136.46935596 85.42174581 -139.62890625 89.16796875 C-140.77406084 90.50188508 -141.9198457 91.83526072 -143.06640625 93.16796875 C-143.91203125 94.15796875 -144.75765625 95.14796875 -145.62890625 96.16796875 C-144.2463863 100.20031861 -142.38850862 102.93529169 -139.62890625 106.16796875 C-135.78636719 110.75442337 -132.06348239 115.41009087 -128.45141602 120.18066406 C-126.29289046 123.02727488 -124.09972324 125.82492416 -121.80859375 128.56640625 C-113.00994379 139.19817253 -113.00994379 139.19817253 -113 144.70703125 C-114.03128652 148.74250023 -116.08592674 152.22271638 -118.15649414 155.80273438 C-121.33878155 161.35379211 -123.70641509 167.05270647 -125.94140625 173.04296875 C-126.26616943 173.91018555 -126.59093262 174.77740234 -126.92553711 175.67089844 C-128.70557607 180.49458712 -130.34693131 185.33229528 -131.80932617 190.26220703 C-132.78185923 192.52362885 -133.73946719 193.58929466 -135.62890625 195.16796875 C-137.77360535 195.85435486 -137.77360535 195.85435486 -140.21948242 196.27709961 C-141.10920746 196.43314667 -141.9989325 196.58919373 -142.9156189 196.74996948 C-146.99688999 197.37871539 -151.07913226 197.93493167 -155.1796875 198.421875 C-156.04152145 198.52765366 -156.90335541 198.63343231 -157.79130554 198.74241638 C-160.50758335 199.07534966 -163.2244321 199.40327106 -165.94140625 199.73046875 C-168.67614264 200.06191543 -171.41073119 200.39448325 -174.14506531 200.72923279 C-175.83655477 200.93611118 -177.52828724 201.14101529 -179.22029114 201.34364319 C-183.06235417 201.81165182 -186.84523928 202.3314292 -190.62890625 203.16796875 C-191.46476404 210.18993578 -191.78360684 217.09922908 -191.75390625 224.16796875 C-191.75777344 225.08835937 -191.76164062 226.00875 -191.765625 226.95703125 C-191.75699631 233.08340022 -191.3529649 239.08521636 -190.62890625 245.16796875 C-185.6342203 245.84360456 -180.63950874 246.51905065 -175.64477539 247.19433594 C-173.95271139 247.42312747 -172.26065388 247.65196702 -170.56860352 247.88085938 C-168.92496803 248.1031963 -167.2813015 248.3253039 -165.63760376 248.54718018 C-164.00408577 248.76834653 -162.37076338 248.99096247 -160.73764038 249.21502686 C-156.90938051 249.7380688 -153.08215433 250.23906511 -149.24267578 250.67285156 C-148.56197525 250.75314606 -147.88127472 250.83344055 -147.1799469 250.91616821 C-145.35927935 251.12901581 -143.53722121 251.32987371 -141.71508789 251.52978516 C-138.41586213 252.2120236 -136.33800959 253.18596314 -133.62890625 255.16796875 C-130.86174002 259.65064659 -129.48245649 264.54549352 -127.94140625 269.54296875 C-124.67480833 279.7609629 -119.96470127 288.93709878 -114.9140625 298.37109375 C-113.3154063 301.85023612 -113.03465093 303.78089034 -113.625 307.515625 C-115.75164566 313.13427248 -120.09387807 317.5805759 -123.92871094 322.12158203 C-127.02890085 325.8530283 -129.97449714 329.70537511 -132.94140625 333.54296875 C-133.80221802 334.64789673 -133.80221802 334.64789673 -134.68041992 335.77514648 C-138.38471926 340.5324555 -142.02774646 345.33214892 -145.62890625 350.16796875 C-144.14777749 353.25425575 -142.55948499 355.56329132 -140.25390625 358.10546875 C-138.30482121 360.27467634 -136.45161695 362.40244815 -134.69140625 364.73046875 C-132.26254027 367.60094672 -129.58373239 369.95531346 -126.71875 372.3828125 C-125.35012009 373.55190385 -124.00722332 374.75197392 -122.6953125 375.984375 C-122.09589844 376.53996094 -121.49648437 377.09554688 -120.87890625 377.66796875 C-120.08226563 378.4259375 -120.08226563 378.4259375 -119.26953125 379.19921875 C-117.66518061 380.38073417 -117.66518061 380.38073417 -115.71850586 379.87011719 C-112.26165585 378.7085445 -109.70604485 376.2226786 -106.94140625 373.91796875 C-105.60550532 372.82648452 -104.26821021 371.73670495 -102.9296875 370.6484375 C-102.23053223 370.07915527 -101.53137695 369.50987305 -100.81103516 368.92333984 C-97.13144893 365.96336838 -93.38311093 363.09483384 -89.62890625 360.23046875 C-88.93579346 359.69969727 -88.24268066 359.16892578 -87.52856445 358.62207031 C-86.20064801 357.60943995 -84.86833302 356.60254632 -83.53125 355.60205078 C-82.27967069 354.65854759 -81.04199947 353.69625668 -79.8203125 352.71435547 C-75.84504781 349.6255571 -72.83922054 348.11609615 -67.62890625 348.16796875 C-64.91188399 349.23910252 -62.63943706 350.30701061 -60.12890625 351.73046875 C-58.71602444 352.48254749 -57.30059398 353.22985539 -55.8828125 353.97265625 C-55.1727002 354.34616211 -54.46258789 354.71966797 -53.73095703 355.10449219 C-46.95195601 358.53414706 -39.74431107 361.22859459 -32.49609375 363.47265625 C-31.47817749 363.79133667 -31.47817749 363.79133667 -30.43969727 364.11645508 C-28.55652931 364.69509496 -26.66517049 365.24688234 -24.7734375 365.796875 C-20.88216645 367.49356586 -19.8422553 368.52109765 -17.62890625 372.16796875 C-16.64496173 376.15316915 -16.18304888 380.17690815 -15.70703125 384.25 C-15.55731873 385.41931564 -15.4076062 386.58863129 -15.25335693 387.79338074 C-14.77973702 391.52065491 -14.32905415 395.25029438 -13.87890625 398.98046875 C-13.56140466 401.51125746 -13.24241166 404.04185953 -12.921875 406.57226562 C-12.14024709 412.76877354 -11.37742072 418.96737856 -10.62890625 425.16796875 C-6.44734847 426.06782096 -2.60289746 426.29701172 1.68359375 426.30078125 C2.72060425 426.30221634 2.72060425 426.30221634 3.77856445 426.30368042 C5.23421317 426.30435821 6.68986497 426.30253199 8.14550781 426.29833984 C10.36400185 426.29298587 12.58229345 426.29829841 14.80078125 426.3046875 C16.22005253 426.30402665 17.63932368 426.30274534 19.05859375 426.30078125 C20.34121094 426.29965332 21.62382812 426.29852539 22.9453125 426.29736328 C25.89447628 426.18597098 28.51046541 425.85646128 31.37109375 425.16796875 C32.79133365 418.33682179 33.74286453 411.4792243 34.5546875 404.5546875 C34.65681549 403.69118683 34.75894348 402.82768616 34.86416626 401.9380188 C35.28928329 398.32818566 35.71138133 394.71812363 36.1184082 391.10620117 C36.42037291 388.44190483 36.73644702 385.77958213 37.0546875 383.1171875 C37.14229843 382.30771164 37.22990936 381.49823578 37.32017517 380.66423035 C37.89398232 375.9662984 38.78546053 372.2446674 41.37109375 368.16796875 C43.81113774 366.84878241 45.77311097 365.98032307 48.37109375 365.16796875 C49.33499023 364.85835205 49.33499023 364.85835205 50.31835938 364.54248047 C51.68442054 364.11450561 53.0526159 363.69329757 54.42260742 363.27807617 C63.15932521 360.60515474 70.98339466 357.04716039 78.91308594 352.50756836 C84.08437435 349.60054148 88.69005568 347.35527203 94.77734375 348.69921875 C98.78110177 350.96640703 102.28211306 353.8004102 105.87109375 356.66796875 C107.48285023 357.9390845 109.09483091 359.20991602 110.70703125 360.48046875 C111.89377441 361.42019531 111.89377441 361.42019531 113.10449219 362.37890625 C117.23491169 365.63910812 121.41027388 368.83956897 125.59375 372.03125 C127.34830775 373.38109964 129.08768299 374.75113207 130.8046875 376.1484375 C131.50722656 376.71175781 132.20976562 377.27507812 132.93359375 377.85546875 C133.51238281 378.33371094 134.09117187 378.81195313 134.6875 379.3046875 C136.34370909 380.35910964 136.34370909 380.35910964 138.27099609 379.89306641 C140.63020382 379.0785062 141.84402456 378.13216341 143.65625 376.4296875 C144.2646875 375.86241943 144.873125 375.29515137 145.5 374.71069336 C146.13808594 374.09846924 146.77617187 373.48624512 147.43359375 372.85546875 C148.09101563 372.22970947 148.7484375 371.6039502 149.42578125 370.95922852 C151.42158786 369.04262442 153.39986377 367.10982197 155.37109375 365.16796875 C155.96132324 364.58853516 156.55155273 364.00910156 157.15966797 363.41210938 C158.75198218 361.82953551 160.31653086 360.22505236 161.87109375 358.60546875 C162.76828125 357.67605469 163.66546875 356.74664062 164.58984375 355.7890625 C166.57273176 353.36242652 166.57273176 353.36242652 166.484375 350.75390625 C164.92629034 347.13477627 162.57963522 344.33491711 160.05859375 341.35546875 C158.96397464 340.02652497 157.87159718 338.69573222 156.78125 337.36328125 C156.21809082 336.6765332 155.65493164 335.98978516 155.07470703 335.28222656 C152.29371048 331.83088949 149.64206448 328.28579458 146.99609375 324.73046875 C146.283927 323.77466919 146.283927 323.77466919 145.55737305 322.79956055 C144.63388289 321.55850467 143.71285542 320.31561206 142.79443359 319.07080078 C141.78480539 317.72105083 140.75713887 316.38470951 139.71728516 315.05810547 C139.17507324 314.36088379 138.63286133 313.66366211 138.07421875 312.9453125 C137.57825195 312.3174585 137.08228516 311.68960449 136.57128906 311.04272461 C134.82261151 308.31121628 134.43184147 306.10283941 134.65234375 302.89453125 C136.01913043 297.70965568 138.70967941 293.07324977 141.20703125 288.359375 C146.12681094 279.01438523 149.64296629 269.13599649 152.12109375 258.875 C153.75718819 255.33183298 155.91118771 253.76396828 159.37109375 252.16796875 C162.90189362 251.2964892 166.45102162 250.8954406 170.0625 250.5 C171.08536606 250.37485519 172.10823212 250.24971039 173.16209412 250.12077332 C176.41766184 249.72558359 179.67530094 249.35245297 182.93359375 248.98046875 C186.19472664 248.59288593 189.45530097 248.20086268 192.71580505 247.80802917 C194.74092039 247.56571783 196.76651416 247.32736377 198.7926178 247.09346008 C199.71384933 246.98632187 200.63508087 246.87918365 201.58422852 246.76879883 C202.38997818 246.6764949 203.19572784 246.58419098 204.02589417 246.48908997 C206.50043104 246.15025898 208.92734715 245.6814617 211.37109375 245.16796875 C212.3701628 241.01692117 212.50015717 237.11871114 212.50390625 232.85546875 C212.50486298 232.16412842 212.5058197 231.47278809 212.50680542 230.76049805 C212.50748321 229.30484933 212.50565699 227.84919753 212.50146484 226.39355469 C212.49611087 224.17506065 212.50142341 221.95676905 212.5078125 219.73828125 C212.50715165 218.31900997 212.50587034 216.89973882 212.50390625 215.48046875 C212.50277832 214.19785156 212.50165039 212.91523438 212.50048828 211.59375 C212.38909598 208.64458622 212.05958628 206.02859709 211.37109375 203.16796875 C206.53731646 202.49102331 201.70332235 201.81565282 196.86914062 201.14160156 C195.23236472 200.91316958 193.59564383 200.68434297 191.95898438 200.45507812 C190.36922713 200.23243399 188.77938315 200.01040834 187.18945312 199.78900146 C185.59936871 199.56729133 184.00952397 199.34385556 182.41992188 199.11871338 C178.55911289 198.5785134 174.70364204 198.08479419 170.82421875 197.69824219 C170.10435791 197.62245941 169.38449707 197.54667664 168.64282227 197.46859741 C166.69282592 197.26773317 164.74097639 197.08509386 162.7890625 196.90380859 C158.79796821 196.04458301 156.49332489 194.78607185 153.37109375 192.16796875 C152.11425781 189.81225586 152.11425781 189.81225586 151.38671875 187.1953125 C151.09603516 186.22223145 150.80535156 185.24915039 150.50585938 184.24658203 C150.21388672 183.21001465 149.92191406 182.17344727 149.62109375 181.10546875 C146.84919041 171.94186613 143.52332724 163.76184854 138.52050781 155.58569336 C135.35550729 150.16628261 134.10958688 145.4272279 135.37109375 139.16796875 C136.74906064 136.21896627 138.58632026 133.89244512 140.68359375 131.41796875 C141.49521973 130.40162354 141.49521973 130.40162354 142.32324219 129.36474609 C143.44153853 127.96736415 144.56969516 126.57781674 145.70751953 125.19628906 C147.28031764 123.27864793 148.81508675 121.33788117 150.3359375 119.37890625 C157.23785352 110.49067258 157.23785352 110.49067258 160.87109375 106.25 C161.98484375 104.94095703 161.98484375 104.94095703 163.12109375 103.60546875 C163.7759375 102.86167969 164.43078125 102.11789063 165.10546875 101.3515625 C166.56030121 99.24538105 166.56030121 99.24538105 166.42578125 96.7890625 C164.94500203 93.10905193 162.47149004 90.58957978 159.74609375 87.79296875 C159.19993408 87.21861084 158.65377441 86.64425293 158.09106445 86.05249023 C156.52764672 84.41439212 154.95156161 82.78959737 153.37109375 81.16796875 C152.67628906 80.44480469 151.98148437 79.72164062 151.265625 78.9765625 C149.66400022 77.33828726 148.03346037 75.74435089 146.37109375 74.16796875 C145.76523437 73.57886719 145.159375 72.98976562 144.53515625 72.3828125 C143.92414063 71.81691406 143.313125 71.25101563 142.68359375 70.66796875 C142.14347656 70.16265625 141.60335938 69.65734375 141.046875 69.13671875 C139.41357931 67.95879837 139.41357931 67.95879837 137.47875977 68.46142578 C135.25865066 69.20566252 133.82833588 70.08799654 131.97265625 71.50390625 C131.01673584 72.22670776 131.01673584 72.22670776 130.04150391 72.96411133 C129.36651855 73.48513428 128.6915332 74.00615723 127.99609375 74.54296875 C127.29145996 75.07881592 126.58682617 75.61466309 125.86083984 76.16674805 C121.20076278 79.72268261 116.59390102 83.34463672 111.99609375 86.98046875 C107.99279283 90.13676613 103.9835513 93.27921255 99.87109375 96.29296875 C99.13890625 96.83179688 98.40671875 97.370625 97.65234375 97.92578125 C94.74956277 99.50640514 92.68574534 100.02849084 89.37109375 100.16796875 C86.85830251 99.28493598 84.71947107 98.36982784 82.37109375 97.16796875 C80.93410817 96.47159374 79.4965788 95.77634005 78.05859375 95.08203125 C77.30030273 94.71094238 76.54201172 94.33985352 75.76074219 93.95751953 C67.86380125 90.10909204 60.07001192 86.80451615 51.66796875 84.23828125 C41.98559447 81.09495121 41.98559447 81.09495121 39.76513672 77.74536133 C37.89382911 72.94321241 37.36981649 68.28843814 36.80078125 63.1875 C36.6742215 62.13769455 36.54766174 61.0878891 36.41726685 60.00627136 C36.01634255 56.66548925 35.63057883 53.32317911 35.24609375 49.98046875 C34.85167662 46.62744275 34.45411408 43.27482194 34.05349731 39.92253113 C33.80551026 37.8396262 33.56162258 35.75622829 33.32223511 33.6723175 C33.2118692 32.73091415 33.1015033 31.7895108 32.98779297 30.81958008 C32.89247284 29.9916243 32.79715271 29.16366852 32.69894409 28.31062317 C32.4056196 25.98971227 32.4056196 25.98971227 31.37109375 23.16796875 C27.22004617 22.1688997 23.32183614 22.03890533 19.05859375 22.03515625 C18.36725342 22.03419952 17.67591309 22.0332428 16.96362305 22.03225708 C15.50797433 22.03157929 14.05232253 22.03340551 12.59667969 22.03759766 C10.37818565 22.04295163 8.15989405 22.03763909 5.94140625 22.03125 C4.52213497 22.03191085 3.10286382 22.03319216 1.68359375 22.03515625 C0.40097656 22.03628418 -0.88164062 22.03741211 -2.203125 22.03857422 C-5.16524188 22.15045577 -7.74610566 22.54760318 -10.62890625 23.16796875 Z " fill="#000000" transform="translate(245.62890625,31.83203125)"/>
<path d="M0 0 C1.12535156 0.04833984 1.12535156 0.04833984 2.2734375 0.09765625 C5.07856049 1.09948589 6.8342996 2.46295287 8.65234375 4.8269043 C10.79984937 9.48684056 10.12151556 14.79595262 9.9375 19.8125 C9.90366211 21.56046875 9.90366211 21.56046875 9.86914062 23.34375 C9.81041297 26.20965945 9.72832875 29.07290922 9.625 31.9375 C12.925 31.9375 16.225 31.9375 19.625 31.9375 C19.53798828 30.52597656 19.53798828 30.52597656 19.44921875 29.0859375 C19.03475618 17.64677052 19.03475618 17.64677052 22 14.125 C25.59614793 11.12821006 27.78573864 10.54363471 32.51953125 10.578125 C36.24093453 11.21331814 38.02812849 13.27729016 40.625 15.9375 C42.12656874 18.94063748 41.71781204 21.72817522 41.6875 25.0625 C41.67847656 26.34382813 41.66945313 27.62515625 41.66015625 28.9453125 C41.64275391 30.42644531 41.64275391 30.42644531 41.625 31.9375 C42.59179688 31.90269531 43.55859375 31.86789063 44.5546875 31.83203125 C56.47180138 31.58424967 65.54986959 32.65415949 74.625 40.9375 C81.34284262 47.80802086 84.75923452 56.07425148 84.71289062 65.62109375 C84.70451172 66.30300781 84.69613281 66.98492187 84.6875 67.6875 C84.68298828 68.38488281 84.67847656 69.08226562 84.67382812 69.80078125 C84.6621002 71.51305803 84.64416653 73.22529033 84.625 74.9375 C85.56601562 74.87949219 86.50703125 74.82148438 87.4765625 74.76171875 C98.91572948 74.34725618 98.91572948 74.34725618 102.4375 77.3125 C105.43428994 80.90864793 106.01886529 83.09823864 105.984375 87.83203125 C105.34918186 91.55343453 103.28520984 93.34062849 100.625 95.9375 C97.62186252 97.43906874 94.83432478 97.03031204 91.5 97 C90.21867188 96.99097656 88.93734375 96.98195313 87.6171875 96.97265625 C86.62976563 96.96105469 85.64234375 96.94945312 84.625 96.9375 C84.625 100.2375 84.625 103.5375 84.625 106.9375 C85.35090332 106.91131592 86.07680664 106.88513184 86.82470703 106.8581543 C90.13291541 106.7538319 93.4407772 106.68906128 96.75 106.625 C97.89210938 106.58310547 99.03421875 106.54121094 100.2109375 106.49804688 C109.71935057 106.3598432 109.71935057 106.3598432 113.36328125 109.17578125 C116.56209611 113.08176071 117.02115189 115.9856014 116.625 120.9375 C115.06155774 124.72267601 113.087548 126.80811553 109.625 128.9375 C106.87597656 129.27807617 106.87597656 129.27807617 103.765625 129.23046875 C102.65058594 129.22080078 101.53554688 129.21113281 100.38671875 129.20117188 C99.22785156 129.17603516 98.06898438 129.15089844 96.875 129.125 C95.70066406 129.11146484 94.52632812 129.09792969 93.31640625 129.08398438 C90.41880702 129.0486478 87.52213573 128.99930979 84.625 128.9375 C84.625 132.2375 84.625 135.5375 84.625 138.9375 C86.03652344 138.85048828 86.03652344 138.85048828 87.4765625 138.76171875 C98.91572948 138.34725618 98.91572948 138.34725618 102.4375 141.3125 C105.43428994 144.90864793 106.01886529 147.09823864 105.984375 151.83203125 C105.34918186 155.55343453 103.28520984 157.34062849 100.625 159.9375 C97.62186252 161.43906874 94.83432478 161.03031204 91.5 161 C90.21867188 160.99097656 88.93734375 160.98195313 87.6171875 160.97265625 C86.13605469 160.95525391 86.13605469 160.95525391 84.625 160.9375 C84.65980469 161.90429688 84.69460938 162.87109375 84.73046875 163.8671875 C84.97825033 175.78430138 83.90834051 184.86236959 75.625 193.9375 C68.75447914 200.65534262 60.48824852 204.07173452 50.94140625 204.02539062 C50.25949219 204.01701172 49.57757813 204.00863281 48.875 204 C48.17761719 203.99548828 47.48023438 203.99097656 46.76171875 203.98632812 C45.04944197 203.9746002 43.33720967 203.95666653 41.625 203.9375 C41.71201172 205.34902344 41.71201172 205.34902344 41.80078125 206.7890625 C42.21524382 218.22822948 42.21524382 218.22822948 39.25 221.75 C35.65385207 224.74678994 33.46426136 225.33136529 28.73046875 225.296875 C25.00906547 224.66168186 23.22187151 222.59770984 20.625 219.9375 C19.12343126 216.93436252 19.53218796 214.14682478 19.5625 210.8125 C19.57152344 209.53117188 19.58054687 208.24984375 19.58984375 206.9296875 C19.60724609 205.44855469 19.60724609 205.44855469 19.625 203.9375 C16.325 203.9375 13.025 203.9375 9.625 203.9375 C9.65118408 204.66340332 9.67736816 205.38930664 9.7043457 206.13720703 C9.8086681 209.44541541 9.87343872 212.7532772 9.9375 216.0625 C10.0003418 217.77566406 10.0003418 217.77566406 10.06445312 219.5234375 C10.2026568 229.03185057 10.2026568 229.03185057 7.38671875 232.67578125 C3.48073929 235.87459611 0.5768986 236.33365189 -4.375 235.9375 C-8.16017601 234.37405774 -10.24561553 232.400048 -12.375 228.9375 C-12.71557617 226.18847656 -12.71557617 226.18847656 -12.66796875 223.078125 C-12.65830078 221.96308594 -12.64863281 220.84804688 -12.63867188 219.69921875 C-12.61353516 218.54035156 -12.58839844 217.38148438 -12.5625 216.1875 C-12.54219727 214.42599609 -12.54219727 214.42599609 -12.52148438 212.62890625 C-12.4861478 209.73130702 -12.43680979 206.83463573 -12.375 203.9375 C-15.675 203.9375 -18.975 203.9375 -22.375 203.9375 C-22.31699219 204.87851562 -22.25898438 205.81953125 -22.19921875 206.7890625 C-21.78475618 218.22822948 -21.78475618 218.22822948 -24.75 221.75 C-28.34614793 224.74678994 -30.53573864 225.33136529 -35.26953125 225.296875 C-38.99093453 224.66168186 -40.77812849 222.59770984 -43.375 219.9375 C-44.87656874 216.93436252 -44.46781204 214.14682478 -44.4375 210.8125 C-44.42847656 209.53117188 -44.41945313 208.24984375 -44.41015625 206.9296875 C-44.39855469 205.94226563 -44.38695312 204.95484375 -44.375 203.9375 C-45.34179688 203.97230469 -46.30859375 204.00710938 -47.3046875 204.04296875 C-59.22180138 204.29075033 -68.29986959 203.22084051 -77.375 194.9375 C-84.09284262 188.06697914 -87.50923452 179.80074852 -87.46289062 170.25390625 C-87.45451172 169.57199219 -87.44613281 168.89007813 -87.4375 168.1875 C-87.43298828 167.49011719 -87.42847656 166.79273438 -87.42382812 166.07421875 C-87.4121002 164.36194197 -87.39416653 162.64970967 -87.375 160.9375 C-88.78652344 161.02451172 -88.78652344 161.02451172 -90.2265625 161.11328125 C-101.66572948 161.52774382 -101.66572948 161.52774382 -105.1875 158.5625 C-108.18428994 154.96635207 -108.76886529 152.77676136 -108.734375 148.04296875 C-108.09918186 144.32156547 -106.03520984 142.53437151 -103.375 139.9375 C-100.37186252 138.43593126 -97.58432478 138.84468796 -94.25 138.875 C-92.96867187 138.88402344 -91.68734375 138.89304687 -90.3671875 138.90234375 C-88.88605469 138.91974609 -88.88605469 138.91974609 -87.375 138.9375 C-87.375 135.6375 -87.375 132.3375 -87.375 128.9375 C-88.46385498 128.97677612 -88.46385498 128.97677612 -89.57470703 129.0168457 C-92.88291541 129.1211681 -96.1907772 129.18593872 -99.5 129.25 C-101.21316406 129.3128418 -101.21316406 129.3128418 -102.9609375 129.37695312 C-112.46935057 129.5151568 -112.46935057 129.5151568 -116.11328125 126.69921875 C-119.31209611 122.79323929 -119.77115189 119.8893986 -119.375 114.9375 C-117.81155774 111.15232399 -115.837548 109.06688447 -112.375 106.9375 C-109.62597656 106.59692383 -109.62597656 106.59692383 -106.515625 106.64453125 C-105.40058594 106.65419922 -104.28554687 106.66386719 -103.13671875 106.67382812 C-101.97785156 106.69896484 -100.81898438 106.72410156 -99.625 106.75 C-97.86349609 106.77030273 -97.86349609 106.77030273 -96.06640625 106.79101562 C-93.16880702 106.8263522 -90.27213573 106.87569021 -87.375 106.9375 C-87.375 103.6375 -87.375 100.3375 -87.375 96.9375 C-88.31601563 96.99550781 -89.25703125 97.05351562 -90.2265625 97.11328125 C-101.66572948 97.52774382 -101.66572948 97.52774382 -105.1875 94.5625 C-108.18428994 90.96635207 -108.76886529 88.77676136 -108.734375 84.04296875 C-108.09918186 80.32156547 -106.03520984 78.53437151 -103.375 75.9375 C-100.37186252 74.43593126 -97.58432478 74.84468796 -94.25 74.875 C-92.96867187 74.88402344 -91.68734375 74.89304687 -90.3671875 74.90234375 C-89.37976563 74.91394531 -88.39234375 74.92554688 -87.375 74.9375 C-87.40980469 73.97070312 -87.44460937 73.00390625 -87.48046875 72.0078125 C-87.72861739 60.07304471 -86.64397602 51.02945467 -78.375 41.9375 C-77.87226563 41.380625 -77.36953125 40.82375 -76.8515625 40.25 C-69.79357089 33.36415452 -60.66488032 31.60369763 -51.125 31.6875 C-48.8743465 31.75077138 -46.6238247 31.82690206 -44.375 31.9375 C-44.43300781 30.99648437 -44.49101562 30.05546875 -44.55078125 29.0859375 C-44.96524382 17.64677052 -44.96524382 17.64677052 -42 14.125 C-38.40385207 11.12821006 -36.21426136 10.54363471 -31.48046875 10.578125 C-27.75906547 11.21331814 -25.97187151 13.27729016 -23.375 15.9375 C-21.87343126 18.94063748 -22.28218796 21.72817522 -22.3125 25.0625 C-22.32152344 26.34382813 -22.33054687 27.62515625 -22.33984375 28.9453125 C-22.35144531 29.93273437 -22.36304688 30.92015625 -22.375 31.9375 C-19.075 31.9375 -15.775 31.9375 -12.375 31.9375 C-12.41427612 30.84864502 -12.41427612 30.84864502 -12.4543457 29.73779297 C-12.5586681 26.42958459 -12.62343872 23.1217228 -12.6875 19.8125 C-12.72939453 18.67039063 -12.77128906 17.52828125 -12.81445312 16.3515625 C-12.95261915 6.84574003 -12.95261915 6.84574003 -10.04296875 3.1953125 C-6.63467168 0.31098496 -4.33811977 -0.28871446 0 0 Z M-63.25 58.875 C-65.13325676 62.3276374 -65.50037215 65.50030186 -65.51544189 69.39558411 C-65.52115204 70.28286697 -65.52686218 71.17014984 -65.53274536 72.08432007 C-65.53386322 73.05011993 -65.53498108 74.0159198 -65.53613281 75.01098633 C-65.54109772 76.03420486 -65.54606262 77.0574234 -65.55117798 78.11164856 C-65.56578633 81.49761629 -65.57259933 84.88353718 -65.578125 88.26953125 C-65.58387742 90.62359112 -65.58963514 92.97765097 -65.59539795 95.33171082 C-65.60590407 100.26875019 -65.61174933 105.20577329 -65.61523438 110.14282227 C-65.62071909 116.46456835 -65.6447485 122.78609906 -65.67320633 129.1077776 C-65.69184254 133.97113165 -65.69703884 138.83443392 -65.69857025 143.69782066 C-65.70159493 146.0281867 -65.70961719 148.35855186 -65.72275543 150.68888283 C-65.7398365 153.95136469 -65.73793043 157.21332147 -65.73144531 160.47583008 C-65.7406601 161.43555725 -65.74987488 162.39528442 -65.7593689 163.38409424 C-65.72439608 169.00912147 -65.05939077 172.96210289 -62.375 177.9375 C-58.67997643 181.51332926 -54.91478808 182.05860654 -49.91691589 182.07794189 C-49.02963303 182.08365204 -48.14235016 182.08936218 -47.22817993 182.09524536 C-46.26238007 182.09636322 -45.2965802 182.09748108 -44.30151367 182.09863281 C-43.27829514 182.10359772 -42.2550766 182.10856262 -41.20085144 182.11367798 C-37.81488371 182.12828633 -34.42896282 182.13509933 -31.04296875 182.140625 C-28.68890888 182.14637742 -26.33484903 182.15213514 -23.98078918 182.15789795 C-19.04374981 182.16840407 -14.10672671 182.17424933 -9.16967773 182.17773438 C-2.84793165 182.18321909 3.47359906 182.2072485 9.7952776 182.23570633 C14.65863165 182.25434254 19.52193392 182.25953884 24.38532066 182.26107025 C26.7156867 182.26409493 29.04605186 182.27211719 31.37638283 182.28525543 C34.63886469 182.3023365 37.90082147 182.30043043 41.16333008 182.29394531 C42.60292084 182.30776749 42.60292084 182.30776749 44.07159424 182.3218689 C49.69662147 182.28689608 53.64960289 181.62189077 58.625 178.9375 C62.20082926 175.24247643 62.74610654 171.47728808 62.76544189 166.47941589 C62.77115204 165.59213303 62.77686218 164.70485016 62.78274536 163.79067993 C62.78386322 162.82488007 62.78498108 161.8590802 62.78613281 160.86401367 C62.79109772 159.84079514 62.79606262 158.8175766 62.80117798 157.76335144 C62.81578633 154.37738371 62.82259933 150.99146282 62.828125 147.60546875 C62.83387742 145.25140888 62.83963514 142.89734903 62.84539795 140.54328918 C62.85590407 135.60624981 62.86174933 130.66922671 62.86523438 125.73217773 C62.87071909 119.41043165 62.8947485 113.08890094 62.92320633 106.7672224 C62.94184254 101.90386835 62.94703884 97.04056608 62.94857025 92.17717934 C62.95159493 89.8468133 62.95961719 87.51644814 62.97275543 85.18611717 C62.9898365 81.92363531 62.98793043 78.66167853 62.98144531 75.39916992 C62.9906601 74.43944275 62.99987488 73.47971558 63.0093689 72.49090576 C62.97439608 66.86587853 62.30939077 62.91289711 59.625 57.9375 C55.92997643 54.36167074 52.16478808 53.81639346 47.16691589 53.79705811 C45.83599159 53.78849289 45.83599159 53.78849289 44.47817993 53.77975464 C43.51238007 53.77863678 42.5465802 53.77751892 41.55151367 53.77636719 C40.52829514 53.77140228 39.5050766 53.76643738 38.45085144 53.76132202 C35.06488371 53.74671367 31.67896282 53.73990067 28.29296875 53.734375 C25.93890888 53.72862258 23.58484903 53.72286486 21.23078918 53.71710205 C16.29374981 53.70659593 11.35672671 53.70075067 6.41967773 53.69726562 C0.09793165 53.69178091 -6.22359906 53.6677515 -12.5452776 53.63929367 C-17.40863165 53.62065746 -22.27193392 53.61546116 -27.13532066 53.61392975 C-29.4656867 53.61090507 -31.79605186 53.60288281 -34.12638283 53.58974457 C-37.38886469 53.5726635 -40.65082147 53.57456957 -43.91333008 53.58105469 C-44.87305725 53.5718399 -45.83278442 53.56262512 -46.82159424 53.5531311 C-53.12801076 53.59234037 -58.63504986 54.10621819 -63.25 58.875 Z " fill="#000000" transform="translate(257.375,138.0625)"/>
<path d="M0 0 C6.95441092 6.98381646 9.30916787 15.35188854 9.44248962 25.03166199 C9.43955399 25.99445572 9.43661835 26.95724945 9.43359375 27.94921875 C9.4388356 28.96546829 9.44407745 29.98171783 9.44947815 31.02876282 C9.45586403 33.16247651 9.45460624 35.29622557 9.44604492 37.42993164 C9.4374962 40.68894827 9.4664076 43.9462324 9.49804688 47.20507812 C9.49965821 49.28645781 9.49908265 51.36784059 9.49609375 53.44921875 C9.51294472 54.90251839 9.51294472 54.90251839 9.53013611 56.38517761 C9.46998332 62.22974879 8.87262157 65.5384854 5 70 C1.43719369 72.27623736 -1.90020801 72.35394221 -6.0625 71.65234375 C-8.74342192 70.74969464 -10.5062057 69.23795776 -12.16796875 66.96484375 C-13.82326808 63.0558505 -13.28169035 59.16901711 -13 55 C-18.28 55 -23.56 55 -29 55 C-28.9175 56.36125 -28.835 57.7225 -28.75 59.125 C-28.75 63.833327 -29.83581216 66.39634162 -33 70 C-35.93275236 71.82605336 -38.00476687 72.28556532 -41.4375 72 C-42.17871094 71.95875 -42.91992188 71.9175 -43.68359375 71.875 C-47.23239581 70.53447443 -49.23217003 68.26173874 -51 65 C-51.74154009 61.2984639 -51.72487729 57.66441521 -51.69921875 53.8984375 C-51.70637405 52.82558502 -51.71352936 51.75273254 -51.72090149 50.64736938 C-51.72867161 48.37966745 -51.72368107 46.1118906 -51.70678711 43.84423828 C-51.6876746 40.40640545 -51.7268444 36.97268075 -51.77148438 33.53515625 C-51.86011527 10.58863784 -51.86011527 10.58863784 -42.99072266 0.77734375 C-31.09260988 -10.9557337 -12.6432805 -10.16420589 0 0 Z M-26.875 16.75 C-30.16659241 21.78420016 -29.32617581 26.06360028 -29 32 C-23.72 32 -18.44 32 -13 32 C-12.31662783 23.39905177 -12.31662783 23.39905177 -16 16 C-20.05290316 13.97354842 -23.0716436 14.4349135 -26.875 16.75 Z " fill="#000000" transform="translate(262,224)"/>
<path d="M0 0 C3.75158159 3.76532857 4.50493456 6.27204421 4.53344727 11.53100586 C4.5492836 12.83263168 4.56511993 14.13425751 4.58143616 15.47532654 C4.57759432 16.8885026 4.57255507 18.30167584 4.56640625 19.71484375 C4.57164483 21.17306413 4.57792217 22.63128112 4.58518982 24.0894928 C4.59558342 27.14177423 4.59104858 30.19358917 4.57641602 33.24584961 C4.55923634 37.14787188 4.58271628 41.04842045 4.61790562 44.95027828 C4.63992032 47.96075608 4.63842841 50.9708835 4.6301403 53.9814167 C4.62932285 55.41946592 4.63614689 56.8575414 4.65091133 58.29551506 C4.76069587 70.92382577 4.76069587 70.92382577 1.60107422 74.86889648 C-1.72481166 77.59385029 -3.60601627 78.03647829 -7.78125 78.23828125 C-11.35517431 77.85446191 -13.37644628 76.36759726 -16 74 C-18.20239469 70.6155713 -18.26313948 67.75370711 -18.29052734 63.76611328 C-18.30328705 62.50445343 -18.31604675 61.24279358 -18.32919312 59.94290161 C-18.33225086 58.5687068 -18.33447857 57.19450993 -18.3359375 55.8203125 C-18.34236782 54.40550604 -18.34909636 52.99070091 -18.35610962 51.57589722 C-18.36807459 48.61192748 -18.37179128 45.64807421 -18.37060547 42.68408203 C-18.37040236 38.89548882 -18.39769849 35.10764643 -18.43214989 31.31923103 C-18.45444393 28.39717208 -18.45844226 25.47529308 -18.45738602 22.55315781 C-18.45973845 21.15696501 -18.46854187 19.76076699 -18.48405075 18.36465836 C-18.50375675 16.40742994 -18.49533838 14.44998035 -18.48583984 12.49267578 C-18.4901149 10.82532883 -18.4901149 10.82532883 -18.49447632 9.1242981 C-17.87638515 5.21895218 -16.47344326 3.05444668 -14 0 C-8.7656583 -2.37026794 -5.25491153 -2.28043331 0 0 Z " fill="#000000" transform="translate(297,218)"/>
</svg>
