<?xml version="1.0" encoding="UTF-8"?>
<svg version="1.1" xmlns="http://www.w3.org/2000/svg" width="512" height="512">
<path d="M0 0 C1.06077255 -0.00671722 2.1215451 -0.01343445 3.21446228 -0.02035522 C6.72008961 -0.03934785 10.2255256 -0.04326016 13.73120117 -0.04541016 C16.17111795 -0.05183742 18.61103395 -0.05856573 21.0509491 -0.06558228 C26.1661457 -0.07755838 31.28127474 -0.08126277 36.39648438 -0.08007812 C42.94350949 -0.07987497 49.49010035 -0.10717221 56.03702259 -0.14162254 C61.07714315 -0.16388623 66.11715914 -0.16791581 71.15732384 -0.16685867 C73.5705992 -0.16921561 75.9838774 -0.17804428 78.39710426 -0.19352341 C81.77676205 -0.21317076 85.1554826 -0.2073493 88.53515625 -0.1953125 C89.52712006 -0.20655151 90.51908386 -0.21779053 91.54110718 -0.22937012 C98.64909047 -0.16520689 103.96113295 1.340173 109.44995117 5.96630859 C109.88694336 6.50642578 110.32393555 7.04654297 110.77416992 7.60302734 C111.44899414 8.40160156 111.44899414 8.40160156 112.13745117 9.21630859 C116.7530964 16.44612458 116.98112358 22.78249842 117.14916992 31.22802734 C117.18333008 32.38882813 117.21749023 33.54962891 117.25268555 34.74560547 C117.33473277 37.59381617 117.40402528 40.44173574 117.46166992 43.29052734 C118.09967529 43.54632568 118.73768066 43.80212402 119.39501953 44.06567383 C143.73157376 53.8750293 165.75405272 65.20029955 186.13623047 81.90136719 C188.59014375 83.90262411 190.42481458 85.27824223 193.46166992 86.29052734 C195.44483563 85.53615135 195.44483563 85.53615135 197.48120117 84.27099609 C198.25657227 83.825625 199.03194336 83.38025391 199.83081055 82.92138672 C200.63711914 82.44507812 201.44342773 81.96876953 202.27416992 81.47802734 C210.6003812 76.60925335 217.85136097 72.63667412 227.76245117 74.79052734 C235.7255582 77.14600102 240.300961 81.32920892 244.39916992 88.47802734 C244.76703613 89.11184326 245.13490234 89.74565918 245.51391602 90.39868164 C246.35796072 91.85671554 247.19645308 93.31797233 248.03051758 94.78173828 C249.62432421 97.57565793 251.23541913 100.35919048 252.84838867 103.14208984 C256.06982437 108.70541466 259.27676873 114.27696638 262.48120117 119.85009766 C264.41846193 123.21546731 266.36088989 126.577791 268.30541992 129.93896484 C274.51911143 140.68114361 280.70963174 151.43614329 286.83666992 162.22802734 C287.3904834 163.19957764 287.94429688 164.17112793 288.51489258 165.17211914 C289.02068848 166.06584229 289.52648437 166.95956543 290.04760742 167.88037109 C290.49152832 168.66275146 290.93544922 169.44513184 291.39282227 170.2512207 C294.57411401 176.32096257 294.53419894 184.11654499 292.84838867 190.67724609 C288.14182739 201.23072492 276.16783099 207.05774369 266.46166992 212.29052734 C265.80166992 212.29052734 265.14166992 212.29052734 264.46166992 212.29052734 C264.75041992 213.28052734 265.03916992 214.27052734 265.33666992 215.29052734 C268.61925005 228.65189269 268.82738067 242.30383485 268.77416992 255.97802734 C268.77367645 256.85228363 268.77318298 257.72653992 268.77267456 258.62728882 C268.72279111 287.50716378 268.72279111 287.50716378 264.46166992 300.29052734 C265.47100586 300.65791016 265.47100586 300.65791016 266.50073242 301.03271484 C276.5876764 305.31766994 287.71367936 311.41845028 292.59057617 321.66162109 C294.95186994 328.78785745 294.47184464 335.88961413 291.30859375 342.69506836 C289.47472682 346.29508596 287.48840629 349.79617898 285.46166992 353.29052734 C284.96296387 354.16080566 284.46425781 355.03108398 283.95043945 355.92773438 C281.07878915 360.92982345 278.17122297 365.90965344 275.23901367 370.87646484 C271.43433307 377.3218325 267.69386822 383.80299858 263.96166992 390.29052734 C262.7145371 392.45213744 261.46714129 394.61359583 260.21948242 396.77490234 C258.31593657 400.07305646 256.41466516 403.37243711 254.51928711 406.67529297 C252.63020648 409.96668559 250.73403789 413.25390695 248.83666992 416.54052734 C248.26883789 417.53439453 247.70100586 418.52826172 247.1159668 419.55224609 C239.38620759 432.90112366 239.38620759 432.90112366 233.39916992 435.60302734 C232.74819336 435.90853516 232.0972168 436.21404297 231.42651367 436.52880859 C223.94752143 439.42821911 217.56807674 438.80357931 210.32104492 435.72021484 C208.09361365 434.60649921 205.98688988 433.44670525 203.85229492 432.17333984 C202.91764404 431.61743164 202.91764404 431.61743164 201.96411133 431.05029297 C200.72703272 430.30257628 199.49967325 429.53850159 198.28344727 428.75732422 C196.38449783 427.54747865 196.38449783 427.54747865 193.46166992 426.29052734 C190.59465283 427.37238718 188.35852151 429.03266733 185.98510742 430.94287109 C175.91905929 438.9142786 165.61292272 445.9264783 154.46166992 452.29052734 C153.41027832 452.89356689 153.41027832 452.89356689 152.33764648 453.50878906 C141.13711006 459.86379628 129.49770664 464.74441402 117.46166992 469.29052734 C117.45756104 469.9954834 117.45345215 470.70043945 117.44921875 471.42675781 C117.41597691 474.67382055 117.3452999 477.91908217 117.27416992 481.16552734 C117.26546875 482.82841797 117.26546875 482.82841797 117.2565918 484.52490234 C117.03542841 492.87996363 115.50240372 499.96525015 109.6484375 506.23144531 C103.24888512 512.14656205 97.349711 512.58870714 88.92333984 512.58105469 C87.33218102 512.59113052 87.33218102 512.59113052 85.70887756 512.60140991 C82.20325023 512.62040254 78.69781425 512.62431485 75.19213867 512.62646484 C72.7522219 512.63289211 70.3123059 512.63962042 67.87239075 512.64663696 C62.75719415 512.65861307 57.6420651 512.66231746 52.52685547 512.66113281 C45.97983035 512.66092966 39.43323949 512.6882269 32.88631725 512.72267723 C27.84619669 512.74494092 22.8061807 512.7489705 17.76601601 512.74791336 C15.35274065 512.7502703 12.93946245 512.75909897 10.52623558 512.77457809 C7.14657779 512.79422544 3.76785724 512.78840398 0.38818359 512.77636719 C-0.60378021 512.7876062 -1.59574402 512.79884521 -2.61776733 512.8104248 C-9.72575062 512.74626158 -15.03779311 511.24088169 -20.52661133 506.61474609 C-20.96360352 506.07462891 -21.4005957 505.53451172 -21.85083008 504.97802734 C-22.30071289 504.44564453 -22.7505957 503.91326172 -23.21411133 503.36474609 C-27.82975656 496.13493011 -28.05778374 489.79855626 -28.22583008 481.35302734 C-28.25999023 480.19222656 -28.29415039 479.03142578 -28.3293457 477.83544922 C-28.41139292 474.98723852 -28.48068544 472.13931895 -28.53833008 469.29052734 C-29.17633545 469.034729 -29.81434082 468.77893066 -30.47167969 468.51538086 C-54.80823391 458.70602538 -76.83071288 447.38075514 -97.21289062 430.6796875 C-99.66680391 428.67843058 -101.50147474 427.30281246 -104.53833008 426.29052734 C-106.52149578 427.04490334 -106.52149578 427.04490334 -108.55786133 428.31005859 C-109.72091797 428.97811523 -109.72091797 428.97811523 -110.9074707 429.65966797 C-112.11693359 430.37413086 -112.11693359 430.37413086 -113.35083008 431.10302734 C-121.67704136 435.97180134 -128.92802112 439.94438056 -138.83911133 437.79052734 C-146.80221835 435.43505367 -151.37762116 431.25184577 -155.47583008 424.10302734 C-155.84369629 423.46921143 -156.2115625 422.83539551 -156.59057617 422.18237305 C-157.43462088 420.72433914 -158.27311324 419.26308235 -159.10717773 417.79931641 C-160.70098437 415.00539676 -162.31207928 412.2218642 -163.92504883 409.43896484 C-167.14648453 403.87564002 -170.35342889 398.3040883 -173.55786133 392.73095703 C-175.49512209 389.36558738 -177.43755005 386.00326368 -179.38208008 382.64208984 C-185.59577159 371.89991107 -191.7862919 361.1449114 -197.91333008 350.35302734 C-198.74405029 348.8957019 -198.74405029 348.8957019 -199.59155273 347.40893555 C-200.09734863 346.5152124 -200.60314453 345.62148926 -201.12426758 344.70068359 C-201.56818848 343.91830322 -202.01210937 343.13592285 -202.46948242 342.32983398 C-205.65077416 336.26009212 -205.6108591 328.4645097 -203.92504883 321.90380859 C-199.21848754 311.35032977 -187.24449114 305.523311 -177.53833008 300.29052734 C-176.87833008 300.29052734 -176.21833008 300.29052734 -175.53833008 300.29052734 C-175.97145508 298.80552734 -175.97145508 298.80552734 -176.41333008 297.29052734 C-179.69591021 283.929162 -179.90404083 270.27721984 -179.85083008 256.60302734 C-179.85033661 255.72877106 -179.84984314 254.85451477 -179.84933472 253.95376587 C-179.79945127 225.07389091 -179.79945127 225.07389091 -175.53833008 212.29052734 C-176.2112207 212.04560547 -176.88411133 211.80068359 -177.57739258 211.54833984 C-187.66433655 207.26338475 -198.79033952 201.16260441 -203.66723633 190.91943359 C-206.0285301 183.79319724 -205.5485048 176.69144055 -202.38525391 169.88598633 C-200.55138698 166.28596873 -198.56506645 162.78487571 -196.53833008 159.29052734 C-196.03962402 158.42024902 -195.54091797 157.5499707 -195.02709961 156.65332031 C-192.15544931 151.65123124 -189.24788313 146.67140125 -186.31567383 141.70458984 C-182.51099323 135.25922219 -178.77052837 128.77805611 -175.03833008 122.29052734 C-173.79119725 120.12891725 -172.54380144 117.96745886 -171.29614258 115.80615234 C-169.39259673 112.50799823 -167.49132531 109.20861758 -165.59594727 105.90576172 C-163.70686664 102.6143691 -161.81069805 99.32714774 -159.91333008 96.04052734 C-159.34549805 95.04666016 -158.77766602 94.05279297 -158.19262695 93.02880859 C-150.46286775 79.67993103 -150.46286775 79.67993103 -144.47583008 76.97802734 C-143.49936523 76.51976563 -143.49936523 76.51976563 -142.50317383 76.05224609 C-135.02418158 73.15283558 -128.64473689 73.77747538 -121.39770508 76.86083984 C-119.17027381 77.97455548 -117.06355004 79.13434944 -114.92895508 80.40771484 C-114.30585449 80.77832031 -113.68275391 81.14892578 -113.04077148 81.53076172 C-111.80369288 82.27847841 -110.57633341 83.0425531 -109.36010742 83.82373047 C-107.46115799 85.03357604 -107.46115799 85.03357604 -104.53833008 86.29052734 C-101.67131298 85.20866751 -99.43518167 83.54838736 -97.06176758 81.63818359 C-86.99571945 73.66677609 -76.68958287 66.65457639 -65.53833008 60.29052734 C-64.83740234 59.88850098 -64.13647461 59.48647461 -63.41430664 59.07226562 C-52.21377021 52.71725841 -40.5743668 47.83664067 -28.53833008 43.29052734 C-28.53422119 42.58557129 -28.5301123 41.88061523 -28.52587891 41.15429688 C-28.49263707 37.90723414 -28.42196006 34.66197252 -28.35083008 31.41552734 C-28.34212891 29.75263672 -28.34212891 29.75263672 -28.33325195 28.05615234 C-28.11208857 19.70109106 -26.57906388 12.61580454 -20.72509766 6.34960938 C-14.32554527 0.43449264 -8.42637115 -0.00765245 0 0 Z M-11.53833008 21.29052734 C-12.24903176 24.6934476 -12.24903176 24.6934476 -12.10473633 28.41943359 C-12.11037094 29.09094955 -12.11600555 29.76246552 -12.12181091 30.45433044 C-12.13819868 32.58794985 -12.12277071 34.71948161 -12.10083008 36.85302734 C-12.0842088 38.98994497 -12.07516512 41.12549671 -12.09056091 43.26243591 C-12.10406553 45.19827642 -12.08867582 47.13425451 -12.07177734 49.07006836 C-12.53833008 52.29052734 -12.53833008 52.29052734 -14.2890625 54.61157227 C-16.51712099 56.27469592 -18.34420064 57.24003618 -20.96020508 58.14990234 C-21.81267822 58.45661865 -22.66515137 58.76333496 -23.54345703 59.0793457 C-24.44926514 59.39653564 -25.35507324 59.71372559 -26.28833008 60.04052734 C-35.76064347 63.50799079 -44.66426081 67.51235443 -53.53833008 72.29052734 C-54.54935791 72.82613281 -54.54935791 72.82613281 -55.58081055 73.37255859 C-64.87551158 78.31575877 -73.30018962 83.7047024 -81.53833008 90.29052734 C-82.43422852 90.99435547 -83.33012695 91.69818359 -84.25317383 92.42333984 C-88.97838703 96.13534353 -88.97838703 96.13534353 -93.46801758 100.12255859 C-94.33813477 100.94820312 -94.33813477 100.94820312 -95.22583008 101.79052734 C-95.70407227 102.27521484 -96.18231445 102.75990234 -96.67504883 103.25927734 C-99.79403869 104.98551073 -102.02126579 104.70429961 -105.53833008 104.29052734 C-108.68650447 102.98159339 -111.55689192 101.29435348 -114.47583008 99.54052734 C-116.00483465 98.6482838 -117.53477668 97.75764471 -119.06567383 96.86865234 C-120.17869873 96.21993164 -120.17869873 96.21993164 -121.31420898 95.55810547 C-127.45365771 91.76309687 -127.45365771 91.76309687 -134.28833008 90.29052734 C-138.89614104 92.33844333 -141.26485325 96.19082926 -143.68286133 100.45458984 C-144.26938477 101.48068359 -144.8559082 102.50677734 -145.46020508 103.56396484 C-146.08411133 104.66998047 -146.70801758 105.77599609 -147.35083008 106.91552734 C-148.01551276 108.08258265 -148.68089007 109.24924257 -149.34692383 110.41552734 C-150.72933811 112.83750824 -152.10875523 115.26115889 -153.48608398 117.68603516 C-156.64227127 123.23692401 -159.84253608 128.76238216 -163.03833008 134.29052734 C-164.27292689 136.42972226 -165.50730048 138.56904602 -166.74145508 140.70849609 C-167.35827148 141.7776123 -167.97508789 142.84672852 -168.6105957 143.94824219 C-170.29375204 146.86648058 -171.97629842 149.78506879 -173.65844727 152.70388794 C-175.03639945 155.09479332 -176.4146718 157.48551406 -177.79296875 159.8762207 C-178.7637399 161.56036698 -179.73404882 163.24477966 -180.7043457 164.92919922 C-181.2940918 165.95207031 -181.88383789 166.97494141 -182.49145508 168.02880859 C-183.00869141 168.92639893 -183.52592773 169.82398926 -184.05883789 170.7487793 C-185.07525214 172.49496556 -186.12488316 174.22210659 -187.20141602 175.93188477 C-188.94244135 179.00347822 -189.04622902 180.80779174 -188.53833008 184.29052734 C-185.84230981 188.26135819 -183.09531333 190.44069494 -178.93286133 192.77099609 C-177.86745117 193.3775 -176.80204102 193.98400391 -175.7043457 194.60888672 C-174.59768555 195.22570312 -173.49102539 195.84251953 -172.35083008 196.47802734 C-170.14637394 197.71684275 -167.94440646 198.96010071 -165.74536133 200.20849609 C-164.2832019 201.02483521 -164.2832019 201.02483521 -162.79150391 201.85766602 C-160.53833008 203.29052734 -160.53833008 203.29052734 -159.53833008 205.29052734 C-159.27655578 210.61998358 -159.96389121 215.46933891 -160.97583008 220.66552734 C-163.20867963 232.33189917 -163.7738977 243.67756764 -163.78833008 255.54052734 C-163.79033417 256.34021942 -163.79233826 257.1399115 -163.79440308 257.96383667 C-163.80175907 269.95575956 -163.04936614 281.48542637 -160.88452148 293.30175781 C-160.38669947 296.16160135 -160.06785915 299.02706024 -159.78833008 301.91552734 C-159.71098633 302.71216797 -159.63364258 303.50880859 -159.55395508 304.32958984 C-159.53833008 306.29052734 -159.53833008 306.29052734 -160.53833008 309.29052734 C-162.89916992 310.94458008 -162.89916992 310.94458008 -165.99926758 312.72412109 C-167.66602539 313.69768555 -167.66602539 313.69768555 -169.36645508 314.69091797 C-170.54818302 315.370935 -171.73048113 316.0499621 -172.91333008 316.72802734 C-175.2186764 318.05058484 -177.51650972 319.3838924 -179.81176758 320.72412109 C-181.34969971 321.60668579 -181.34969971 321.60668579 -182.91870117 322.50708008 C-185.55282208 324.30039352 -187.04931869 325.48470534 -188.53833008 328.29052734 C-189.11484086 332.96366973 -188.16780823 335.6592197 -185.78442383 339.64990234 C-185.18500977 340.66955078 -184.5855957 341.68919922 -183.96801758 342.73974609 C-183.3105957 343.82900391 -182.65317383 344.91826172 -181.97583008 346.04052734 C-181.29085591 347.19726311 -180.60728623 348.35483159 -179.92504883 349.51318359 C-178.50712666 351.91813817 -177.08323829 354.31940293 -175.6550293 356.71826172 C-172.39256315 362.20938323 -169.22032946 367.7525393 -166.03833008 373.29052734 C-164.80172663 375.43397332 -163.56474519 377.57720126 -162.32739258 379.72021484 C-160.03849022 383.68724719 -157.75234197 387.65583936 -155.4697876 391.62652588 C-154.44557343 393.40802312 -153.42075357 395.18917056 -152.39575195 396.97021484 C-151.11199632 399.20129359 -149.82937069 401.43302308 -148.5480957 403.66552734 C-146.88917502 406.54710007 -145.21648997 409.42012877 -143.53833008 412.29052734 C-143.07716797 413.0971582 -142.61600586 413.90378906 -142.14086914 414.73486328 C-141.71773437 415.4519043 -141.29459961 416.16894531 -140.85864258 416.90771484 C-140.50302246 417.5198584 -140.14740234 418.13200195 -139.78100586 418.76269531 C-138.157853 420.75831232 -136.99362696 421.49109085 -134.53833008 422.29052734 C-130.04316971 421.99544765 -126.95646668 420.65664347 -123.13208008 418.34912109 C-121.64514648 417.47416992 -121.64514648 417.47416992 -120.12817383 416.58154297 C-118.06655282 415.344831 -116.00665588 414.10524046 -113.94848633 412.86279297 C-112.95719727 412.28078125 -111.9659082 411.69876953 -110.94458008 411.09912109 C-109.60363281 410.29172485 -109.60363281 410.29172485 -108.2355957 409.46801758 C-105.10492968 408.10132657 -102.92141619 407.99104491 -99.53833008 408.29052734 C-97.47583008 409.43505859 -97.47583008 409.43505859 -95.53833008 411.10302734 C-94.76489258 411.74369141 -93.99145508 412.38435547 -93.19458008 413.04443359 C-92.31801758 413.78564453 -91.44145508 414.52685547 -90.53833008 415.29052734 C-68.32044545 433.4407437 -44.05795211 446.62108236 -17.01489258 456.14990234 C-14.53833008 457.29052734 -14.53833008 457.29052734 -12.53833008 460.29052734 C-12.29882812 463.39746094 -12.29882812 463.39746094 -12.30004883 467.18896484 C-12.28462803 468.569183 -12.26832431 469.94939152 -12.2512207 471.32958984 C-12.23478018 473.49777531 -12.22582918 475.66525352 -12.23291016 477.83349609 C-12.23553801 479.93195882 -12.20736103 482.02828793 -12.17504883 484.12646484 C-12.17206787 485.37991699 -12.16908691 486.63336914 -12.16601562 487.92480469 C-11.33911395 492.35874729 -10.12695165 493.57257203 -6.53833008 496.29052734 C-3.25451881 497.02254489 -0.04033983 496.97407767 3.31323242 496.9375 C4.30079529 496.9462616 5.28835815 496.95502319 6.30584717 496.96405029 C9.56656985 496.98603646 12.82593373 496.97149354 16.08666992 496.95458984 C18.35441345 496.95795818 20.62215523 496.96281094 22.88989258 496.96908569 C27.64120685 496.976456 32.39205095 496.96574584 37.14331055 496.94238281 C43.23346379 496.91389563 49.32251535 496.93029865 55.41262817 496.96024513 C60.09497376 496.97831342 64.77705817 496.97256208 69.45941162 496.95960617 C71.70489635 496.9562709 73.95040479 496.96036346 76.19586182 496.97200394 C79.3345825 496.98470428 82.47151959 496.96534536 85.61010742 496.9375 C86.53805115 496.94762115 87.46599487 496.95774231 88.42205811 496.96817017 C92.90885751 496.8944313 94.86420021 496.74294071 98.54014587 493.9594574 C101.02852556 490.50318458 101.06117299 488.39555255 101.02807617 484.16162109 C101.03652809 483.15434715 101.03652809 483.15434715 101.04515076 482.12672424 C101.06153853 479.99310484 101.04611055 477.86157308 101.02416992 475.72802734 C101.00754865 473.59110972 100.99850496 471.45555798 101.01390076 469.31861877 C101.02740537 467.38277827 101.01201566 465.44680018 100.99511719 463.51098633 C101.46166992 460.29052734 101.46166992 460.29052734 103.21240234 457.96948242 C105.44046083 456.30635877 107.26754048 455.34101851 109.88354492 454.43115234 C110.73601807 454.12443604 111.58849121 453.81771973 112.46679688 453.50170898 C113.82550903 453.02592407 113.82550903 453.02592407 115.21166992 452.54052734 C124.68398331 449.0730639 133.58760066 445.06870026 142.46166992 440.29052734 C143.13568848 439.93345703 143.80970703 439.57638672 144.50415039 439.20849609 C153.79885142 434.26529592 162.22352947 428.87635229 170.46166992 422.29052734 C171.35756836 421.58669922 172.2534668 420.88287109 173.17651367 420.15771484 C177.90172687 416.44571116 177.90172687 416.44571116 182.39135742 412.45849609 C182.97143555 411.90806641 183.55151367 411.35763672 184.14916992 410.79052734 C184.62741211 410.30583984 185.1056543 409.82115234 185.59838867 409.32177734 C188.71737853 407.59554396 190.94460563 407.87675507 194.46166992 408.29052734 C197.60984432 409.5994613 200.48023176 411.28670121 203.39916992 413.04052734 C204.92817449 413.93277089 206.45811652 414.82340998 207.98901367 415.71240234 C208.73103027 416.14488281 209.47304688 416.57736328 210.23754883 417.02294922 C216.37699755 420.81795782 216.37699755 420.81795782 223.21166992 422.29052734 C227.81948089 420.24261136 230.18819309 416.39022543 232.60620117 412.12646484 C233.19272461 411.10037109 233.77924805 410.07427734 234.38354492 409.01708984 C235.3194043 407.35806641 235.3194043 407.35806641 236.27416992 405.66552734 C236.9388526 404.49847204 237.60422992 403.33181212 238.27026367 402.16552734 C239.65267795 399.74354644 241.03209507 397.3198958 242.40942383 394.89501953 C245.56561112 389.34413068 248.76587592 383.81867252 251.96166992 378.29052734 C253.19626673 376.15133242 254.43064032 374.01200867 255.66479492 371.87255859 C256.28161133 370.80344238 256.89842773 369.73432617 257.53393555 368.6328125 C259.21709189 365.71457411 260.89963826 362.79598589 262.58178711 359.87716675 C263.9597393 357.48626137 265.33801165 355.09554063 266.71630859 352.70483398 C267.68707974 351.02068771 268.65738867 349.33627503 269.62768555 347.65185547 C270.21743164 346.62898438 270.80717773 345.60611328 271.41479492 344.55224609 C271.93203125 343.65465576 272.44926758 342.75706543 272.98217773 341.83227539 C273.99859198 340.08608913 275.04822301 338.3589481 276.12475586 336.64916992 C277.86578119 333.57757647 277.96956886 331.77326294 277.46166992 328.29052734 C274.76564965 324.3196965 272.01865317 322.14035974 267.85620117 319.81005859 C266.79079102 319.20355469 265.72538086 318.59705078 264.62768555 317.97216797 C263.52102539 317.35535156 262.41436523 316.73853516 261.27416992 316.10302734 C259.06971378 314.86421193 256.8677463 313.62095398 254.66870117 312.37255859 C253.69392822 311.82833252 252.71915527 311.28410645 251.71484375 310.72338867 C249.46166992 309.29052734 249.46166992 309.29052734 248.46166992 307.29052734 C248.19989562 301.96107111 248.88723105 297.11171578 249.89916992 291.91552734 C252.13201947 280.24915552 252.69723754 268.90348705 252.71166992 257.04052734 C252.71367401 256.24083527 252.7156781 255.44114319 252.71774292 254.61721802 C252.72509891 242.62529513 251.97270599 231.09562831 249.80786133 219.27929688 C249.31003931 216.41945334 248.991199 213.55399445 248.71166992 210.66552734 C248.5956543 209.47056641 248.5956543 209.47056641 248.47729492 208.25146484 C248.46166992 206.29052734 248.46166992 206.29052734 249.46166992 203.29052734 C251.82250977 201.63647461 251.82250977 201.63647461 254.92260742 199.85693359 C256.0337793 199.20789063 257.14495117 198.55884766 258.28979492 197.89013672 C259.47152286 197.21011968 260.65382098 196.53109259 261.83666992 195.85302734 C264.14201624 194.53046985 266.43984956 193.19716229 268.73510742 191.85693359 C269.76039551 191.26855713 270.78568359 190.68018066 271.84204102 190.07397461 C274.47616192 188.28066117 275.97265854 187.09634935 277.46166992 184.29052734 C278.09683329 179.41323253 276.90874296 176.60011627 274.45385742 172.42333984 C273.47920532 170.74280518 273.47920532 170.74280518 272.48486328 169.02832031 C271.76902387 167.82392221 271.05295354 166.61966132 270.33666992 165.41552734 C269.60183287 164.15857516 268.86820591 162.9009148 268.13574219 161.64257812 C266.64065396 159.07892153 265.13836682 156.51972007 263.62915039 153.96435547 C261.67667008 150.65845253 259.73991324 147.34365053 257.80932617 144.02490234 C255.54266319 140.12844209 253.2702023 136.23547745 250.99291992 132.34521484 C248.45637221 128.00525057 245.93758901 123.65532619 243.43041992 119.29833984 C243.092892 118.71196747 242.75536407 118.12559509 242.40760803 117.52145386 C240.77694082 114.68771499 239.14822925 111.85287427 237.52197266 109.01660156 C235.84594433 106.10151026 234.1566153 103.19464916 232.46166992 100.29052734 C231.99905762 99.48099609 231.53644531 98.67146484 231.05981445 97.83740234 C230.63684082 97.12068359 230.21386719 96.40396484 229.77807617 95.66552734 C229.42302002 95.05451172 229.06796387 94.44349609 228.70214844 93.81396484 C227.07980216 91.82155375 225.91402097 91.08945419 223.46166992 90.29052734 C218.96650955 90.58560704 215.87980653 91.92441121 212.05541992 94.23193359 C211.06413086 94.81523438 210.0728418 95.39853516 209.05151367 95.99951172 C206.98989266 97.23622369 204.92999573 98.47581423 202.87182617 99.71826172 C201.88053711 100.30027344 200.88924805 100.88228516 199.86791992 101.48193359 C198.97395508 102.02019775 198.07999023 102.55846191 197.15893555 103.11303711 C194.02826953 104.47972811 191.84475603 104.59000977 188.46166992 104.29052734 C186.39916992 103.14599609 186.39916992 103.14599609 184.46166992 101.47802734 C183.68823242 100.83736328 182.91479492 100.19669922 182.11791992 99.53662109 C181.24135742 98.79541016 180.36479492 98.05419922 179.46166992 97.29052734 C157.24378529 79.14031098 132.98129195 65.95997233 105.93823242 56.43115234 C103.46166992 55.29052734 103.46166992 55.29052734 101.46166992 52.29052734 C101.22216797 49.18359375 101.22216797 49.18359375 101.22338867 45.39208984 C101.20796788 44.01187169 101.19166416 42.63166317 101.17456055 41.25146484 C101.15812003 39.08327938 101.14916903 36.91580117 101.15625 34.74755859 C101.15887786 32.64909587 101.13070088 30.55276676 101.09838867 28.45458984 C101.09391724 26.57441162 101.09391724 26.57441162 101.08935547 24.65625 C100.2624538 20.2223074 99.0502915 19.00848266 95.46166992 16.29052734 C92.17785865 15.55850979 88.96367967 15.60697701 85.61010742 15.64355469 C84.62254456 15.63479309 83.63498169 15.62603149 82.61749268 15.61700439 C79.35677 15.59501823 76.09740611 15.60956115 72.83666992 15.62646484 C70.56892639 15.62309651 68.30118462 15.61824374 66.03344727 15.61196899 C61.28213299 15.60459869 56.5312889 15.61530884 51.7800293 15.63867188 C45.68987605 15.66715906 39.60082449 15.65075603 33.51071167 15.62080956 C28.82836609 15.60274127 24.14628167 15.60849261 19.46392822 15.62144852 C17.2184435 15.62478379 14.97293506 15.62069123 12.72747803 15.60905075 C9.58875734 15.59635041 6.45182025 15.61570933 3.31323242 15.64355469 C2.3852887 15.63343353 1.45734497 15.62331238 0.50128174 15.61288452 C-5.19257671 15.70646095 -8.01566489 16.39766795 -11.53833008 21.29052734 Z " fill="#000000" transform="translate(211.538330078125,-0.29052734375)"/>
<path d="M0 0 C0.85529297 0.2254248 1.71058594 0.45084961 2.59179688 0.68310547 C23.70835848 6.49924145 43.29236239 16.85921691 60 31 C60.57927246 31.48968262 61.15854492 31.97936523 61.75537109 32.48388672 C86.55757963 53.77601762 103.3674711 82.23818001 111 114 C111.17499023 114.69206543 111.34998047 115.38413086 111.53027344 116.09716797 C116.90236796 138.14403114 115.77091814 164.19222497 110 186 C109.7745752 186.85529297 109.54915039 187.71058594 109.31689453 188.59179688 C103.50075855 209.70835848 93.14078309 229.29236239 79 246 C78.51031738 246.57927246 78.02063477 247.15854492 77.51611328 247.75537109 C56.22398238 272.55757963 27.76181999 289.3674711 -4 297 C-4.69206543 297.17499023 -5.38413086 297.34998047 -6.09716797 297.53027344 C-28.14403114 302.90236796 -54.19222497 301.77091814 -76 296 C-76.85529297 295.7745752 -77.71058594 295.54915039 -78.59179688 295.31689453 C-99.70835848 289.50075855 -119.29236239 279.14078309 -136 265 C-136.57927246 264.51031738 -137.15854492 264.02063477 -137.75537109 263.51611328 C-162.55757963 242.22398238 -179.3674711 213.76181999 -187 182 C-187.17499023 181.30793457 -187.34998047 180.61586914 -187.53027344 179.90283203 C-192.90236796 157.85596886 -191.77091814 131.80777503 -186 110 C-185.7745752 109.14470703 -185.54915039 108.28941406 -185.31689453 107.40820312 C-179.50075855 86.29164152 -169.14078309 66.70763761 -155 50 C-154.51031738 49.42072754 -154.02063477 48.84145508 -153.51611328 48.24462891 C-132.22398238 23.44242037 -103.76181999 6.6325289 -72 -1 C-70.96190186 -1.26248535 -70.96190186 -1.26248535 -69.90283203 -1.53027344 C-47.85596886 -6.90236796 -21.80777503 -5.77091814 0 0 Z M-126 44 C-126.99515625 44.86496094 -127.9903125 45.72992188 -129.015625 46.62109375 C-135.75113138 52.53886078 -141.57456451 58.83293639 -147 66 C-147.87011719 67.11181641 -147.87011719 67.11181641 -148.7578125 68.24609375 C-161.64242553 85.53544658 -169.31766238 105.88616485 -173 127 C-173.27650391 128.51400391 -173.27650391 128.51400391 -173.55859375 130.05859375 C-177.44097831 164.7251957 -169.06230832 199.63789867 -148.73828125 228.17578125 C-146.56975296 230.86600216 -144.32207095 233.44145772 -142 236 C-141.13503906 236.99515625 -140.27007812 237.9903125 -139.37890625 239.015625 C-133.46113922 245.75113138 -127.16706361 251.57456451 -120 257 C-119.25878906 257.58007812 -118.51757812 258.16015625 -117.75390625 258.7578125 C-100.46455342 271.64242553 -80.11383515 279.31766238 -59 283 C-57.48599609 283.27650391 -57.48599609 283.27650391 -55.94140625 283.55859375 C-21.2748043 287.44097831 13.63789867 279.06230832 42.17578125 258.73828125 C44.86600216 256.56975296 47.44145772 254.32207095 50 252 C50.99515625 251.13503906 51.9903125 250.27007812 53.015625 249.37890625 C59.75113138 243.46113922 65.57456451 237.16706361 71 230 C71.58007812 229.25878906 72.16015625 228.51757812 72.7578125 227.75390625 C85.64242553 210.46455342 93.31766238 190.11383515 97 169 C97.27650391 167.48599609 97.27650391 167.48599609 97.55859375 165.94140625 C101.44097831 131.2748043 93.06230832 96.36210133 72.73828125 67.82421875 C70.56975296 65.13399784 68.32207095 62.55854228 66 60 C65.13503906 59.00484375 64.27007812 58.0096875 63.37890625 56.984375 C57.46113922 50.24886862 51.16706361 44.42543549 44 39 C43.25878906 38.41992188 42.51757812 37.83984375 41.75390625 37.2421875 C24.46455342 24.35757447 4.11383515 16.68233762 -17 13 C-18.00933594 12.81566406 -19.01867187 12.63132812 -20.05859375 12.44140625 C-57.51527911 8.24655447 -97.69088722 18.30733553 -126 44 Z " fill="#000000" transform="translate(294,108)"/>
<path d="M0 0 C1.19625 -0.01289063 2.3925 -0.02578125 3.625 -0.0390625 C7.94422746 0.8107855 9.1498073 2.31991397 12 5.625 C13.5124054 8.61558533 13.5124054 8.61558533 14.77075195 11.97241211 C15.00556778 12.587733 15.24038361 13.20305389 15.48231506 13.83702087 C16.24789538 15.8539689 16.99351994 17.87762543 17.73828125 19.90234375 C18.26830846 21.31606206 18.79926337 22.72943288 19.33110046 24.14247131 C20.43980764 27.0972723 21.53896225 30.05539465 22.63110352 33.01635742 C24.02836381 36.80295827 25.44644329 40.58133876 26.87142658 44.35758114 C27.96926937 47.27252166 29.05731212 50.19104287 30.14232445 53.11078072 C30.66153264 54.50517383 31.18343522 55.89856685 31.70812416 57.29090691 C32.44059106 59.23987969 33.16003784 61.19318788 33.8762207 63.14819336 C34.2874971 64.25674179 34.6987735 65.36529022 35.12251282 66.50743103 C36.03700761 69.75648202 36.32111361 72.2694799 36 75.625 C33.54405875 78.94774404 32.0743356 80.40118008 28 81.25 C23.81542397 80.37821333 22.58942811 79.03214225 20 75.625 C18.68 72.325 17.36 69.025 16 65.625 C5.11 65.295 -5.78 64.965 -17 64.625 C-17.33 66.275 -17.66 67.925 -18 69.625 C-18.57469138 71.20669563 -19.19979003 72.77103228 -19.875 74.3125 C-20.20242187 75.07949219 -20.52984375 75.84648437 -20.8671875 76.63671875 C-22 78.625 -22 78.625 -25 80.625 C-28.72476949 81.1108395 -30.55411242 80.86733021 -33.875 79.0625 C-36 76.625 -36 76.625 -36.26554871 73.384552 C-35.99297963 69.52560795 -35.2206577 66.65118488 -33.8762207 63.03466797 C-33.65016647 62.41744873 -33.42411224 61.80022949 -33.19120789 61.16430664 C-32.44762464 59.14409688 -31.68748744 57.13062723 -30.92578125 55.1171875 C-30.39906573 53.70450094 -29.87296795 52.29158391 -29.34745789 50.87844849 C-28.24614784 47.92533133 -27.13640309 44.97555985 -26.02075195 42.02783203 C-24.59582601 38.26045198 -23.19384809 34.48500491 -21.79829121 30.70666313 C-20.71763868 27.78952931 -19.62409896 24.87735594 -18.52675438 21.966465 C-18.00474214 20.57662874 -17.48687759 19.18522695 -16.97335243 17.79223251 C-16.25228255 15.84175233 -15.51385512 13.89871727 -14.77075195 11.95654297 C-14.35549759 10.85180634 -13.94024323 9.7470697 -13.5124054 8.6088562 C-10.29825267 2.26758715 -7.0809878 -0.07630375 0 0 Z M-1 21.625 C-2.50801568 25.55947709 -4.00502914 29.49804977 -5.5 33.4375 C-6.14388672 35.11682617 -6.14388672 35.11682617 -6.80078125 36.83007812 C-7.20683594 37.90322266 -7.61289063 38.97636719 -8.03125 40.08203125 C-8.40830078 41.07178955 -8.78535156 42.06154785 -9.17382812 43.08129883 C-10.15445325 45.65479542 -10.15445325 45.65479542 -10 48.625 C-3.4 48.625 3.2 48.625 10 48.625 C8.23149641 42.33698723 6.18978777 36.1909134 3.9375 30.0625 C3.6801709 29.34771484 3.4228418 28.63292969 3.15771484 27.89648438 C1.95773691 24.05058037 1.95773691 24.05058037 -1 21.625 Z " fill="#000000" transform="translate(204,215.375)"/>
<path d="M0 0 C0.79046219 -0.00241196 1.58092438 -0.00482391 2.39533997 -0.00730896 C4.06545024 -0.00633186 5.73559344 0.00702935 7.40551758 0.03198242 C9.93230426 0.06607265 12.45554505 0.05269188 14.98242188 0.03320312 C24.87881961 0.04103895 32.98137509 0.62441151 41.35546875 6.41796875 C47.75908118 12.98936142 50.89037514 19.38697617 51.26953125 28.62890625 C50.96106002 36.38048973 48.84018495 42.76928865 43.51953125 48.50390625 C37.55096465 53.95794125 30.84481971 56.76585888 22.7890625 56.7265625 C21.62568359 56.72333984 20.46230469 56.72011719 19.26367188 56.71679688 C18.04873047 56.70841797 16.83378906 56.70003906 15.58203125 56.69140625 C14.35548828 56.68689453 13.12894531 56.68238281 11.86523438 56.67773438 C8.83328457 56.6659369 5.80143219 56.64947546 2.76953125 56.62890625 C2.82753906 57.94246094 2.88554687 59.25601563 2.9453125 60.609375 C2.99222173 62.34501648 3.03772064 64.08069648 3.08203125 65.81640625 C3.12392578 66.68072266 3.16582031 67.54503906 3.20898438 68.43554688 C3.29611213 72.98361548 3.26772466 74.97215883 0.4375 78.703125 C-2.23046875 80.62890625 -2.23046875 80.62890625 -5.23046875 81.25390625 C-9.29149977 80.40785812 -10.63202578 78.82383749 -13.23046875 75.62890625 C-13.86538696 72.40380859 -13.86538696 72.40380859 -13.87744141 68.71484375 C-13.8905838 67.70167084 -13.8905838 67.70167084 -13.9039917 66.66802979 C-13.92591244 64.44599243 -13.91146222 62.22596209 -13.89453125 60.00390625 C-13.89790157 58.45360941 -13.90275599 56.90331516 -13.9090271 55.35302734 C-13.91638838 52.10814185 -13.90571801 48.8639458 -13.88232422 45.61914062 C-13.85383557 41.46590295 -13.87024373 37.31428074 -13.90018654 33.16110229 C-13.91828043 29.96105848 -13.9124922 26.76139582 -13.89954758 23.56134033 C-13.89621928 22.0303732 -13.90028044 20.49937113 -13.91194534 18.96844482 C-13.92469022 16.82569135 -13.90523368 14.68552976 -13.87744141 12.54296875 C-13.87346344 11.32561035 -13.86948547 10.10825195 -13.86538696 8.85400391 C-12.35242033 1.16881698 -6.97448406 -0.12293933 0 0 Z M2.76953125 16.62890625 C2.76953125 24.54890625 2.76953125 32.46890625 2.76953125 40.62890625 C6.44078125 40.71140625 10.11203125 40.79390625 13.89453125 40.87890625 C15.04066895 40.91532227 16.18680664 40.95173828 17.36767578 40.98925781 C23.50682874 41.05599944 27.13538785 40.79048897 31.76953125 36.62890625 C33.93283185 33.88872549 34.69305573 32.14238474 35.20703125 28.69140625 C34.64232419 24.7384568 33.29520954 22.70067714 30.76953125 19.62890625 C27.14406394 17.01575224 24.69684291 16.26140941 20.25 16.3359375 C18.86784302 16.34717651 18.86784302 16.34717651 17.45776367 16.35864258 C16.30252197 16.38595459 15.14728027 16.4132666 13.95703125 16.44140625 C10.26515625 16.50328125 6.57328125 16.56515625 2.76953125 16.62890625 Z " fill="#000000" transform="translate(261.23046875,215.37109375)"/>
<path d="M0 0 C5.30830217 0.95723482 8.58628887 3.4413806 12.8125 6.6875 C13.59625 7.27917969 14.38 7.87085937 15.1875 8.48046875 C24.87460698 16.00971056 33.98120588 24.23051313 41.8125 33.6875 C42.534375 34.49832031 43.25625 35.30914062 44 36.14453125 C61.51616757 56.21513992 80.66272765 85.93115486 83.12109375 113.09765625 C82.8125 115.6875 82.8125 115.6875 80.6875 118.5625 C77.8125 120.6875 77.8125 120.6875 74.8125 121.3125 C70.68443732 120.45248694 69.48889141 118.94571563 66.8125 115.6875 C65.4376339 112.56313886 64.51397012 109.33680795 63.5625 106.0625 C55.71890765 81.02961949 42.19260599 56.67964084 22.8125 38.6875 C17.8125 33.6875 17.8125 33.6875 16.2890625 32.0234375 C11.10864486 26.52631311 5.28047851 22.14378694 -0.81567383 17.72436523 C-1.83310669 16.98295288 -1.83310669 16.98295288 -2.87109375 16.2265625 C-3.48525146 15.78521973 -4.09940918 15.34387695 -4.73217773 14.88916016 C-6.97961514 13.03345022 -7.17777612 11.77501491 -7.5 8.875 C-6.98997454 3.67274029 -5.17901181 1.11704176 0 0 Z " fill="#000000" transform="translate(359.1875,95.3125)"/>
<path d="M0 0 C2.140625 1.70703125 2.140625 1.70703125 4.25 3.8125 C31.15290015 28.89763663 66.25788064 43.82556128 102.5234375 48.44921875 C110.33076442 49.47948344 110.33076442 49.47948344 113.8125 52.1875 C115.39223942 55.9289881 115.07845965 58.11754525 114 62 C112.43881299 64.46503212 111.4019285 64.88889781 108.59765625 65.6640625 C71.86064555 69.09444569 28.77789169 45.77342019 1.125 23.3125 C-0.58751658 21.87998613 -2.29623 20.44290569 -4 19 C-4.71542969 18.40832031 -5.43085937 17.81664062 -6.16796875 17.20703125 C-12.81973087 11.652467 -12.81973087 11.652467 -13.375 6.5625 C-13 3 -13 3 -11.1875 0.625 C-6.94295303 -2.52809203 -4.69032004 -1.98207687 0 0 Z " fill="#000000" transform="translate(133,382)"/>
<path d="M0 0 C3.27788021 2.57826951 4.81968247 4.08406842 5.63491821 8.22509766 C5.64088516 10.05113525 5.64088516 10.05113525 5.64697266 11.9140625 C5.66011505 12.92723541 5.66011505 12.92723541 5.67352295 13.96087646 C5.69544369 16.18291382 5.68099347 18.40294416 5.6640625 20.625 C5.66743282 22.17529684 5.67228724 23.72559109 5.67855835 25.27587891 C5.68591963 28.5207644 5.67524926 31.76496045 5.65185547 35.00976562 C5.62336682 39.1630033 5.63977498 43.31462551 5.66971779 47.46780396 C5.68781168 50.66784777 5.68202345 53.86751043 5.66907883 57.06756592 C5.66575053 58.59853305 5.66981169 60.12953512 5.68147659 61.66046143 C5.69422147 63.8032149 5.67476493 65.94337649 5.64697266 68.0859375 C5.64299469 69.3032959 5.63901672 70.5206543 5.63491821 71.77490234 C4.82019203 75.91334323 3.26637769 77.41358026 0 80 C-3.50412619 80.57210224 -5.22404484 80.44040698 -8.3125 78.6875 C-11.56185174 75.43814826 -11.13609757 71.8461043 -11.16113281 67.49658203 C-11.16609772 66.84093262 -11.17106262 66.1852832 -11.17617798 65.50976562 C-11.19077353 63.34243721 -11.19759706 61.17518197 -11.203125 59.0078125 C-11.20887842 57.49950153 -11.21463613 55.99119058 -11.22039795 54.48287964 C-11.23090039 51.32045145 -11.23674806 48.15804864 -11.24023438 44.99560547 C-11.24571881 40.94809551 -11.26974863 36.90092199 -11.29820633 32.85351753 C-11.31685148 29.73765083 -11.32203929 26.62186489 -11.32357025 23.50594711 C-11.32659288 22.01403844 -11.33460828 20.52213106 -11.34775543 19.03027725 C-11.36485658 16.94066171 -11.36292641 14.85186462 -11.35644531 12.76220703 C-11.36009094 11.57434601 -11.36373657 10.38648499 -11.36749268 9.16262817 C-10.96204373 5.67334973 -10.09266665 3.79400763 -8 1 C-5.11138291 -0.44430855 -3.20352299 -0.37688506 0 0 Z " fill="#000000" transform="translate(331,216)"/>
<path d="M0 0 C2.85272774 3.0194456 4.88913667 6.43701657 7 10 C7.59683594 10.94488281 8.19367188 11.88976562 8.80859375 12.86328125 C13.50479154 20.70473853 13.50479154 20.70473853 13.125 25 C11.86437454 28.36166791 11.25177073 29.50594318 8 31 C4.44618057 31.52929226 2.68957241 31.43954533 -0.359375 29.49609375 C-3.7941939 26.24927529 -5.95410905 22.69191417 -8.3125 18.625 C-8.76689453 17.8825 -9.22128906 17.14 -9.68945312 16.375 C-12.17050649 12.15161291 -13.79415047 9.04474635 -13 4 C-9.02772261 -0.89914211 -6.11305239 -1.9040655 0 0 Z " fill="#000000" transform="translate(99,337)"/>
<path d="M0 0 C13.26492537 4.89738806 13.26492537 4.89738806 16 9 C16.41857482 12.83693587 16.54644269 15.11203064 14.5 18.4375 C11.04235853 20.59852592 7.93448122 20.44851889 4 20 C0.94360921 19.16776728 -1.90815499 18.00607154 -4.8125 16.75 C-5.56208984 16.44964844 -6.31167969 16.14929688 -7.08398438 15.83984375 C-11.00493878 14.19297282 -13.95229553 12.9378932 -16 9 C-16.4375 6 -16.4375 6 -16 3 C-10.99062161 -3.17823335 -7.09074318 -1.99764592 0 0 Z " fill="#000000" transform="translate(320,74)"/>
</svg>
