<?xml version="1.0" encoding="UTF-8"?>
<svg version="1.1" xmlns="http://www.w3.org/2000/svg" width="512" height="512">
<path d="M0 0 C2.07065193 -0.00570839 4.14130072 -0.01267446 6.21194458 -0.02079773 C11.81533086 -0.03869287 17.41856022 -0.03756751 23.02196646 -0.03185534 C27.70867759 -0.02875805 32.39535883 -0.034862 37.0820657 -0.04089409 C48.14327759 -0.05492592 59.20441223 -0.05338934 70.265625 -0.04199219 C81.65710238 -0.03051373 93.04834425 -0.04458526 104.43979061 -0.07138866 C114.23884161 -0.09357757 124.03781887 -0.1001758 133.8368932 -0.09431225 C139.68118438 -0.09094896 145.52532464 -0.09331605 151.36959457 -0.11056328 C156.86744139 -0.12608101 162.36494057 -0.12202321 167.8627739 -0.10325813 C169.87343786 -0.09958555 171.88412787 -0.10264163 173.89476776 -0.11314392 C191.40919203 -0.19760071 204.10358308 2.43200611 217.34423828 14.71655273 C227.63629065 25.5911741 230.0979649 37.48262824 229.78173828 52.02905273 C229.76820313 53.22401367 229.75466797 54.41897461 229.74072266 55.65014648 C229.70570121 58.56860074 229.65658821 61.48607621 229.59423828 64.40405273 C230.73900635 64.37786865 231.88377441 64.35168457 233.06323242 64.32470703 C237.33272563 64.23383176 241.60213429 64.17666869 245.87231445 64.12939453 C247.71621096 64.104335 249.56000897 64.07027758 251.40356445 64.02685547 C254.06242234 63.96582308 256.71996109 63.93775803 259.37939453 63.91577148 C260.19634293 63.88996506 261.01329132 63.86415863 261.85499573 63.83757019 C266.93479769 63.83511157 270.19425103 64.68145437 274.16152954 67.93742371 C277.39423057 71.24666099 278.4842015 74.29421941 278.93481445 78.83911133 C278.919104 80.06452637 278.90339355 81.28994141 278.88720703 82.55249023 C278.88296219 83.2098819 278.87871735 83.86727356 278.87434387 84.54458618 C278.85768805 86.62317664 278.82006448 88.70076047 278.78173828 90.77905273 C278.76667434 92.19700738 278.75298893 93.61497738 278.74072266 95.03295898 C278.70782866 98.49031164 278.65613993 101.94708377 278.59423828 105.40405273 C279.44695312 105.66255005 279.44695312 105.66255005 280.31689453 105.92626953 C285.47897069 107.55773121 289.92628689 109.47737293 294.59423828 112.21655273 C295.70798828 112.86237305 296.82173828 113.50819336 297.96923828 114.17358398 C302.27432696 116.76865025 306.43156691 119.58823209 310.59423828 122.40405273 C311.20944336 122.05101074 311.82464844 121.69796875 312.45849609 121.33422852 C315.25309363 119.73136712 318.04865441 118.13019317 320.84423828 116.52905273 C322.29636719 115.69567383 322.29636719 115.69567383 323.77783203 114.84545898 C324.71240234 114.31049805 325.64697266 113.77553711 326.60986328 113.22436523 C327.89812012 112.48597412 327.89812012 112.48597412 329.21240234 111.73266602 C334.99248509 108.50847472 338.94530807 107.76026743 345.59423828 108.40405273 C355.77141295 111.53549109 360.67817449 124.3984315 365.65673828 133.02905273 C366.40302085 134.31444337 367.14985353 135.59951476 367.8972168 136.88427734 C369.0308537 138.8331838 370.1641542 140.78227541 371.295578 142.73246765 C375.36839996 149.75071503 379.50988308 156.72801981 383.65893555 163.70141602 C384.15192139 164.5327002 384.64490723 165.36398438 385.15283203 166.22045898 C385.79176392 167.29469116 385.79176392 167.29469116 386.44360352 168.390625 C388.8146932 172.53965463 389.92580737 175.36242461 390.03173828 180.21655273 C390.07169922 181.21299805 390.11166016 182.20944336 390.15283203 183.23608398 C389.38665438 187.58132928 387.70654418 190.37978004 384.59423828 193.40405273 C380.85444208 196.0186324 376.92429226 198.18549019 372.90673828 200.34155273 C371.8490625 200.93000977 370.79138672 201.5184668 369.70166016 202.12475586 C361.92337954 206.40405273 361.92337954 206.40405273 359.59423828 206.40405273 C359.75666016 207.14655273 359.91908203 207.88905273 360.08642578 208.65405273 C360.7983364 213.91123886 360.73843633 219.10539226 360.71923828 224.40405273 C360.72310547 225.47139648 360.72697266 226.53874023 360.73095703 227.63842773 C360.72470464 232.66535009 360.67413035 237.46740327 359.59423828 242.40405273 C360.38701172 242.62706055 361.17978516 242.85006836 361.99658203 243.07983398 C366.67246152 244.80092318 370.83863385 247.1235874 375.15673828 249.59155273 C375.99398438 250.04852539 376.83123047 250.50549805 377.69384766 250.97631836 C383.89914082 254.51869078 388.21301771 258.00341976 390.43408203 265.07983398 C390.79399081 274.79737102 386.15922766 281.72596866 381.2421875 289.72143555 C379.44947896 292.63969947 377.69368067 295.57823951 375.94189453 298.52124023 C373.38532108 302.81127766 370.81095132 307.08982209 368.22314453 311.36108398 C365.97452718 315.08295363 363.76667182 318.82080983 361.62158203 322.60327148 C361.17814453 323.38049561 360.73470703 324.15771973 360.27783203 324.95849609 C359.48018959 326.36390333 358.69153049 327.774471 357.91455078 329.19140625 C354.92419503 334.43744171 351.50933883 338.43235255 345.59423828 340.40405273 C336.6744513 341.82797858 330.67033375 338.35210125 323.15673828 333.90405273 C321.03597947 332.68019552 318.91240973 331.46119228 316.78564453 330.24780273 C315.85953369 329.70317383 314.93342285 329.15854492 313.97924805 328.59741211 C311.59157282 327.18031778 311.59157282 327.18031778 308.59423828 327.40405273 C306.43107162 328.70549407 304.3627392 330.04449739 302.28173828 331.46655273 C284.30537953 343.40405273 284.30537953 343.40405273 278.59423828 343.40405273 C278.61518555 344.27618408 278.63613281 345.14831543 278.65771484 346.046875 C278.72625023 349.31033072 278.77621005 352.57301198 278.81396484 355.83691406 C278.83397074 357.24426407 278.86118491 358.65153211 278.89599609 360.05859375 C279.25383318 374.90357067 279.25383318 374.90357067 274.59423828 380.40405273 C269.5126844 384.64188963 265.7966115 384.95337703 259.47705078 384.79467773 C258.61989471 384.78901794 257.76273865 384.78335815 256.87960815 384.77752686 C254.15890148 384.75524912 251.4395426 384.70507047 248.71923828 384.65405273 C246.86769489 384.63397654 245.01613072 384.61572773 243.16455078 384.59936523 C238.64059898 384.55541275 234.11764664 384.48644633 229.59423828 384.40405273 C229.61518555 385.12882812 229.63613281 385.85360352 229.65771484 386.6003418 C229.74194524 389.95143201 229.79323332 393.30229844 229.84423828 396.65405273 C229.87775391 397.79358398 229.91126953 398.93311523 229.94580078 400.10717773 C230.11179397 414.71457814 225.13066141 425.53858607 215.28173828 436.15405273 C202.30765931 448.43309176 188.04638221 448.85006672 171.18847656 448.80810547 C169.11782463 448.81381386 167.04717585 448.82077993 164.97653198 448.8289032 C159.3731457 448.84679834 153.76991634 448.84567298 148.16651011 448.83996081 C143.47979897 448.83686352 138.79311773 448.84296747 134.10641086 448.84899956 C123.04519897 448.86303139 111.98406433 448.86149481 100.92285156 448.85009766 C89.53137418 448.8386192 78.14013231 448.85269073 66.74868596 448.87949413 C56.94963495 448.90168304 47.1506577 448.90828126 37.35158336 448.90241772 C31.50729218 448.89905442 25.66315192 448.90142151 19.81888199 448.91866875 C14.32103517 448.93418648 8.82353599 448.93012868 3.32570267 448.9113636 C1.3150387 448.90769102 -0.6956513 448.9107471 -2.7062912 448.92124939 C-20.22071547 449.00570618 -32.91510651 446.37609936 -46.15576172 434.09155273 C-56.91299321 422.72542135 -58.86073021 410.28177136 -58.79344177 395.15969849 C-58.79762008 393.62519056 -58.80310031 392.09068572 -58.80976158 390.55618656 C-58.82416982 386.3604998 -58.819986 382.16501025 -58.81259477 377.96931291 C-58.80785392 373.43613754 -58.82038106 368.90300428 -58.83061218 364.36984253 C-58.84778762 355.4971052 -58.84864279 346.62443873 -58.84339928 337.75168909 C-58.83935396 330.5380641 -58.84080543 323.32446002 -58.84614754 316.11083603 C-58.84689596 315.08322122 -58.84764438 314.05560641 -58.84841548 312.99685176 C-58.849947 310.90909187 -58.85148535 308.82133199 -58.85303045 306.73357211 C-58.86675098 287.16527694 -58.86132097 267.59702177 -58.84984524 248.02872752 C-58.83991361 230.13808502 -58.85285313 212.24754596 -58.87677943 194.35691942 C-58.90117899 175.9734924 -58.91077617 157.59011353 -58.9041267 139.20667064 C-58.90063636 128.89109786 -58.90285438 118.57560461 -58.92037773 108.2600441 C-58.93511041 99.47857499 -58.9357212 90.69724143 -58.91830682 81.91577496 C-58.90980321 77.43829478 -58.90763162 72.96105663 -58.92295837 68.48358917 C-58.93683454 64.37896406 -58.93200499 60.27478765 -58.91271914 56.17018829 C-58.90896777 54.69114615 -58.91185608 53.2120678 -58.92233079 51.73305799 C-59.02686902 35.83260664 -54.93011746 24.33434301 -44.09326172 12.65405273 C-31.11918275 0.37501371 -16.85790565 -0.04196125 0 0 Z M-22.34326172 38.15405273 C-27.23550882 45.86304817 -26.69257916 53.67942996 -26.66645813 62.54855347 C-26.66948048 64.00011235 -26.67337038 65.45166963 -26.6780507 66.90322411 C-26.68832869 70.88341466 -26.68614938 74.86351511 -26.6818701 78.84371305 C-26.67940252 83.13965402 -26.68841745 87.43557332 -26.69590759 91.73150635 C-26.70865574 100.14442544 -26.71044814 108.55731262 -26.70810733 116.97023974 C-26.70632413 123.80876782 -26.70807385 130.64728622 -26.71233177 137.48581314 C-26.71292696 138.45919336 -26.71352215 139.43257358 -26.71413537 140.43545017 C-26.71534713 142.41289186 -26.71656126 144.39033354 -26.71777775 146.36777522 C-26.72865375 164.91159214 -26.72649052 183.45539088 -26.72039291 201.99920882 C-26.71522377 218.96087206 -26.726479 235.92247787 -26.74549112 252.88412975 C-26.76486656 270.30354141 -26.77312604 287.7229259 -26.76936787 305.14234841 C-26.76745537 314.9207429 -26.76994817 324.69908851 -26.78408241 334.47747421 C-26.79599342 342.80197518 -26.79740424 351.12639718 -26.78529225 359.45089923 C-26.77940158 363.69707291 -26.7783093 367.94310213 -26.79029465 372.1892662 C-26.80114661 376.07913936 -26.79805835 379.96874731 -26.78403296 383.85860802 C-26.78138414 385.26299095 -26.78375844 386.66739461 -26.79176883 388.07175718 C-27.05991313 400.21290824 -27.05991313 400.21290824 -22.13085634 410.98037708 C-16.52321633 416.15494892 -9.62446415 416.70298116 -2.33547974 416.66474915 C-1.5518068 416.66857469 -0.76813387 416.67240024 0.03928673 416.67634171 C2.64995846 416.6866124 5.26040781 416.68269091 7.87109375 416.67871094 C9.74912722 416.68306071 11.62715892 416.68824474 13.50518799 416.69419861 C18.59614455 416.7075716 23.68702679 416.70816914 28.77799749 416.70563531 C33.03238843 416.7045644 37.2867644 416.70945205 41.54115212 416.71424073 C51.58050606 416.72533013 61.61982259 416.72577656 71.65917969 416.71972656 C82.00599791 416.71368702 92.35268014 416.72599864 102.69947517 416.74729663 C111.59226117 416.76492664 120.48500395 416.77091176 129.37780678 416.76765889 C134.68491129 416.76584806 139.99191878 416.76846224 145.29900742 416.78237343 C150.29115842 416.79496981 155.28309782 416.79299048 160.27524567 416.77996254 C162.10333707 416.77760113 163.93144345 416.7803158 165.75951767 416.78858566 C179.72274861 417.41564132 179.72274861 417.41564132 192.15440178 412.1291399 C198.89530723 404.90982704 197.88197946 395.44232186 197.85493469 386.259552 C197.85795704 384.80799312 197.86184695 383.35643584 197.86652726 381.90488136 C197.87680526 377.92469081 197.87462595 373.94459036 197.87034667 369.96439242 C197.86787908 365.66845145 197.87689401 361.37253215 197.88438416 357.07659912 C197.8971323 348.66368003 197.8989247 340.25079285 197.89658389 331.83786573 C197.89480069 324.99933764 197.89655042 318.16081925 197.90080833 311.32229233 C197.90170112 309.862222 197.90170112 309.862222 197.90261194 308.37265529 C197.90382369 306.39521361 197.90503783 304.41777193 197.90625431 302.44033025 C197.91713031 283.89651333 197.91496708 265.35271459 197.90886947 246.80889665 C197.90370033 229.84723341 197.91495556 212.8856276 197.93396769 195.92397572 C197.95334312 178.50456406 197.9616026 161.08517957 197.95784444 143.66575706 C197.95593193 133.88736257 197.95842473 124.10901696 197.97255898 114.33063126 C197.98446998 106.00613029 197.98588081 97.68170829 197.97376881 89.35720624 C197.96787815 85.11103256 197.96678586 80.86500334 197.97877121 76.61883926 C197.98962317 72.72896611 197.98653492 68.83935816 197.97250953 64.94949745 C197.9698607 63.54511452 197.972235 62.14071086 197.98024539 60.73634829 C198.24838969 48.59519723 198.24838969 48.59519723 193.3193329 37.82772839 C188.1029457 33.0141936 181.76644958 32.14990536 174.92456055 32.17700195 C173.64376114 32.17715302 172.36296173 32.17730408 171.04335022 32.17745972 C169.66578003 32.18766984 168.28821148 32.19810178 166.91064453 32.20874023 C165.48575541 32.21247553 164.06086369 32.21532006 162.63597107 32.21731567 C158.90577973 32.22491152 155.17574688 32.24452465 151.44561768 32.26672363 C147.63124739 32.28726983 143.81685121 32.29633606 140.00244141 32.30639648 C132.53296852 32.32777485 125.0636257 32.36186118 117.59423828 32.40405273 C117.41030518 33.51901123 117.41030518 33.51901123 117.22265625 34.65649414 C116.96959717 36.12868408 116.96959717 36.12868408 116.71142578 37.63061523 C116.54755371 38.6007959 116.38368164 39.57097656 116.21484375 40.57055664 C114.5290237 48.26749902 110.32091255 54.77410797 103.71923828 59.09155273 C95.51924665 64.18749895 86.90835804 64.15549068 77.59423828 63.40405273 C74.21876069 62.53189721 71.53181394 61.25904357 68.59423828 59.40405273 C67.96130859 59.04182617 67.32837891 58.67959961 66.67626953 58.30639648 C60.16028633 54.20785695 56.44262965 47.79761822 54.59423828 40.40405273 C54.21379796 37.74224285 53.91162194 35.07445316 53.59423828 32.40405273 C45.40514386 32.33427325 37.21617549 32.28110062 29.02685642 32.24861622 C25.22344457 32.23301844 21.42023743 32.21188925 17.61694336 32.17773438 C13.94053599 32.14492889 10.26432445 32.12715554 6.58778191 32.11942101 C5.19127257 32.11391523 3.79477289 32.10316459 2.39834785 32.08686256 C-11.10658738 31.66307143 -11.10658738 31.66307143 -22.34326172 38.15405273 Z M229.59423828 96.40405273 C229.59423828 117.52405273 229.59423828 138.64405273 229.59423828 160.40405273 C234.87423828 161.06405273 240.15423828 161.72405273 245.59423828 162.40405273 C249.54255287 163.59279261 252.90625578 164.7139606 256.59423828 166.40405273 C257.49529297 166.81397461 258.39634766 167.22389648 259.32470703 167.64624023 C274.82483575 175.38537361 284.62836686 188.38334183 290.59423828 204.40405273 C294.89353214 218.31264549 294.69601218 236.09602954 288.59423828 249.40405273 C288.10826172 250.48557617 287.62228516 251.56709961 287.12158203 252.68139648 C279.08098194 268.97169028 266.3794882 279.01563672 249.59423828 285.40405273 C243.00720032 287.44715095 236.51107832 287.77524909 229.59423828 288.40405273 C229.59423828 309.52405273 229.59423828 330.64405273 229.59423828 352.40405273 C234.87423828 352.40405273 240.15423828 352.40405273 245.59423828 352.40405273 C245.62001953 350.76436523 245.64580078 349.12467773 245.67236328 347.43530273 C245.72866783 345.25819365 245.78601462 343.08111134 245.84423828 340.90405273 C245.86550781 339.28756836 245.86550781 339.28756836 245.88720703 337.63842773 C246.08226752 331.24044364 246.41996553 325.52631161 250.59423828 320.40405273 C254.728766 317.04668219 259.91317515 315.38607013 264.84423828 313.52905273 C276.86842698 308.83076171 286.56048647 302.400774 296.59423828 294.40405273 C300.72969371 291.12370039 304.25943702 289.83159458 309.65283203 289.84936523 C317.39429846 291.30924337 324.80363996 296.06858847 331.45361328 300.16577148 C333.47061092 301.57096104 333.47061092 301.57096104 335.59423828 301.40405273 C340.54423828 292.82405273 345.49423828 284.24405273 350.59423828 275.40405273 C346.13663986 271.83797399 341.77676914 269.18152068 336.76611328 266.57983398 C331.47787326 263.69429432 327.56068721 260.30339951 325.59423828 254.40405273 C325.16917981 249.65921398 325.5644847 245.22909545 326.59423828 240.59155273 C328.81652944 229.33723538 328.47691497 216.96937917 326.05517578 205.79077148 C324.95974332 200.11865932 324.6710311 195.25046709 327.28173828 190.02905273 C331.75424438 184.95215391 337.04873945 181.8683613 342.90673828 178.65405273 C343.64730469 178.2428418 344.38787109 177.83163086 345.15087891 177.40795898 C346.96303455 176.40250489 348.77832248 175.40269973 350.59423828 174.40405273 C346.16682242 165.06657569 340.88929231 156.2668422 335.59423828 147.40405273 C330.73235989 148.82613355 326.71962067 150.89355246 322.40673828 153.46655273 C313.83295294 158.53900165 313.83295294 158.53900165 308.28173828 158.65405273 C307.54310547 158.67983398 306.80447266 158.70561523 306.04345703 158.73217773 C300.53848098 157.99466898 296.64358214 154.79136411 292.59423828 151.21655273 C283.03759658 143.26129424 272.65007238 138.11132542 261.06689453 133.82592773 C250.12190719 129.34451559 250.12190719 129.34451559 247.28759766 122.82983398 C245.88957492 117.93872347 245.91075849 112.95958824 245.84423828 107.90405273 C245.81458984 106.79545898 245.78494141 105.68686523 245.75439453 104.54467773 C245.68422661 101.83151817 245.63690701 99.11778407 245.59423828 96.40405273 C240.31423828 96.40405273 235.03423828 96.40405273 229.59423828 96.40405273 Z M229.59423828 193.40405273 C229.59423828 213.86405273 229.59423828 234.32405273 229.59423828 255.40405273 C238.46002404 255.40405273 245.40612735 253.36611312 251.99267578 247.24780273 C259.17289462 238.98179471 260.97166938 231.72668024 260.87158203 221.01733398 C260.24503878 212.85462259 256.7930269 205.7885937 250.59423828 200.40405273 C243.17300683 195.2138877 238.73616901 193.40405273 229.59423828 193.40405273 Z " fill="#000000" transform="translate(90.40576171875,31.595947265625)"/>
<path d="M0 0 C4.26187285 2.56590957 7.72606132 5.47370594 11.23925781 8.98046875 C11.96727097 9.70322495 11.96727097 9.70322495 12.70999146 10.44058228 C14.29606812 12.0179313 15.87480428 13.60239318 17.453125 15.1875 C18.56047889 16.2935051 19.6681294 17.3992133 20.77606201 18.50463867 C23.08899805 20.81463598 25.39830271 23.12818707 27.70507812 25.44433594 C30.65952851 28.41020686 33.62290369 31.36697214 36.58903885 34.32115173 C38.87461565 36.59949895 41.15540447 38.8825913 43.43477631 41.16714478 C44.52573687 42.2594374 45.61817929 43.35025209 46.71213531 44.43954468 C48.23909277 45.96141596 49.75948094 47.48956367 51.27832031 49.01953125 C52.14402649 49.88682861 53.00973267 50.75412598 53.90167236 51.64770508 C57.48422543 55.66386596 58.30689717 58.52211754 58.375 63.875 C58.40335937 64.88304687 58.43171875 65.89109375 58.4609375 66.9296875 C57.5579782 72.9443147 53.18485745 77.0662897 49.01953125 81.23925781 C48.29677505 81.96727097 48.29677505 81.96727097 47.55941772 82.70999146 C45.9820687 84.29606812 44.39760682 85.87480428 42.8125 87.453125 C41.7064949 88.56047889 40.6007867 89.6681294 39.49536133 90.77606201 C37.18536402 93.08899805 34.87181293 95.39830271 32.55566406 97.70507812 C29.58979314 100.65952851 26.63302786 103.62290369 23.67884827 106.58903885 C21.40050105 108.87461565 19.1174087 111.15540447 16.83285522 113.43477631 C15.7405626 114.52573687 14.64974791 115.61817929 13.56045532 116.71213531 C12.03858404 118.23909277 10.51043633 119.75948094 8.98046875 121.27832031 C7.67952271 122.57687958 7.67952271 122.57687958 6.35229492 123.90167236 C1.41208482 128.30850898 -2.61883666 128.43838031 -9.0859375 128.3125 C-14.38740101 127.74397844 -16.83972495 125.22134216 -20.375 121.5 C-22.72325726 116.44221514 -22.97097307 111.48314207 -22 106 C-18.81757454 100.44243314 -14.48999252 96.23181279 -9.953125 91.7578125 C-9.18192322 90.98944061 -8.41072144 90.22106873 -7.6161499 89.42941284 C-5.16544318 86.98985106 -2.70785503 84.55735761 -0.25 82.125 C1.41842869 80.46660843 3.08640255 78.80775914 4.75390625 77.1484375 C8.8306855 73.09364317 12.91312879 69.04462098 17 65 C15.61613387 61.87916401 14.02081806 59.78388806 11.59179688 57.39648438 C10.897677 56.70897095 10.20355713 56.02145752 9.48840332 55.31311035 C8.73941772 54.58072144 7.99043213 53.84833252 7.21875 53.09375 C6.44946167 52.33203491 5.68017334 51.57031982 4.88757324 50.78552246 C2.42978536 48.35216414 -0.03429734 45.92533645 -2.5 43.5 C-5.74531154 40.30781771 -8.98401266 37.10914304 -12.21875 33.90625 C-12.9677356 33.17386108 -13.71672119 32.44147217 -14.48840332 31.68688965 C-15.18252319 30.99937622 -15.87664307 30.31186279 -16.59179688 29.60351562 C-17.20309448 29.00269165 -17.81439209 28.40186768 -18.44421387 27.78283691 C-22.46954065 23.17005561 -22.42784345 18.8398321 -22.3125 12.9140625 C-21.74397844 7.61259899 -19.22134216 5.16027505 -15.5 1.625 C-10.44221514 -0.72325726 -5.48314207 -0.97097307 0 0 Z " fill="#000000" transform="translate(214,192)"/>
<path d="M0 0 C4.8846525 2.26787438 7.73212562 5.1153475 10 10 C10.83134097 16.1756758 11.00847994 21.01295092 7.3684082 26.25982666 C4.53170665 29.867195 1.2158818 33.02464262 -2.046875 36.2421875 C-2.81807678 37.01055939 -3.58927856 37.77893127 -4.3838501 38.57058716 C-6.83455682 41.01014894 -9.29214497 43.44264239 -11.75 45.875 C-13.41842869 47.53339157 -15.08640255 49.19224086 -16.75390625 50.8515625 C-20.8306855 54.90635683 -24.91312879 58.95537902 -29 63 C-27.61613387 66.12083599 -26.02081806 68.21611194 -23.59179688 70.60351562 C-22.897677 71.29102905 -22.20355713 71.97854248 -21.48840332 72.68688965 C-20.73941772 73.41927856 -19.99043213 74.15166748 -19.21875 74.90625 C-18.44946167 75.66796509 -17.68017334 76.42968018 -16.88757324 77.21447754 C-14.42978536 79.64783586 -11.96570266 82.07466355 -9.5 84.5 C-6.25468846 87.69218229 -3.01598734 90.89085696 0.21875 94.09375 C0.9677356 94.82613892 1.71672119 95.55852783 2.48840332 96.31311035 C3.52958313 97.34438049 3.52958313 97.34438049 4.59179688 98.39648438 C5.20309448 98.99730835 5.81439209 99.59813232 6.44421387 100.21716309 C10.46954065 104.82994439 10.42784345 109.1601679 10.3125 115.0859375 C9.74397844 120.38740101 7.22134216 122.83972495 3.5 126.375 C-1.55778486 128.72325726 -6.51685793 128.97097307 -12 128 C-16.26187285 125.43409043 -19.72606132 122.52629406 -23.23925781 119.01953125 C-23.96727097 118.29677505 -23.96727097 118.29677505 -24.70999146 117.55941772 C-26.29606812 115.9820687 -27.87480428 114.39760682 -29.453125 112.8125 C-30.56047889 111.7064949 -31.6681294 110.6007867 -32.77606201 109.49536133 C-35.08899805 107.18536402 -37.39830271 104.87181293 -39.70507812 102.55566406 C-42.65952851 99.58979314 -45.62290369 96.63302786 -48.58903885 93.67884827 C-50.87461565 91.40050105 -53.15540447 89.1174087 -55.43477631 86.83285522 C-56.52573687 85.7405626 -57.61817929 84.64974791 -58.71213531 83.56045532 C-60.23909277 82.03858404 -61.75948094 80.51043633 -63.27832031 78.98046875 C-64.57687958 77.67952271 -64.57687958 77.67952271 -65.90167236 76.35229492 C-69.48422543 72.33613404 -70.30689717 69.47788246 -70.375 64.125 C-70.40335937 63.11695313 -70.43171875 62.10890625 -70.4609375 61.0703125 C-69.5579782 55.0556853 -65.18485745 50.9337103 -61.01953125 46.76074219 C-60.29677505 46.03272903 -60.29677505 46.03272903 -59.55941772 45.29000854 C-57.9820687 43.70393188 -56.39760682 42.12519572 -54.8125 40.546875 C-53.7064949 39.43952111 -52.6007867 38.3318706 -51.49536133 37.22393799 C-49.18536402 34.91100195 -46.87181293 32.60169729 -44.55566406 30.29492188 C-41.58979314 27.34047149 -38.63302786 24.37709631 -35.67884827 21.41096115 C-33.40050105 19.12538435 -31.1174087 16.84459553 -28.83285522 14.56522369 C-27.7405626 13.47426313 -26.64974791 12.38182071 -25.56045532 11.28786469 C-24.03858404 9.76090723 -22.51043633 8.24051906 -20.98046875 6.72167969 C-20.11317139 5.85597351 -19.24587402 4.99026733 -18.35229492 4.09832764 C-12.78393831 -0.86883718 -7.21632885 -0.77386905 0 0 Z " fill="#000000" transform="translate(150,192)"/>
</svg>
