<?xml version="1.0" encoding="UTF-8"?>
<svg version="1.1" xmlns="http://www.w3.org/2000/svg" width="512" height="512">
<path d="M0 0 C1.13598633 0.31348389 1.13598633 0.31348389 2.29492188 0.63330078 C18.32177856 5.14719396 33.02389844 12.52286236 46 23 C46.54221191 23.43151367 47.08442383 23.86302734 47.64306641 24.30761719 C56.50631293 31.40908652 63.96226828 39.09511497 71 48 C72.14855469 47.59007812 73.29710937 47.18015625 74.48046875 46.7578125 C99.01945513 38.17155381 121.25804891 37.7302599 145.34765625 48.49609375 C153.91521556 52.75434433 160.33930091 58.27053263 167 65 C168.00160156 65.96873047 168.00160156 65.96873047 169.0234375 66.95703125 C179.76038976 78.10694321 185.98242836 94.73642547 187 110 C186.90799316 110.78036621 186.81598633 111.56073242 186.72119141 112.36474609 C186.45728884 115.09806027 186.42044666 117.3098345 187 120 C189.4533904 122.60133354 192.40962484 123.88538601 195.625 125.375 C197.38110837 126.28650387 199.13109462 127.20989232 200.875 128.14453125 C202.18017578 128.84376709 202.18017578 128.84376709 203.51171875 129.55712891 C224.37774481 141.6566397 240.43204036 165.13117574 246.85424805 188.14477539 C247.62737762 191.08469754 248.33527476 194.03375297 249 197 C249.1750708 197.76328613 249.3501416 198.52657227 249.53051758 199.31298828 C252.27441458 215.01726827 251.10739108 232.90057901 246 248 C245.79101074 248.63502441 245.58202148 249.27004883 245.36669922 249.92431641 C240.48052646 264.45839284 232.07707339 276.55048938 222 288 C221.21109375 288.91458984 221.21109375 288.91458984 220.40625 289.84765625 C202.01364531 309.69477815 173.32495366 321.2181998 146.64648438 322.33276367 C139.43213329 322.54893558 132.21700504 322.62169288 125 322.6875 C122.47133719 322.72073775 119.94269058 322.75523315 117.4140625 322.79101562 C111.27615306 322.87517151 105.13822601 322.94382358 99 323 C99.63478271 323.7827832 100.26956543 324.56556641 100.92358398 325.37207031 C104.44408095 329.82764108 105.51252617 332.99172067 105.3828125 338.625 C104.53267918 343.89929653 101.42441349 347.83206573 97.375 351.15234375 C94.06908599 355.11617814 94.22312333 358.29752667 94.1875 363.3125 C94.16236328 364.14845703 94.13722656 364.98441406 94.11132812 365.84570312 C94.0527301 367.89663409 94.02343507 369.94836593 94 372 C95.23302856 371.96072388 95.23302856 371.96072388 96.4909668 371.9206543 C100.22294938 371.8165856 103.9546266 371.75163872 107.6875 371.6875 C108.98107422 371.64560547 110.27464844 371.60371094 111.60742188 371.56054688 C113.47817383 371.53637695 113.47817383 371.53637695 115.38671875 371.51171875 C117.10701294 371.47244263 117.10701294 371.47244263 118.86206055 371.43237305 C122 372 122 372 124.8828125 373.87109375 C127.95131743 378.40591377 127.62923112 382.19608886 127.48828125 387.55078125 C127.48120651 388.56472458 127.47413177 389.57866791 127.46684265 390.62333679 C127.43891012 393.8538163 127.37617162 397.08254661 127.3125 400.3125 C127.28741575 402.5058343 127.26460281 404.69919584 127.24414062 406.89257812 C127.18908675 412.26239014 127.10281998 417.63089876 127 423 C131.62 423 136.24 423 141 423 C141.33 421.35 141.66 419.7 142 418 C145.83759288 411.86670423 150.95960118 407.73017529 158 406 C165.99374961 405.09327742 172.4685586 405.65214404 179.09375 410.546875 C184.67607584 415.11790993 188.10558503 419.66579729 189 427 C189.60058641 434.80762329 187.76816663 441.2045565 182.875 447.3125 C177.45283569 452.983699 171.85913558 455.17266822 164.0625 455.5625 C156.9663643 455.2913101 151.38148574 453.02336505 146.08203125 448.28515625 C142.95497817 444.89070671 141.82959103 442.560183 141 438 C140.26362305 438.02094727 139.52724609 438.04189453 138.76855469 438.06347656 C135.42917558 438.14667144 132.09001451 438.19867157 128.75 438.25 C127.59113281 438.28351563 126.43226563 438.31703125 125.23828125 438.3515625 C124.12324219 438.36445313 123.00820313 438.37734375 121.859375 438.390625 C120.83295898 438.41157227 119.80654297 438.43251953 118.74902344 438.45410156 C116 438 116 438 113.65820312 436.64257812 C111.00585423 432.41568996 111.50928102 428.21241826 111.609375 423.328125 C111.61503479 422.29057068 111.62069458 421.25301636 111.62652588 420.184021 C111.64890509 416.87221008 111.69910581 413.56148356 111.75 410.25 C111.77006294 408.00392188 111.78831406 405.75782679 111.8046875 403.51171875 C111.84877482 398.00744291 111.91570259 392.50379893 112 387 C111.14245117 387.02094727 110.28490234 387.04189453 109.40136719 387.06347656 C106.21081528 387.13176527 103.02063654 387.18185513 99.82958984 387.21972656 C98.4502332 387.23980642 97.07096131 387.26707666 95.69189453 387.30175781 C93.70643021 387.35042817 91.72033746 387.37086418 89.734375 387.390625 C88.54038086 387.41157227 87.34638672 387.43251953 86.11621094 387.45410156 C83 387 83 387 80.60351562 385.20507812 C78.28851862 382.02160478 78.56475428 379.01903794 78.75 375.25 C78.76804687 374.55261719 78.78609375 373.85523438 78.8046875 373.13671875 C78.85161446 371.42388461 78.92335395 369.71176176 79 368 C78.01 368.33 77.02 368.66 76 369 C69.70837326 369.47483975 66.014561 368.19656816 60.94140625 364.5 C60.19761719 363.96375 59.45382812 363.4275 58.6875 362.875 C57.67236328 362.09769531 57.67236328 362.09769531 56.63671875 361.3046875 C53.13461883 359.38481398 53.13461883 359.38481398 45 359 C45 372.53 45 386.06 45 400 C54.73816613 399.88138446 54.73816613 399.88138446 64.47583008 399.72973633 C66.29183716 399.71849731 66.29183716 399.71849731 68.14453125 399.70703125 C69.38565674 399.6913208 70.62678223 399.67561035 71.90551758 399.65942383 C75 400 75 400 76.8659668 401.26831055 C79.39275257 405.12675867 79.1181559 409.00570281 79.09765625 413.515625 C79.09443359 414.76601563 79.09121094 416.01640625 79.08789062 417.3046875 C79.07951172 418.60664063 79.07113281 419.90859375 79.0625 421.25 C79.05798828 422.56742187 79.05347656 423.88484375 79.04882812 425.2421875 C79.03704316 428.49483741 79.02059011 431.74739584 79 435 C79.58910156 435.12375 80.17820312 435.2475 80.78515625 435.375 C86.28741909 436.92766676 89.9709876 440.43165361 92.875 445.1875 C96.16653235 451.77056469 96.748608 457.9884936 95 465.125 C92.64647241 471.89804773 88.3534219 476.98244644 82.0625 480.4375 C74.97350941 483.5048517 68.26583959 483.66455238 61 481 C53.94573008 477.59369674 49.94998211 473.24325964 47 466 C44.83038392 458.72622301 45.74356622 451.76803587 49 445 C51.91338651 440.67177924 55.19939011 437.20568562 60 435 C60.99 435 61.98 435 63 435 C63 428.4 63 421.8 63 415 C61.10894531 415.03480469 59.21789062 415.06960938 57.26953125 415.10546875 C54.78386305 415.13360839 52.29818524 415.16090836 49.8125 415.1875 C47.94368164 415.22520508 47.94368164 415.22520508 46.03710938 415.26367188 C44.83505859 415.27333984 43.63300781 415.28300781 42.39453125 415.29296875 C41.28956299 415.3086792 40.18459473 415.32438965 39.04614258 415.34057617 C35.61134644 414.95654631 33.75709465 414.04813635 31 412 C29.63160637 409.26321275 29.78365182 406.95735576 29.68359375 403.8984375 C29.64169922 402.68671875 29.59980469 401.475 29.55664062 400.2265625 C29.49766602 398.32003906 29.49766602 398.32003906 29.4375 396.375 C29.39431641 395.09625 29.35113281 393.8175 29.30664062 392.5 C29.20030114 389.33344652 29.09827167 386.16681247 29 383 C28.38253906 383.95261719 27.76507813 384.90523438 27.12890625 385.88671875 C24.4590221 389.79111815 22.45765624 391.51411459 18 393 C15.03 393 12.06 393 9 393 C9 409.83 9 426.66 9 444 C10.98 444.66 12.96 445.32 15 446 C20.44935053 449.38161278 24.05474875 453.90137447 26 460 C27.53073005 467.13636906 27.47635903 473.47734698 24 480 C20.2191601 485.60641696 15.68372321 490.28347398 9 492 C1.11659511 492.88515423 -6.56321951 493.12344635 -13 488 C-19.48054347 482.18850049 -22.45346386 476.10100399 -23.375 467.5 C-22.5405886 459.71216027 -20.0852548 453.16743745 -14 448 C-12.8246167 447.5450415 -11.6492334 447.09008301 -10.43823242 446.62133789 C-7.91694606 445.18333869 -7.1404608 444.49824672 -6.34286499 441.66899109 C-6.09021224 438.57914715 -6.05729553 435.55315873 -6.09765625 432.453125 C-6.08536484 431.3267865 -6.07307343 430.200448 -6.06040955 429.03997803 C-6.02861751 425.44266048 -6.04497638 421.84738269 -6.0625 418.25 C-6.04939502 415.81117882 -6.03315721 413.3723723 -6.01367188 410.93359375 C-5.97276282 404.95542404 -5.97138076 398.97821927 -6 393 C-7.97753906 393.0386556 -9.95507812 393.0773112 -11.93261719 393.1159668 C-16.51404283 392.85897847 -19.32961551 390.74285849 -22.3125 387.4375 C-24 385 -24 385 -25 383 C-25.01458252 383.76143311 -25.02916504 384.52286621 -25.04418945 385.30737305 C-25.11880541 388.76791888 -25.21542259 392.22751445 -25.3125 395.6875 C-25.34633789 397.48477539 -25.34633789 397.48477539 -25.38085938 399.31835938 C-25.41630859 400.47529297 -25.45175781 401.63222656 -25.48828125 402.82421875 C-25.51446533 403.88729248 -25.54064941 404.95036621 -25.56762695 406.0456543 C-26.05760819 409.39362884 -26.95853286 411.31607734 -29 414 C-32.35735137 415.11911712 -34.88205386 415.11365586 -38.41796875 415.09765625 C-40.29838867 415.09282227 -40.29838867 415.09282227 -42.21679688 415.08789062 C-43.52712891 415.07951172 -44.83746094 415.07113281 -46.1875 415.0625 C-47.52278481 415.05748317 -48.85807141 415.05292059 -50.19335938 415.04882812 C-53.4622588 415.03702704 -56.73113502 415.01909136 -60 415 C-59.67 421.27 -59.34 427.54 -59 434 C-55.04 435.98 -55.04 435.98 -51 438 C-45.29986373 442.60266406 -42.68810627 448.93477326 -41.71875 456.0703125 C-41.38076711 463.25244902 -44.12196717 469.75838219 -48.4296875 475.39453125 C-53.12548331 480.19545681 -59.08807328 482.67571028 -65.73828125 483.0703125 C-74.19706747 482.80734505 -80.30134718 480.00640918 -86.1875 473.875 C-90.64576905 468.37255741 -92.34957899 462.03343535 -92.0625 455 C-90.99416863 447.70547937 -87.20007337 441.3125553 -81.3125 436.875 C-78 435 -78 435 -75 435 C-75.02094727 434.11739502 -75.04189453 433.23479004 -75.06347656 432.32543945 C-75.13184095 429.03594431 -75.18188949 425.74720906 -75.21972656 422.45727539 C-75.23978421 421.03625543 -75.26703778 419.61531741 -75.30175781 418.19458008 C-75.35054011 416.14644105 -75.37302539 414.09939725 -75.390625 412.05078125 C-75.41157227 410.82012939 -75.43251953 409.58947754 -75.45410156 408.3215332 C-74.90153522 404.27977778 -74.08036541 402.67098136 -71 400 C-67.79199219 399.43237305 -67.79199219 399.43237305 -64.046875 399.51171875 C-62.83870117 399.52420654 -61.63052734 399.53669434 -60.38574219 399.54956055 C-58.85594727 399.59508057 -57.32615234 399.64060059 -55.75 399.6875 C-48.44875 399.8421875 -48.44875 399.8421875 -41 400 C-41 386.47 -41 372.94 -41 359 C-48.94749699 359.4922047 -48.94749699 359.4922047 -54.6875 362.875 C-55.43128906 363.41125 -56.17507812 363.9475 -56.94140625 364.5 C-57.62074219 364.995 -58.30007812 365.49 -59 366 C-63.57965398 368.74779239 -66.657362 369.40321796 -72 369 C-72.99 368.67 -73.98 368.34 -75 368 C-74.95359375 369.03640625 -74.9071875 370.0728125 -74.859375 371.140625 C-74.82184725 372.51038779 -74.78544816 373.88018182 -74.75 375.25 C-74.69972656 376.27287109 -74.69972656 376.27287109 -74.6484375 377.31640625 C-74.58559249 380.55292405 -74.6742008 382.5519765 -76.60351562 385.20507812 C-79.79951504 387.59882178 -81.76956489 387.46018307 -85.734375 387.390625 C-87.02988281 387.37773437 -88.32539063 387.36484375 -89.66015625 387.3515625 C-91.02344824 387.31814366 -92.38672949 387.28428391 -93.75 387.25 C-95.12888064 387.22992707 -96.50778912 387.21167767 -97.88671875 387.1953125 C-101.25851744 387.14815448 -104.62890687 387.08234538 -108 387 C-107.99111755 387.57993713 -107.98223511 388.15987427 -107.9730835 388.75738525 C-107.88460971 394.79176988 -107.82426578 400.82597038 -107.78027344 406.86083984 C-107.76015444 409.11319461 -107.73285592 411.36549713 -107.69824219 413.61767578 C-107.64973791 416.85462331 -107.62703395 420.09088047 -107.609375 423.328125 C-107.58872986 424.33554749 -107.56808472 425.34296997 -107.54681396 426.38092041 C-107.54459997 433.27425649 -107.54459997 433.27425649 -109.65820312 436.64257812 C-112.60287486 438.34945624 -114.46350506 438.45992847 -117.859375 438.390625 C-119.53193359 438.37128906 -119.53193359 438.37128906 -121.23828125 438.3515625 C-122.39714844 438.31804687 -123.55601562 438.28453125 -124.75 438.25 C-125.92433594 438.23195313 -127.09867187 438.21390625 -128.30859375 438.1953125 C-131.2065534 438.1481912 -134.10286418 438.08241305 -137 438 C-137.13792969 438.78173584 -137.27585937 439.56347168 -137.41796875 440.36889648 C-138.58134078 445.62798219 -142.70133072 449.42213715 -147.04296875 452.40234375 C-153.88772268 455.90576061 -161.45095674 456.44596874 -168.77734375 454.1171875 C-175.26369508 451.17150615 -179.9909885 447.30829843 -183.02734375 440.796875 C-185.65623519 433.67342722 -185.69016332 427.42177981 -183.11328125 420.27734375 C-180.34069483 414.60570206 -175.76772973 409.65003799 -170 407 C-162.49683025 404.70645466 -154.04178588 405.01538373 -147.04296875 408.59765625 C-141.44055042 412.44329331 -138.33173042 416.34134791 -137 423 C-132.38 423 -127.76 423 -123 423 C-123.02618408 421.63270752 -123.05236816 420.26541504 -123.0793457 418.85668945 C-123.16992286 413.77840573 -123.22727729 408.70019325 -123.2746582 403.62133789 C-123.29978509 401.4242756 -123.33389246 399.22729676 -123.37719727 397.03051758 C-123.43792762 393.87039595 -123.46622833 390.71138043 -123.48828125 387.55078125 C-123.51408768 386.57039383 -123.5398941 385.59000641 -123.56648254 384.57991028 C-123.56834176 380.04787202 -123.47330431 377.6994774 -120.8828125 373.87109375 C-117.40520595 371.61394804 -115.50793011 371.41762717 -111.38671875 371.51171875 C-110.13955078 371.52783203 -108.89238281 371.54394531 -107.60742188 371.56054688 C-106.31384766 371.60244141 -105.02027344 371.64433594 -103.6875 371.6875 C-102.37458984 371.71005859 -101.06167969 371.73261719 -99.70898438 371.75585938 C-96.4714987 371.81472275 -93.23633 371.89691196 -90 372 C-89.48075842 361.33690118 -89.48075842 361.33690118 -92.51953125 351.45703125 C-94.27470317 349.84227308 -96.09222659 348.42758555 -98 347 C-101.21855791 342.22407536 -102.05175755 337.62832416 -101 332 C-99.45465587 328.70991249 -97.58471058 325.58471058 -95 323 C-95.63210388 322.99635437 -96.26420776 322.99270874 -96.91546631 322.98895264 C-103.60154683 322.94655887 -110.28697657 322.87683413 -116.97265625 322.79248047 C-119.45501132 322.7645636 -121.93745046 322.74320644 -124.41992188 322.72900391 C-161.08756964 322.50686549 -190.71991882 314.24494056 -217.75 288.6875 C-239.09570633 266.35173308 -246.57360314 239.61402419 -246.28125 209.328125 C-245.94882499 196.30371308 -242.67728037 184.73622665 -237 173 C-236.50886719 171.96617187 -236.01773438 170.93234375 -235.51171875 169.8671875 C-222.0351074 143.1712748 -199.15824255 126.47110546 -171.91796875 115.59375 C-170 115 -170 115 -167 115 C-166.90203125 113.87464844 -166.8040625 112.74929687 -166.703125 111.58984375 C-163.49309082 77.5051851 -148.62894995 48.73955311 -123 26 C-89.39443544 -1.66845463 -42.03305495 -12.1249197 0 0 Z M-113 38 C-113.77472656 38.61101563 -114.54945313 39.22203125 -115.34765625 39.8515625 C-137.03618432 57.82970746 -149.14924007 85.22424905 -151.83691406 112.81152344 C-151.98443301 114.48787512 -152.11596575 116.16573027 -152.22949219 117.84472656 C-152.68086857 123.60038534 -152.68086857 123.60038534 -154.33496094 125.67163086 C-156.94056852 127.75038612 -160.02456539 128.33201083 -163.1875 129.1875 C-187.73019482 136.4145046 -208.38432195 152.35366846 -221.00488281 174.78613281 C-231.93643147 195.21000112 -234.80894448 218.87676318 -228.40576172 241.29980469 C-224.39971051 253.76247645 -217.86752485 265.36573428 -209 275 C-208.25234375 275.82757813 -207.5046875 276.65515625 -206.734375 277.5078125 C-190.84236013 294.27132496 -168.10327975 305.87737783 -144.85630798 307.17555237 C-141.46104682 307.22942361 -138.07132971 307.22531769 -134.67578125 307.1953125 C-132.83466011 307.19106766 -132.83466011 307.19106766 -130.9563446 307.18673706 C-127.07495962 307.1756325 -123.19381405 307.15054606 -119.3125 307.125 C-116.6647169 307.11495763 -114.01693014 307.10583399 -111.36914062 307.09765625 C-104.91268013 307.07572508 -98.45635718 307.04234558 -92 307 C-93.86356681 301.05950385 -95.88832186 298.45821777 -101 295 C-103.81203891 293.75020493 -106.39757147 293.10299584 -109.421875 292.5859375 C-114.62096691 291.6784037 -118.23529527 290.99999878 -122 287 C-124.44040064 283.34505435 -124.30627808 279.63019541 -124.30078125 275.3828125 C-124.30506638 274.6480368 -124.3093515 273.91326111 -124.31376648 273.15621948 C-124.31949811 271.60464506 -124.32001864 270.05304377 -124.31567383 268.50146484 C-124.3125198 266.13982744 -124.33596497 263.77945088 -124.36132812 261.41796875 C-124.363602 259.90625157 -124.3643042 258.39453104 -124.36328125 256.8828125 C-124.372491 256.18261993 -124.38170074 255.48242737 -124.39118958 254.76101685 C-124.34780176 250.11252251 -123.4440589 246.94815173 -121 243 C-117.50091816 240.25954262 -114.55101639 239.59394934 -110.1875 239.125 C-102.84617609 238.02334992 -98.14978756 235.75613789 -93.5625 229.875 C-90.84050076 224.86652139 -90.33732996 220.60092347 -91 215 C-92.73191428 209.96578285 -95.62325634 206.07538028 -99 202 C-100.63676165 197.08971504 -100.81899546 192.86052668 -98.74658203 188.15258789 C-97.00785654 185.01418109 -95.24822413 182.86118704 -92.7265625 180.328125 C-91.9015625 179.49925781 -91.0765625 178.67039063 -90.2265625 177.81640625 C-89.36804688 176.96949219 -88.50953125 176.12257812 -87.625 175.25 C-86.77421875 174.38761719 -85.9234375 173.52523437 -85.046875 172.63671875 C-84.21929687 171.81300781 -83.39171875 170.98929688 -82.5390625 170.140625 C-81.78834473 169.39329102 -81.03762695 168.64595703 -80.26416016 167.87597656 C-75.92029251 164.27685224 -71.7547735 163.55233528 -66.26953125 163.6796875 C-62.58411294 164.1998326 -59.99482307 165.88136018 -57 168 C-51.36750511 171.79110233 -47.92131589 173.65917294 -41 173 C-34.87770978 170.95605287 -30.09126323 168.2665834 -26.94140625 162.515625 C-25.33821037 158.2315663 -24.64529023 153.78145764 -23.96875 149.26953125 C-22.75236731 145.16423966 -21.40855406 143.57932249 -18 141 C-11.42234879 138.60550417 -4.94178866 138.69845206 2 138.75 C3.56234375 138.73839844 3.56234375 138.73839844 5.15625 138.7265625 C18.98106998 138.76147366 18.98106998 138.76147366 24.87109375 143.12890625 C27.42384828 146.5716119 28.28447244 149.80973799 29.0625 153.9375 C30.3093253 160.32673395 31.74592628 165.65619481 37.33203125 169.6796875 C42.37107934 172.10795319 46.29787912 173.95035348 52 173 C56.98693072 171.11072048 60.90257643 168.3950081 65 165 C67.71208843 164.09597052 69.50392749 163.80820876 72.3125 163.75 C73.42044922 163.71132813 73.42044922 163.71132813 74.55078125 163.671875 C79.99538644 164.40129579 83.87981885 167.49844804 87.671875 171.2734375 C88.50074219 172.0984375 89.32960938 172.9234375 90.18359375 173.7734375 C91.45396484 175.06121094 91.45396484 175.06121094 92.75 176.375 C93.61238281 177.22578125 94.47476562 178.0765625 95.36328125 178.953125 C96.18699219 179.78070313 97.01070313 180.60828125 97.859375 181.4609375 C98.60670898 182.21165527 99.35404297 182.96237305 100.12402344 183.73583984 C103.54582761 187.86569563 104.41049279 191.66699065 104.25 197.0234375 C103.58963159 202.24447524 100.17604411 206.3133964 97.0859375 210.38671875 C94.30202762 214.52252731 94.54909169 219.22037192 95 224 C97.39703339 230.56030191 101.88415691 234.80107919 108 238 C110.94363898 238.67117848 110.94363898 238.67117848 114 239 C118.39293052 239.53790986 121.47587435 240.23784746 125 243 C127.83079899 247.59422653 128.45597313 251.5225215 128.43359375 256.8125 C128.4388356 257.5444458 128.44407745 258.2763916 128.44947815 259.03051758 C128.45586997 260.5701369 128.4545983 262.10980523 128.44604492 263.64941406 C128.4375228 265.99372854 128.46635026 268.33561245 128.49804688 270.6796875 C128.49965898 272.18229094 128.49908117 273.68489866 128.49609375 275.1875 C128.50732773 275.88141846 128.51856171 276.57533691 128.53013611 277.2902832 C128.45899289 282.30230928 127.13643637 285.13888535 124 289 C120.29453495 291.5305615 116.85206578 292.24660218 112.5 292.9375 C106.44414596 293.93996159 102.87955849 295.96804487 98.6875 300.5 C97.11041 302.83642963 96.57562892 304.30993218 96 307 C103.64555191 307.10264673 111.29092187 307.17198028 118.93701172 307.21972656 C121.53017822 307.23966163 124.12330084 307.26681961 126.71630859 307.30175781 C146.40722297 307.56014882 164.03231001 306.81202282 182 298 C183.06734375 297.48566406 184.1346875 296.97132813 185.234375 296.44140625 C192.99807707 292.49576893 199.54512071 287.82959292 206 282 C206.85464844 281.23945313 207.70929688 280.47890625 208.58984375 279.6953125 C223.9442442 265.26359559 234.28237967 244.33035629 235.3828125 223.2421875 C236.14617952 197.3722982 228.66391677 176.05396092 211.69921875 156.32421875 C201.042054 145.10890462 188.10434984 137.15775273 174 131 C173.34 131 172.68 131 172 131 C172.03480469 129.15148437 172.03480469 129.15148437 172.0703125 127.265625 C172.36123871 105.65615083 168.54515287 89.1219185 153.4375 72.875 C142.5573972 62.3905373 128.09794222 56.00652948 113 55 C112.36578125 54.9484375 111.7315625 54.896875 111.078125 54.84375 C98.78700823 54.28926353 87.52146459 57.54887547 76.84765625 63.39453125 C73.36166071 65.23247832 71.29786273 65.99469773 67.26953125 66.06640625 C63.15918396 64.72575534 62.1095747 63.26866553 59.75 59.6875 C58.9830696 58.58490294 58.21073746 57.48604737 57.43359375 56.390625 C57.03640137 55.82666016 56.63920898 55.26269531 56.22998047 54.68164062 C39.22546594 31.43291175 11.85859283 16.46200207 -16.24609375 11.69140625 C-51.43136616 6.79187427 -85.55757715 15.40995207 -113 38 Z M-10 153 C-10.53625 155.475 -11.0725 157.95 -11.625 160.5 C-13.20511245 167.12541884 -15.07343679 172.10922297 -20 177 C-20.50144531 177.54914063 -21.00289063 178.09828125 -21.51953125 178.6640625 C-27.65767907 184.72753699 -36.14284925 187.16116931 -44.625 187.4375 C-54.52465512 186.99656709 -60.55653053 183.62897965 -69 178 C-74.61 183.61 -80.22 189.22 -86 195 C-84.02 197.97 -82.04 200.94 -80 204 C-75.61537063 212.62310442 -75.59231168 222.54881759 -78.4375 231.75 C-82.3458784 241.01531662 -88.89207206 247.19702507 -98.03125 251.16015625 C-101 252 -101 252 -110 253 C-110 261.25 -110 269.5 -110 278 C-107.091875 278.556875 -107.091875 278.556875 -104.125 279.125 C-95.04407923 281.24948092 -87.53579686 284.82130472 -82.25 292.75 C-77.06741463 302.07865366 -75.19131412 311.51378143 -77.73046875 322.0234375 C-79.67029813 327.80333729 -82.39027171 332.12716612 -86 337 C-83.4370815 339.70762811 -80.84664796 342.3872338 -78.25 345.0625 C-77.52039063 345.83400391 -76.79078125 346.60550781 -76.0390625 347.40039062 C-74.97558594 348.48803711 -74.97558594 348.48803711 -73.890625 349.59765625 C-73.24125977 350.27320557 -72.59189453 350.94875488 -71.92285156 351.64477539 C-70.09936662 353.24479105 -70.09936662 353.24479105 -67.87744141 352.78271484 C-65.07039712 351.61244385 -62.70379295 349.95500129 -60.1953125 348.25390625 C-52.3783932 343.78908224 -42.71232077 343.65412523 -34.08203125 345.6875 C-25.28348417 348.96137798 -18.8607182 353.89912692 -14.25390625 362.12109375 C-12.0166236 367.25778319 -11.05150454 372.50880965 -10 378 C-2.08 378 5.84 378 14 378 C14.556875 375.091875 14.556875 375.091875 15.125 372.125 C17.41973839 362.35111426 21.36845377 355.24206153 29.66796875 349.40625 C37.94207366 344.41684 46.47192556 344.07661898 56 345 C61.00343314 346.26545974 64.85648428 348.08021561 68.875 351.3125 C70.79939624 353.24155244 70.79939624 353.24155244 72.90332031 352.81665039 C75.44978833 351.82480881 76.76696603 350.57526761 78.671875 348.62109375 C79.33574219 347.94755859 79.99960937 347.27402344 80.68359375 346.58007812 C81.36550781 345.87302734 82.04742187 345.16597656 82.75 344.4375 C83.44738281 343.72658203 84.14476562 343.01566406 84.86328125 342.28320312 C86.5824658 340.52869286 88.29425872 338.76756648 90 337 C89.27683594 335.93072266 89.27683594 335.93072266 88.5390625 334.83984375 C81.99636955 324.91898485 79.75562771 316.95623688 81 305 C83.33353584 296.46707067 87.09158308 289.06154514 94.69921875 284.31640625 C101.37361442 280.75274044 106.21556083 279.55688783 114 278 C114 269.75 114 261.5 114 253 C110.04 252.34 106.08 251.68 102 251 C92.94803807 247.06954285 86.36770889 241.02714678 82.5 231.8125 C79.61554888 222.61831207 79.79130092 213.22494973 83.63671875 204.37890625 C85.51515613 201.10105994 87.80411907 198.0742333 90 195 C84.39 189.39 78.78 183.78 73 178 C70.03 179.98 67.06 181.96 64 184 C53.67095871 187.97270819 44.39789042 188.30800129 33.93359375 184.45703125 C27.0217647 181.02412548 20.82002998 175.51400356 17.73828125 168.328125 C16.1416194 163.29314901 15.07678289 158.16855788 14 153 C6.08 153 -1.84 153 -10 153 Z M-167 423 C-169.09098402 426.17252748 -169.98471397 428.25098463 -170.0625 432.0625 C-168.5876676 436.13997781 -166.61914281 437.67828574 -163 440 C-159.1565246 440.70594446 -157.61250978 440.3619376 -154.25 438.375 C-151.62099366 435.59993776 -150.68950213 433.75395603 -150 430 C-150.72559066 426.61391025 -151.83182738 425.17284408 -154.25 422.6875 C-158.50650998 420.0755507 -162.93073101 419.91296835 -167 423 Z M155 426 C153.51612 429.4041953 153.86204723 430.63696641 155.1875 434.125 C156.98462736 436.97561581 158.02362876 438.46929479 161 440 C165.19593099 440.72972713 166.6912676 440.19805475 170.3125 437.875 C173.3168738 434.66101872 174.08901233 433.36160415 174 429 C172.8303301 425.79879817 171.92407353 423.7010213 169.1875 421.625 C162.77213065 419.79203733 159.59305864 421.19331073 155 426 Z M-75 452 C-76.61588379 455.23176757 -76.57451407 458.50615283 -76 462 C-74.01078114 464.9838283 -72.61497432 466.60276841 -69.0625 467.4765625 C-65.07588643 467.76347787 -63.36629686 467.26498071 -60.0625 464.875 C-57.76418074 461.67128224 -57 459.93377716 -57 456 C-58.740655 451.84176862 -60.93421109 449.88414608 -65 448 C-69.74547942 448 -71.28673738 449.1944238 -75 452 Z M64 451 C61.68858396 453.85074644 61 455.3139451 61 459 C62.30413361 462.91240083 63.65335433 464.57902228 67 467 C69.83562783 467.71033909 72.16282122 467.69785446 75 467 C77.9838283 465.01078114 79.60276841 463.61497432 80.4765625 460.0625 C80.76347787 456.07588643 80.26498071 454.36629686 77.875 451.0625 C72.75431841 447.38896756 68.98842279 446.95533287 64 451 Z M-5 461 C-7.5703274 464.64820664 -8.11636853 466.23713965 -7.4375 470.6875 C-5.67715784 474.81563096 -5.67715784 474.81563096 -2 477 C3.00037064 477.6349677 4.86484175 477.84533061 8.9375 474.8125 C11.06159157 471.91601149 12 470.56864987 12 467 C10.70475224 463.40208955 9.60386798 461.46451383 6.5625 459.125 C1.82589659 457.04551558 -1.08201148 457.98616267 -5 461 Z " fill="#000000" transform="translate(254,12)"/>
<path d="M0 0 C13.56945985 10.40665342 22.45584021 24.08508684 25.9296875 40.94140625 C28.14397807 57.76587571 25.74623236 74.67122792 16.34765625 89.1171875 C12.99435424 93.42231751 9.21871939 97.28048291 5.34765625 101.1171875 C4.785625 101.71273437 4.22359375 102.30828125 3.64453125 102.921875 C-7.25054715 113.53024081 -23.94044534 118.06623053 -38.65234375 118.4921875 C-56.94956356 117.9624239 -72.98706431 111.37472821 -85.65234375 98.1171875 C-86.3690625 97.40820312 -87.08578125 96.69921875 -87.82421875 95.96875 C-99.55443407 83.75345059 -104.321221 67.32547858 -104.05249023 50.67822266 C-103.36833098 32.94344262 -96.16105265 17.75327469 -83.71875 5.16015625 C-60.59405658 -16.19645196 -25.52630767 -18.12029499 0 0 Z M-76.87109375 19.953125 C-86.38821937 31.5155978 -89.54794019 44.37301654 -88.65234375 59.1171875 C-86.66229682 72.62589593 -79.96546858 84.7370537 -69.08203125 93.08984375 C-57.49357794 100.86500259 -44.70025765 104.87888188 -30.76171875 102.65625 C-16.67953458 99.5227797 -4.90995844 92.86445724 3.16015625 80.7421875 C10.62809835 68.24941197 13.78124511 54.83221043 10.16015625 40.4296875 C5.71057891 26.28126184 -2.71028395 15.55788243 -15.65234375 8.1171875 C-36.97829022 -2.07947495 -60.67796587 2.76451795 -76.87109375 19.953125 Z " fill="#000000" transform="translate(294.65234375,224.8828125)"/>
</svg>
