<?xml version="1.0" encoding="UTF-8"?>
<svg version="1.1" xmlns="http://www.w3.org/2000/svg" width="512" height="512">
<path d="M0 0 C1.35931641 -0.03287109 1.35931641 -0.03287109 2.74609375 -0.06640625 C6.56646647 0.78668669 8.96296354 2.73853386 11.5625 5.5625 C13.18081581 8.23664015 14.31236299 11.04038266 15.453125 13.9453125 C15.79571854 14.77690887 16.13831207 15.60850525 16.49128723 16.46530151 C17.61395063 19.19995279 18.71305456 21.94344183 19.8125 24.6875 C20.59126994 26.59576623 21.3718149 28.50330895 22.15405273 30.41015625 C23.79092044 34.40386661 25.41995329 38.4006503 27.04443359 42.39941406 C29.55863544 48.57225194 32.12503927 54.72244212 34.70703125 60.8671875 C35.12207916 61.85494171 35.53712708 62.84269592 35.9647522 63.86038208 C36.78390834 65.8086993 37.60331112 67.75691285 38.42297363 69.70501709 C40.3391157 74.2601112 42.25111506 78.81692587 44.16015625 83.375 C44.65730888 84.55798172 44.65730888 84.55798172 45.164505 85.76486206 C47.70323535 91.82882591 48.70265873 96.41200487 48.66015625 102.94921875 C48.65803383 104.17473198 48.65803383 104.17473198 48.65586853 105.42500305 C48.65027294 108.03337268 48.63772129 110.64165634 48.625 113.25 C48.61998443 115.01887897 48.61542162 116.78775928 48.61132812 118.55664062 C48.60030496 122.89196019 48.58304338 127.22721552 48.5625 131.5625 C49.55145106 131.55696924 49.55145106 131.55696924 50.56038094 131.55132675 C66.61027493 131.46294962 82.66008417 131.39677781 98.71016121 131.35525131 C106.47190215 131.33463508 114.23348057 131.30653264 121.99511719 131.26074219 C128.76098518 131.22084543 135.52673546 131.19506035 142.29271781 131.18614602 C145.87457534 131.180936 149.45609612 131.16871072 153.03784561 131.13957977 C157.03856529 131.10730587 161.03870132 131.10654239 165.03955078 131.10839844 C166.2242244 131.09401733 167.40889801 131.07963623 168.62947083 131.06481934 C174.906355 131.09637759 178.82956931 131.26817514 183.5625 135.5625 C187.84430577 140.94024416 187.08525663 146.95277126 187.06347656 153.53735352 C187.0625008 155.62329766 187.10422892 157.70559884 187.1484375 159.79101562 C187.15101563 161.10908203 187.15359375 162.42714844 187.15625 163.78515625 C187.16333984 164.98922119 187.17042969 166.19328613 187.17773438 167.43383789 C186.5625 170.5625 186.5625 170.5625 184.21679688 172.95483398 C180.97203519 174.92013528 179.29342762 175.19755151 175.5625 174.5625 C172.71469381 172.33043569 171.71252334 171.01257001 170.5625 167.5625 C170.48143314 166.00828271 170.45493102 164.45082973 170.46484375 162.89453125 C170.46734131 162.08991455 170.46983887 161.28529785 170.47241211 160.45629883 C170.48606812 158.93105591 170.48606812 158.93105591 170.5 157.375 C170.520625 154.136875 170.54125 150.89875 170.5625 147.5625 C162.3125 147.5625 154.0625 147.5625 145.5625 147.5625 C145.62050781 150.82511719 145.67851562 154.08773437 145.73828125 157.44921875 C145.77728782 160.61317515 145.80764054 163.77710465 145.8371582 166.94116211 C145.86228509 169.1382244 145.89639246 171.33520324 145.93969727 173.53198242 C146.00042762 176.69210405 146.02872833 179.85111957 146.05078125 183.01171875 C146.07658768 183.99210617 146.1023941 184.97249359 146.12898254 185.98258972 C146.13090436 190.66723058 146.10395582 192.84140519 143.21948242 196.68286133 C140.5625 198.5625 140.5625 198.5625 137.5625 199.1875 C133.37625626 198.31536589 132.13226878 196.98484185 129.5625 193.5625 C128.87480964 190.03859926 128.98001874 186.59038154 129.07421875 183.01171875 C129.08129349 181.99777542 129.08836823 180.98383209 129.09565735 179.93916321 C129.12358988 176.7086837 129.18632838 173.47995339 129.25 170.25 C129.27508425 168.0566657 129.29789719 165.86330416 129.31835938 163.66992188 C129.37341325 158.30010986 129.45968002 152.93160124 129.5625 147.5625 C125.2725 147.5625 120.9825 147.5625 116.5625 147.5625 C116.58868408 148.96532227 116.61486816 150.36814453 116.6418457 151.81347656 C116.73232478 157.01660217 116.78974166 162.21965822 116.8371582 167.42333984 C116.86230743 169.67573743 116.89643118 171.92805336 116.93969727 174.18017578 C117.000329 177.417197 117.02870592 180.65313972 117.05078125 183.890625 C117.07658768 184.89804749 117.1023941 185.90546997 117.12898254 186.94342041 C117.13177645 193.90255676 117.13177645 193.90255676 114.25854492 197.23339844 C110.58371122 199.04502523 108.46262157 198.6458671 104.5625 197.5625 C101.75016777 195.59386744 101.22274189 193.84209734 100.5625 190.5625 C100.47912893 189.09725961 100.44465813 187.62873681 100.44897461 186.16113281 C100.44905014 185.3005426 100.44912567 184.43995239 100.44920349 183.55328369 C100.45694542 182.17339264 100.45694542 182.17339264 100.46484375 180.765625 C100.46696617 179.34246979 100.46696617 179.34246979 100.46913147 177.89056396 C100.47472258 174.86451038 100.48727348 171.83853117 100.5 168.8125 C100.50501615 166.75911565 100.50957885 164.70573014 100.51367188 162.65234375 C100.52468911 157.62236724 100.54194767 152.59244622 100.5625 147.5625 C96.6025 147.5625 92.6425 147.5625 88.5625 147.5625 C88.58868408 148.92979248 88.61486816 150.29708496 88.6418457 151.70581055 C88.73242286 156.78409427 88.78977729 161.86230675 88.8371582 166.94116211 C88.86228509 169.1382244 88.89639246 171.33520324 88.93969727 173.53198242 C89.00042762 176.69210405 89.02872833 179.85111957 89.05078125 183.01171875 C89.07658768 183.99210617 89.1023941 184.97249359 89.12898254 185.98258972 C89.13090436 190.66723058 89.10395582 192.84140519 86.21948242 196.68286133 C83.5625 198.5625 83.5625 198.5625 80.5625 199.1875 C76.37625626 198.31536589 75.13226878 196.98484185 72.5625 193.5625 C71.87480964 190.03859926 71.98001874 186.59038154 72.07421875 183.01171875 C72.08129349 181.99777542 72.08836823 180.98383209 72.09565735 179.93916321 C72.12358988 176.7086837 72.18632838 173.47995339 72.25 170.25 C72.27508425 168.0566657 72.29789719 165.86330416 72.31835938 163.66992188 C72.36915726 158.29956942 72.46701525 152.93298645 72.5625 147.5625 C64.6425 147.5625 56.7225 147.5625 48.5625 147.5625 C48.5625 171.9825 48.5625 196.4025 48.5625 221.5625 C88.8225 221.5625 129.0825 221.5625 170.5625 221.5625 C170.5625 214.6325 170.5625 207.7025 170.5625 200.5625 C172.5625 195.5625 172.5625 195.5625 175.5625 193.5625 C179.23510332 193.08346478 181.01934697 193.23653641 184.21836853 195.15637207 C187.32270991 198.34281557 187.19017307 200.03408526 187.19360352 204.43554688 C187.20433647 205.46089539 187.20433647 205.46089539 187.21528625 206.50695801 C187.23218343 208.7657373 187.21275181 211.02253226 187.19140625 213.28125 C187.19223563 214.86104496 187.19469764 216.44083982 187.19871521 218.02062988 C187.20157488 221.33628241 187.18687017 224.65126019 187.15942383 227.96679688 C187.12556306 232.18534358 187.13128242 236.40266634 187.1500864 240.62126923 C187.16074475 243.88848769 187.15163565 247.15542978 187.13670158 250.42262268 C187.1315686 251.9757047 187.13194126 253.52881622 187.13824654 255.08189392 C187.17619316 270.06219965 184.35325178 280.95166908 174.1875 292.1875 C166.32487794 299.30130091 158.62814902 303.98198437 147.87475586 305.11010742 C146.66244545 305.23901619 146.66244545 305.23901619 145.42564392 305.37052917 C144.81080643 305.43387955 144.19596893 305.49722992 143.5625 305.5625 C143.57249275 307.31444168 143.57249275 307.31444168 143.58268738 309.10177612 C143.64363521 320.13574005 143.6885382 331.16966958 143.71793652 342.20376396 C143.73355882 347.87582315 143.75473427 353.54774589 143.78881836 359.21972656 C143.82153437 364.69864357 143.83937883 370.17742973 143.84713173 375.65643692 C143.8526533 377.7415078 143.86343537 379.82657193 143.87969017 381.91158676 C143.90162715 384.84339341 143.90446015 387.7746668 143.90307617 390.70654297 C143.91925491 391.98509407 143.91925491 391.98509407 143.9357605 393.28947449 C143.88037846 404.20866157 140.30228019 413.24592817 132.96875 421.31640625 C126.46874685 427.4331545 118.23631401 430.1582591 109.421875 430.65625 C99.34135559 430.32574117 91.14091003 426.7665201 83.81640625 419.93359375 C76.08289669 411.62151739 74.40373967 402.224637 74.44897461 391.27416992 C74.44882858 390.34685059 74.44868256 389.41953125 74.4485321 388.46411133 C74.44922731 385.40703979 74.45700136 382.35002961 74.46484375 379.29296875 C74.46670932 377.17019179 74.46813257 375.04741439 74.46913147 372.92463684 C74.47294567 367.34334113 74.48276661 361.76207154 74.49383545 356.18078613 C74.50407314 350.48315789 74.50863414 344.78552542 74.51367188 339.08789062 C74.52438985 327.91274896 74.54145313 316.73762665 74.5625 305.5625 C73.66924515 305.43561798 72.7759903 305.30873596 71.85566711 305.17800903 C70.09853645 304.91998001 70.09853645 304.91998001 68.3059082 304.65673828 C67.14452835 304.48860626 65.9831485 304.32047424 64.78657532 304.14724731 C60.89080023 303.44067448 58.19828132 302.34859567 54.75 300.4375 C53.25533203 299.62925781 53.25533203 299.62925781 51.73046875 298.8046875 C51.01503906 298.39476562 50.29960937 297.98484375 49.5625 297.5625 C49.55839111 298.20799805 49.55428223 298.85349609 49.55004883 299.51855469 C49.51709937 302.45079328 49.44645635 305.38095757 49.375 308.3125 C49.36629883 309.83617187 49.36629883 309.83617187 49.35742188 311.390625 C49.13467436 318.91454095 49.13467436 318.91454095 46.203125 322.234375 C42.96875734 323.86112797 41.13531266 324.17063833 37.5625 323.5625 C35.25974444 321.6954009 33.88426129 320.20602259 32.5625 317.5625 C32.46669462 314.84166593 32.43238114 312.14653122 32.44224548 309.42550659 C32.44096385 308.14887498 32.44096385 308.14887498 32.43965632 306.84645283 C32.43800165 303.9781806 32.44352269 301.10996611 32.44897461 298.24169922 C32.44925651 296.1921692 32.44909869 294.14263909 32.4485321 292.09310913 C32.44824424 286.51488428 32.45413918 280.93668077 32.46110606 275.3584609 C32.46734145 269.53415121 32.46794355 263.70984108 32.46913147 257.88552856 C32.47224424 246.84997502 32.48045689 235.81443134 32.49048096 224.77888215 C32.50164379 212.21801198 32.50715298 199.65714135 32.51217639 187.09626746 C32.52263955 161.25167265 32.54043849 135.40708729 32.5625 109.5625 C24.6425 109.5625 16.7225 109.5625 8.5625 109.5625 C8.5625 196.6825 8.5625 283.8025 8.5625 373.5625 C16.4825 373.5625 24.4025 373.5625 32.5625 373.5625 C32.52769531 371.81582031 32.49289062 370.06914062 32.45703125 368.26953125 C32.42889042 365.97136379 32.40159058 363.67318592 32.375 361.375 C32.34986328 360.22451172 32.32472656 359.07402344 32.29882812 357.88867188 C32.28432617 356.22094727 32.28432617 356.22094727 32.26953125 354.51953125 C32.24596558 352.98776245 32.24596558 352.98776245 32.22192383 351.42504883 C32.61732137 348.10172541 33.59459803 346.24507842 35.5625 343.5625 C38.41574437 342.13587781 40.39704549 342.25216132 43.5625 342.5625 C46.22227478 343.83691406 46.22227478 343.83691406 48.5625 346.5625 C49.33434854 350.52497043 49.23437965 354.45875918 49.19360352 358.484375 C49.20433647 360.31439308 49.20433647 360.31439308 49.21528625 362.18138123 C49.22930512 365.52744119 49.22085181 368.87195731 49.20119596 372.21789169 C49.18478581 375.72901048 49.19362699 379.24007969 49.19871521 382.7512207 C49.20323834 388.65605331 49.18736493 394.56056945 49.15942383 400.46533203 C49.12748925 407.26589657 49.12734055 414.06588663 49.1446386 420.86649132 C49.1605877 427.42860395 49.153709 433.99050856 49.13670158 440.5526123 C49.12987666 443.33383816 49.13081649 446.11489496 49.13824654 448.89611816 C49.14743681 452.79945166 49.12319844 456.7022124 49.09594727 460.60546875 C49.10573608 462.3126432 49.10573608 462.3126432 49.11572266 464.05430603 C48.95728961 477.49290182 44.3118026 489.02894745 35.34375 499.0390625 C24.57753366 509.49068161 12.83103531 512.86550159 -1.65991211 512.87719727 C-14.48736326 512.68198437 -25.12787561 508.15002978 -34.69140625 499.53125 C-47.22742936 486.40053889 -48.7575193 471.71505298 -48.5625 454.5 C-48.55245008 452.95117766 -48.54332779 451.40234901 -48.53515625 449.85351562 C-48.51330207 446.08968572 -48.47888343 442.32616377 -48.4375 438.5625 C-49.46520508 438.60177612 -49.46520508 438.60177612 -50.51367188 438.6418457 C-53.65470933 438.74656463 -56.79537842 438.81106148 -59.9375 438.875 C-61.01515625 438.91689453 -62.0928125 438.95878906 -63.203125 439.00195312 C-69.26736554 439.09439582 -73.60749767 438.67038964 -78.73632812 435.32885742 C-84.01752934 429.84529101 -85.03555804 424.8898261 -85.046875 417.56640625 C-85.06341125 416.73286118 -85.07994751 415.8993161 -85.09698486 415.04051208 C-85.14521714 412.40193127 -85.16677987 409.76392568 -85.1875 407.125 C-85.21568052 405.32614332 -85.24561085 403.52731315 -85.27734375 401.72851562 C-85.35096895 397.33989117 -85.40069429 392.95158141 -85.4375 388.5625 C-87.68000878 387.50120574 -89.92899089 386.46368767 -92.1875 385.4375 C-93.13882813 384.98310547 -93.13882813 384.98310547 -94.109375 384.51953125 C-97.73788262 382.8459416 -97.73788262 382.8459416 -101.60595703 383.10595703 C-103.90595769 384.93504313 -105.94367493 386.88263918 -107.9921875 388.9921875 C-108.85457031 389.87003906 -109.71695313 390.74789063 -110.60546875 391.65234375 C-112.40245644 393.50119256 -114.19933242 395.35014996 -115.99609375 397.19921875 C-128.18832855 409.60949649 -128.18832855 409.60949649 -137.1875 409.875 C-138.00734375 409.91238281 -138.8271875 409.94976562 -139.671875 409.98828125 C-146.89213214 408.87668799 -151.90608304 403.53941207 -156.83203125 398.56640625 C-157.50546066 397.89584702 -158.17889008 397.22528778 -158.87272644 396.53440857 C-160.28561945 395.12354645 -161.69477366 393.70893114 -163.1003418 392.29077148 C-165.25048327 390.12451311 -167.41623167 387.97479086 -169.58398438 385.82617188 C-170.95929668 384.44887795 -172.33367851 383.07065414 -173.70703125 381.69140625 C-174.35283646 381.05167374 -174.99864166 380.41194122 -175.66401672 379.75282288 C-180.39308757 374.94895609 -182.70527099 371.14898492 -182.875 364.25 C-182.91496094 363.36699219 -182.95492187 362.48398437 -182.99609375 361.57421875 C-181.2361106 352.08507883 -172.73803096 345.50839188 -166.125 339.0625 C-165.08719232 338.03977061 -164.05007703 337.01633814 -163.01367188 335.9921875 C-160.49620922 333.5074712 -157.96952003 331.03239043 -155.4375 328.5625 C-156.69054649 324.71305088 -158.04162419 320.93899367 -159.5625 317.1875 C-159.91570312 316.31351562 -160.26890625 315.43953125 -160.6328125 314.5390625 C-160.89835937 313.88679688 -161.16390625 313.23453125 -161.4375 312.5625 C-162.54673828 312.55839111 -163.65597656 312.55428223 -164.79882812 312.55004883 C-168.94414705 312.52815214 -173.08853093 312.47375486 -177.23339844 312.40991211 C-179.02171821 312.38682347 -180.8101722 312.37235796 -182.59863281 312.36694336 C-185.18118038 312.3575863 -187.76164358 312.31645279 -190.34375 312.26953125 C-191.13366333 312.2734639 -191.92357666 312.27739655 -192.73742676 312.28144836 C-198.71441474 312.12700351 -202.90976296 310.52002476 -207.4375 306.5625 C-212.13110071 300.69131835 -212.02468581 295.26059401 -211.96875 287.93359375 C-211.9725769 286.82573013 -211.97640381 285.71786652 -211.98034668 284.57643127 C-211.98306005 282.24243253 -211.97573938 279.90840307 -211.95898438 277.57446289 C-211.9375477 274.00793576 -211.95881775 270.4434184 -211.984375 266.87695312 C-211.98173202 264.60416224 -211.97660767 262.33137259 -211.96875 260.05859375 C-211.97684692 258.9959581 -211.98494385 257.93332245 -211.99328613 256.83848572 C-211.91641344 250.75378486 -211.48660812 247.19906529 -207.4375 242.5625 C-201.72207287 237.14788483 -195.84567224 236.2687331 -188.1953125 236.1484375 C-187.04275467 236.11938828 -187.04275467 236.11938828 -185.86691284 236.0897522 C-183.43221862 236.03035883 -180.99747607 235.98373372 -178.5625 235.9375 C-176.90362614 235.89928307 -175.24477133 235.86022921 -173.5859375 235.8203125 C-169.53656206 235.72312749 -165.48736966 235.64324242 -161.4375 235.5625 C-158.4675 228.1375 -158.4675 228.1375 -155.4375 220.5625 C-161.3311684 213.64315973 -167.6627269 207.31269906 -174.20507812 201.00976562 C-174.97916016 200.24986328 -175.75324219 199.48996094 -176.55078125 198.70703125 C-177.24985596 198.03003174 -177.94893066 197.35303223 -178.66918945 196.65551758 C-181.82484692 192.92040071 -182.76854001 189.12785961 -182.9375 184.3125 C-183.01484375 183.00539062 -183.01484375 183.00539062 -183.09375 181.671875 C-181.04768754 171.97743622 -172.04437819 164.70439857 -165.26098633 157.99487305 C-163.49653337 156.24656509 -161.74877119 154.48270584 -160.00195312 152.71679688 C-158.86814858 151.58497392 -157.7334142 150.4540815 -156.59765625 149.32421875 C-156.08388931 148.80437912 -155.57012238 148.28453949 -155.04078674 147.74894714 C-150.09069976 142.89236042 -144.68841067 138.96299221 -137.50756836 138.48950195 C-128.39966395 138.81067938 -123.33891276 144.13021333 -117.40820312 150.40625 C-115.81715279 152.11600597 -114.23250739 153.83147902 -112.6496582 155.54882812 C-111.10002764 157.21886676 -109.52978295 158.86739092 -107.95703125 160.515625 C-107.49126175 161.03634583 -107.02549225 161.55706665 -106.54560852 162.09356689 C-105.04897552 163.73525307 -105.04897552 163.73525307 -102.4375 165.5625 C-98.32518905 165.39927289 -94.91031124 164.12487429 -91.125 162.5625 C-90.26261719 162.211875 -89.40023437 161.86125 -88.51171875 161.5 C-86.49097527 160.73368106 -86.49097527 160.73368106 -85.4375 159.5625 C-85.32667418 156.82275603 -85.27585746 154.10398623 -85.26171875 151.36328125 C-85.23850813 149.66209717 -85.2143903 147.96092527 -85.18945312 146.25976562 C-85.15441479 143.57161468 -85.12504464 140.88390753 -85.11157227 138.19555664 C-85.09604039 135.605079 -85.05578386 133.01591061 -85.01171875 130.42578125 C-85.01362717 129.6286824 -85.01553558 128.83158356 -85.01750183 128.0103302 C-84.90276005 122.74247386 -83.87779883 119.76713331 -80.4375 115.5625 C-75.73972042 111.22608808 -71.54081945 109.29228574 -65.13671875 109.3671875 C-63.67202148 109.37685547 -63.67202148 109.37685547 -62.17773438 109.38671875 C-60.66663086 109.41185547 -60.66663086 109.41185547 -59.125 109.4375 C-58.09826172 109.44652344 -57.07152344 109.45554687 -56.01367188 109.46484375 C-53.48804101 109.48833799 -50.9628919 109.52118869 -48.4375 109.5625 C-48.55351562 108.84191406 -48.66953125 108.12132813 -48.7890625 107.37890625 C-49.80292809 95.31390573 -44.98643462 85.66741199 -40.27929688 74.82958984 C-38.09739222 69.79594244 -35.98033723 64.7353362 -33.859375 59.67578125 C-30.24099378 51.05455227 -26.62104383 42.43394755 -22.94999695 33.8349762 C-20.93624763 29.11718362 -18.95322665 24.39010307 -17.02001953 19.63867188 C-16.62404068 18.67958923 -16.22806183 17.72050659 -15.82008362 16.73236084 C-15.06759701 14.90909759 -14.32581976 13.08136336 -13.5967865 11.24859619 C-10.81650217 4.56987462 -7.86042309 -0.01114954 0 0 Z M-0.4375 21.5625 C-2.11281673 25.49637538 -3.77625803 29.43516263 -5.4375 33.375 C-5.91445313 34.49455078 -6.39140625 35.61410156 -6.8828125 36.76757812 C-7.33398438 37.84072266 -7.78515625 38.91386719 -8.25 40.01953125 C-8.66894531 41.00928955 -9.08789062 41.99904785 -9.51953125 43.01879883 C-10.60722572 45.58209994 -10.60722572 45.58209994 -10.4375 48.5625 C-3.1775 48.5625 4.0825 48.5625 11.5625 48.5625 C10.304375 45.406875 9.04625 42.25125 7.75 39 C7.35965576 38.0195874 6.96931152 37.0391748 6.56713867 36.02905273 C4.62947565 31.17727046 2.64586177 26.35357487 0.5625 21.5625 C0.2325 21.5625 -0.0975 21.5625 -0.4375 21.5625 Z M-18.4375 64.5625 C-20.2525 68.790625 -22.0675 73.01875 -23.9375 77.375 C-24.79891602 79.3701062 -24.79891602 79.3701062 -25.67773438 81.40551758 C-26.12439453 82.45376709 -26.57105469 83.5020166 -27.03125 84.58203125 C-27.49208984 85.65557861 -27.95292969 86.72912598 -28.42773438 87.83520508 C-29.61110523 90.54668969 -29.61110523 90.54668969 -29.4375 93.5625 C-9.6375 93.5625 10.1625 93.5625 30.5625 93.5625 C24.74425822 78.98578979 24.74425822 78.98578979 18.5625 64.5625 C6.3525 64.5625 -5.8575 64.5625 -18.4375 64.5625 Z M-32.4375 109.5625 C-32.4375 196.6825 -32.4375 283.8025 -32.4375 373.5625 C-24.1875 373.5625 -15.9375 373.5625 -7.4375 373.5625 C-7.4375 286.4425 -7.4375 199.3225 -7.4375 109.5625 C-15.6875 109.5625 -23.9375 109.5625 -32.4375 109.5625 Z M-67.4375 125.5625 C-69.40335417 127.52835417 -68.62171545 131.34395071 -68.6484375 134.03515625 C-68.67653567 135.59050478 -68.70520028 137.14584316 -68.734375 138.70117188 C-68.77542593 141.15420935 -68.8123058 143.60706336 -68.83886719 146.06030273 C-68.86672295 148.42732206 -68.91262359 150.79347727 -68.9609375 153.16015625 C-68.96419037 153.88131119 -68.96744324 154.60246613 -68.97079468 155.34547424 C-69.09714034 160.66040238 -70.38448007 164.65690077 -72.4375 169.5625 C-72.7675 170.5525 -73.0975 171.5425 -73.4375 172.5625 C-75.00390625 173.5234375 -75.00390625 173.5234375 -77.4375 174.5625 C-78.00194824 174.8296582 -78.56639648 175.09681641 -79.14794922 175.37207031 C-88.16676141 179.63089085 -97.24883161 183.85319372 -107.4375 181.5625 C-111.79389385 178.94351084 -115.19607916 175.99459961 -118.6953125 172.32421875 C-119.65973929 171.32967362 -120.62459535 170.33554461 -121.58984375 169.34179688 C-123.08719068 167.78837971 -124.58023233 166.23132605 -126.06591797 164.66674805 C-127.51472123 163.1456705 -128.9785652 161.64047136 -130.4453125 160.13671875 C-131.30785645 159.23526123 -132.17040039 158.33380371 -133.05908203 157.4050293 C-135.21755825 155.33165818 -135.21755825 155.33165818 -137.57202148 155.61743164 C-140.7178305 157.21112706 -142.9700825 159.79048914 -145.375 162.3125 C-145.88740234 162.8384375 -146.39980469 163.364375 -146.92773438 163.90625 C-147.94712769 164.9528444 -148.96408648 166.00181594 -149.97851562 167.05322266 C-153.22396753 170.41054924 -156.47787677 173.6921299 -160.0625 176.6875 C-161.19570819 177.63611319 -162.32105741 178.59421093 -163.4375 179.5625 C-164.02273437 180.03429687 -164.60796875 180.50609375 -165.2109375 180.9921875 C-166.64380906 182.46606394 -166.64380906 182.46606394 -166.31445312 184.34643555 C-165.06656829 187.4998461 -163.0634728 189.2362191 -160.6328125 191.58984375 C-160.15302948 192.06063858 -159.67324646 192.53143341 -159.17892456 193.01649475 C-157.64709962 194.51835495 -156.10578424 196.00992416 -154.5625 197.5 C-153.02720578 198.9873012 -151.49433377 200.47680733 -149.96749878 201.97279358 C-148.57778554 203.33381535 -147.17996688 204.68654622 -145.78173828 206.03881836 C-141.099567 211.07939371 -139.15062858 215.58739387 -139.18530273 222.44042969 C-139.70281958 226.79498577 -141.61103803 230.74361636 -143.3125 234.75 C-143.67730469 235.63880859 -144.04210937 236.52761719 -144.41796875 237.44335938 C-145.40297482 239.82707407 -146.39631845 242.20278814 -147.4375 244.5625 C-147.75605957 245.29122314 -148.07461914 246.01994629 -148.40283203 246.77075195 C-149.88304144 249.33404994 -151.69189995 249.67017999 -154.4375 250.5625 C-155.4275 251.0575 -155.4275 251.0575 -156.4375 251.5625 C-159.26797223 251.70745126 -162.07773942 251.7967288 -164.91015625 251.84375 C-165.74840439 251.86215942 -166.58665253 251.88056885 -167.45030212 251.89953613 C-171.04559322 251.97837464 -174.64107436 252.04610156 -178.23657227 252.11474609 C-180.85703162 252.16634578 -183.47732336 252.22363706 -186.09765625 252.28125 C-186.91742447 252.29482544 -187.73719269 252.30840088 -188.58180237 252.3223877 C-192.31592891 252.05249943 -192.31592891 252.05249943 -195.4375 253.5625 C-195.52624135 256.66501201 -195.55268455 259.7451812 -195.53515625 262.84765625 C-195.5337413 263.77847519 -195.53232635 264.70929413 -195.53086853 265.6683197 C-195.52525172 268.65391191 -195.5126964 271.63943029 -195.5 274.625 C-195.49498716 276.64387913 -195.49042388 278.66275943 -195.48632812 280.68164062 C-195.47527683 285.64195572 -195.45800095 290.60221532 -195.4375 295.5625 C-194.38884766 295.57708252 -193.34019531 295.59166504 -192.25976562 295.60668945 C-188.33820918 295.66502633 -184.41720585 295.74225437 -180.49609375 295.82495117 C-178.80477939 295.85803509 -177.11335901 295.88611759 -175.421875 295.90893555 C-172.97871061 295.94278836 -170.53650345 295.99511508 -168.09375 296.05078125 C-167.34758423 296.05717117 -166.60141846 296.0635611 -165.8326416 296.07014465 C-159.64322456 296.24026966 -153.78154129 297.30721759 -149.16796875 301.74609375 C-147.01217265 305.25473706 -145.34484539 308.83420193 -143.75 312.625 C-143.44255859 313.33205078 -143.13511719 314.03910156 -142.81835938 314.76757812 C-139.84223587 321.70318322 -137.98839028 327.60395636 -140.71875 335.0625 C-144.40391064 342.15596325 -151.15306096 347.45051736 -156.90600586 352.87353516 C-158.49582537 354.37928109 -160.07046617 355.89969455 -161.64453125 357.421875 C-162.5878833 358.31358398 -163.53123535 359.20529297 -164.50317383 360.12402344 C-166.69954231 362.30554343 -166.69954231 362.30554343 -166.22039795 364.53161621 C-164.88317704 368.00044668 -162.05113813 370.31106115 -159.43359375 372.859375 C-158.83571548 373.45300842 -158.23783722 374.04664185 -157.62184143 374.65826416 C-155.71315898 376.55017195 -153.7943046 378.43137499 -151.875 380.3125 C-150.57809164 381.59436002 -149.28185922 382.8769043 -147.98632812 384.16015625 C-144.81117043 387.30226072 -141.62685054 390.43480539 -138.4375 393.5625 C-134.83597676 392.04418064 -132.59236007 389.92309147 -129.8828125 387.1328125 C-129.02042969 386.25496094 -128.15804687 385.37710937 -127.26953125 384.47265625 C-125.47254356 382.62380744 -123.67566758 380.77485004 -121.87890625 378.92578125 C-109.71776355 366.54715165 -109.71776355 366.54715165 -101.42578125 366.23828125 C-95.60105218 366.3102206 -90.87587138 368.39847421 -85.625 370.75 C-84.2337793 371.33104492 -84.2337793 371.33104492 -82.81445312 371.92382812 C-77.91869056 374.05932658 -74.15592876 375.74638605 -71.4375 380.5625 C-69.66097814 385.7957408 -69.10984894 390.44550252 -69.0234375 395.90234375 C-69.00407135 396.66930069 -68.9847052 397.43625763 -68.9647522 398.22645569 C-68.90547442 400.65086106 -68.85878089 403.07531528 -68.8125 405.5 C-68.77427238 407.15431638 -68.73521794 408.80861387 -68.6953125 410.46289062 C-68.59827553 414.49598957 -68.51829932 418.52891307 -68.4375 422.5625 C-61.8375 422.5625 -55.2375 422.5625 -48.4375 422.5625 C-48.4375 399.7925 -48.4375 377.0225 -48.4375 353.5625 C-53.7175 352.9025 -58.9975 352.2425 -64.4375 351.5625 C-87.23507367 345.07538554 -104.3417409 333.40298311 -116.57421875 313.0234375 C-121.08766988 304.63996224 -125.30213165 295.24637445 -124.4375 285.5625 C-122.8125 283.125 -122.8125 283.125 -120.4375 281.5625 C-117.4375 281.0625 -117.4375 281.0625 -114.4375 281.5625 C-110.78902001 284.48265818 -109.74651075 287.03053104 -108.625 291.5 C-103.55689869 308.97418713 -93.00098231 321.82375054 -77.24414062 330.62402344 C-67.4968856 335.68732726 -59.38397451 337.5625 -48.4375 337.5625 C-48.4375 330.6325 -48.4375 323.7025 -48.4375 316.5625 C-50.726875 316.005625 -53.01625 315.44875 -55.375 314.875 C-61.63777788 313.26078439 -67.033547 311.20068766 -72.4375 307.5625 C-73.30375 307.005625 -74.17 306.44875 -75.0625 305.875 C-83.79888599 297.36851891 -88.39801213 286.71534446 -88.75 274.5625 C-88.61131616 263.12878782 -84.35175476 252.98369089 -76.66015625 244.6328125 C-68.6219905 236.97271999 -59.2193521 234.10276459 -48.4375 232.5625 C-48.4375 225.3025 -48.4375 218.0425 -48.4375 210.5625 C-68.12679778 211.61259588 -83.3551328 219.54524066 -96.66015625 233.97265625 C-103.08963435 241.5558351 -107.08320454 249.93129132 -109.4375 259.5625 C-117.34002327 260.96401588 -117.34002327 260.96401588 -121 259.625 C-122.77437011 257.07916462 -123.05438539 255.05804932 -122.875 251.98046875 C-119.91273853 235.60868439 -107.17666253 219.57006114 -94.08203125 210.05859375 C-79.70400504 200.12021854 -66.24269279 197.79980778 -48.4375 194.5625 C-48.4375 171.7925 -48.4375 149.0225 -48.4375 125.5625 C-54.7075 125.5625 -60.9775 125.5625 -67.4375 125.5625 Z M48.5625 237.5625 C45.88673622 264.51375804 45.88673622 264.51375804 55.9375 281.3125 C63.05686121 287.41480961 70.47912148 289.80249144 79.91552734 289.8371582 C80.96339165 289.8448246 80.96339165 289.8448246 82.03242493 289.85264587 C84.32118514 289.86644372 86.60964087 289.86559247 88.8984375 289.86328125 C90.50355133 289.8671738 92.10866414 289.87150962 93.71377563 289.87626648 C97.07093653 289.88370779 100.42799223 289.8834528 103.78515625 289.87817383 C108.06758859 289.87238442 112.34958769 289.88930738 116.63194847 289.9125185 C119.94528685 289.92731744 123.25852239 289.92811916 126.57188797 289.92500877 C128.14979535 289.92551897 129.72770895 289.93069961 131.30558395 289.94082069 C143.04104617 290.00686178 153.47168975 289.54656687 162.37890625 280.7734375 C174.46435445 267.70399665 170.5625 257.65534501 170.5625 237.5625 C130.3025 237.5625 90.0425 237.5625 48.5625 237.5625 Z M-66.67578125 256.59375 C-71.06300892 261.49654988 -73.17775595 267.25076337 -73.6875 273.75 C-73.19684955 281.23241939 -70.68491327 288.09701242 -65.4375 293.5625 C-59.88655637 298.14172484 -55.86723677 298.91144738 -48.4375 300.5625 C-48.4375 283.4025 -48.4375 266.2425 -48.4375 248.5625 C-56.03658082 248.5625 -61.2368014 251.55013804 -66.67578125 256.59375 Z M90.5625 305.5625 C90.49464216 317.55002161 90.43963641 329.53741501 90.40706348 341.52508545 C90.39142776 347.09182895 90.37022758 352.65843389 90.33618164 358.22509766 C90.30351377 363.60026405 90.28563124 368.97529739 90.27786827 374.35055542 C90.27233811 376.39820448 90.26153908 378.44584651 90.24530983 380.49343872 C90.22343697 383.36817998 90.22053721 386.24237601 90.22192383 389.1171875 C90.211138 389.95804398 90.20035217 390.79890045 90.1892395 391.66523743 C90.22170949 397.91291476 91.26444014 403.40495356 95.03515625 408.5859375 C99.74263802 412.58787532 104.33983174 414.42573806 110.5625 414.5625 C116.21987106 413.58122148 120.61736449 410.69113019 124.5625 406.5625 C127.32140825 400.55531647 127.98716267 395.67251907 127.90307617 389.1171875 C127.90351425 388.20893723 127.90395233 387.30068695 127.90440369 386.36491394 C127.90232821 383.38888393 127.87905602 380.41343054 127.85546875 377.4375 C127.84986838 375.36385404 127.84560037 373.29020409 127.84260559 371.21655273 C127.83119158 365.77822774 127.80175408 360.34014591 127.76849365 354.9019165 C127.73771841 349.34480071 127.72408435 343.78764534 127.70898438 338.23046875 C127.67688099 327.34102221 127.62414124 316.45181944 127.5625 305.5625 C115.3525 305.5625 103.1425 305.5625 90.5625 305.5625 Z M-32.4375 389.5625 C-32.4375 399.1325 -32.4375 408.7025 -32.4375 418.5625 C-10.9875 418.5625 10.4625 418.5625 32.5625 418.5625 C32.5625 408.9925 32.5625 399.4225 32.5625 389.5625 C11.1125 389.5625 -10.3375 389.5625 -32.4375 389.5625 Z M-32.4375 434.5625 C-32.52 440.29625 -32.6025 446.03 -32.6875 451.9375 C-32.72391602 453.72591309 -32.76033203 455.51432617 -32.79785156 457.35693359 C-32.9528692 470.31130593 -30.78230417 479.97128112 -21.4375 489.5625 C-14.45791973 495.09756365 -6.01901917 498.14512629 2.9453125 497.3515625 C12.80061953 495.71416039 20.10917085 491.74780031 26.7734375 484.33203125 C33.4498195 473.99675867 33.04809229 464.34533524 32.8125 452.4375 C32.68875 443.589375 32.68875 443.589375 32.5625 434.5625 C11.1125 434.5625 -10.3375 434.5625 -32.4375 434.5625 Z " fill="#000000" transform="translate(268.4375,-0.5625)"/>
<path d="M0 0 C4.15874385 1.72433911 7.95301751 3.9424597 11.8125 6.25 C12.8967627 6.8795459 13.98102539 7.5090918 15.09814453 8.15771484 C17.32319925 9.45444195 19.54295606 10.7603024 21.75732422 12.07519531 C24.81734518 13.89157878 27.89203593 15.67978447 30.97265625 17.4609375 C32.77443548 18.51391918 34.5752712 19.5685176 36.375 20.625 C37.20620361 21.1087207 38.03740723 21.59244141 38.89379883 22.09082031 C39.65845459 22.54811523 40.42311035 23.00541016 41.2109375 23.4765625 C41.87399902 23.86924316 42.53706055 24.26192383 43.22021484 24.66650391 C46.31056237 26.98193301 47.78665287 29.35995861 49 33 C49.10752054 34.73179971 49.1587256 36.46735457 49.17700195 38.20239258 C49.19625481 39.79468437 49.19625481 39.79468437 49.21589661 41.41914368 C49.22328354 42.56602158 49.23067047 43.71289948 49.23828125 44.89453125 C49.246353 46.07464279 49.25442474 47.25475433 49.26274109 48.47062683 C49.27657914 50.96974214 49.28730254 53.46887633 49.29516602 55.96801758 C49.31238496 59.78698559 49.35627612 63.60508939 49.40039062 67.42382812 C49.41051705 69.85155613 49.41903331 72.2792915 49.42578125 74.70703125 C49.44328934 75.84783646 49.46079742 76.98864166 49.47883606 78.16401672 C49.46175369 84.41748836 49.26465208 88.2797374 45 93 C42.6796875 94.80859375 42.6796875 94.80859375 39.875 96.4375 C38.74707031 97.10007812 37.61914062 97.76265625 36.45703125 98.4453125 C35.78365723 98.83106445 35.1102832 99.21681641 34.41650391 99.61425781 C31.46067729 101.30927417 28.51798117 103.02630687 25.57421875 104.7421875 C20.99331478 107.4058592 16.40889664 110.06337486 11.81640625 112.70703125 C10.84131104 113.2688208 9.86621582 113.83061035 8.86157227 114.40942383 C2.55438229 117.91521196 -1.7738492 120.23834008 -9 119 C-11.37744141 117.91381836 -11.37744141 117.91381836 -13.9140625 116.46484375 C-15.35833618 115.64874634 -15.35833618 115.64874634 -16.83178711 114.81616211 C-17.87729736 114.21682861 -18.92280762 113.61749512 -20 113 C-21.71221071 112.04084092 -23.42443774 111.0817103 -25.13734436 110.12379456 C-27.547723 108.77175587 -29.95080583 107.40705419 -32.35327148 106.04101562 C-33.58015517 105.3446983 -34.8083582 104.6507007 -36.0378418 103.95898438 C-55.52682548 92.9920745 -55.52682548 92.9920745 -58 87 C-58.26069641 84.50930786 -58.26069641 84.50930786 -58.2746582 81.68408203 C-58.28419022 80.6226297 -58.29372223 79.56117737 -58.30354309 78.46755981 C-58.30263168 77.3258432 -58.30172028 76.18412659 -58.30078125 75.0078125 C-58.30506638 73.82911591 -58.3093515 72.65041931 -58.31376648 71.43600464 C-58.31950906 68.94285728 -58.32001058 66.44969317 -58.31567383 63.95654297 C-58.31251782 60.14651804 -58.33596144 56.33727246 -58.36132812 52.52734375 C-58.36360154 50.10416765 -58.36430442 47.68098945 -58.36328125 45.2578125 C-58.372491 44.12014435 -58.38170074 42.9824762 -58.39118958 41.81033325 C-58.35824271 36.16248978 -58.31717326 31.8169164 -55 27 C-52.77734375 25.19140625 -52.77734375 25.19140625 -49.9375 23.5625 C-48.79925781 22.89863281 -47.66101563 22.23476563 -46.48828125 21.55078125 C-45.46855225 20.97191162 -45.46855225 20.97191162 -44.42822266 20.38134766 C-41.4771307 18.70255434 -38.54164123 16.99771896 -35.60546875 15.29296875 C-30.00506313 12.04481571 -24.40180791 8.80181578 -18.77050781 5.60742188 C-17.14650532 4.66519132 -15.53759491 3.69410467 -13.97167969 2.65820312 C-9.32459804 -0.38284283 -5.37424808 -1.13363869 0 0 Z M-10.8671875 19.5625 C-11.8365625 20.11292969 -12.8059375 20.66335937 -13.8046875 21.23046875 C-15.32449219 22.10638672 -15.32449219 22.10638672 -16.875 23 C-17.84953125 23.55300781 -18.8240625 24.10601562 -19.828125 24.67578125 C-21.84245409 25.82569353 -23.84119688 27.00327384 -25.82470703 28.20556641 C-29 30 -29 30 -32.60888672 31.46240234 C-36.5834095 33.27346007 -39.08884785 34.72252926 -42 38 C-44.02687804 43.98899564 -43.70129838 50.40484667 -43.47509766 56.64550781 C-43.37488529 59.62841446 -43.39283224 62.59402686 -43.42578125 65.578125 C-43.63036568 74.94601239 -43.63036568 74.94601239 -40.34985352 83.41601562 C-37.97222452 85.04949704 -35.69800961 85.98335178 -33 87 C-30.91707216 88.16823324 -28.84873224 89.36272641 -26.79296875 90.578125 C-24.59325598 91.80587166 -22.39139597 93.02977842 -20.1875 94.25 C-19.06923828 94.87390625 -17.95097656 95.4978125 -16.79882812 96.140625 C-13.87108874 97.77046432 -10.94384405 99.3994313 -8 101 C-7.35353516 101.45665039 -6.70707031 101.91330078 -6.04101562 102.38378906 C-3.83534118 103.28075355 -3.83534118 103.28075355 -1.1184082 101.85351562 C-0.02359131 101.21091797 1.07122559 100.56832031 2.19921875 99.90625 C2.79370316 99.56251343 3.38818756 99.21877686 4.00068665 98.86462402 C5.90540927 97.75790684 7.79601402 96.62915908 9.6875 95.5 C10.94123644 94.76942286 12.19578677 94.04024051 13.45117188 93.3125 C15.89427079 91.89454164 18.3045934 90.43500971 20.7043457 88.94506836 C24 87 24 87 26.83276367 85.86938477 C29.79960849 84.55141359 31.13061427 83.68377435 33 81 C35.03156329 74.18868072 34.94256592 66.98382812 34.9375 59.9375 C34.94997772 58.46027969 34.94997772 58.46027969 34.96270752 56.95321655 C35.05268936 45.39736425 35.05268936 45.39736425 31.02685547 34.84277344 C26.04993765 30.22915585 20.20735239 27.98766941 13.80908203 25.96191406 C9.77921965 24.58196814 6.38882942 22.46133908 2.8125 20.1875 C-2.88563596 16.84578786 -5.08278861 16.26143868 -10.8671875 19.5625 Z " fill="#000000" transform="translate(141,11)"/>
<path d="M0 0 C2.09317994 2.77204911 3.06330837 4.74218687 4.25 7.9375 C6.70871792 14.52020296 9.96624804 19.09092935 16.3125 22.3125 C17.6385299 22.91225016 18.97164892 23.49666085 20.3125 24.0625 C24.86419928 26.07575161 27.77883748 27.67731487 30.3125 32.0625 C31.01274743 36.96423199 30.94611197 38.94821688 28.5 43.25 C25.30194061 46.63080564 21.17609952 48.06963135 16.96484375 49.8671875 C9.36593494 53.29173256 6.67846649 58.73941162 3.3125 66.0625 C-0.08448492 72.20320352 -0.08448492 72.20320352 -2.6875 74.0625 C-6.72621734 75.12933099 -8.99004495 75.31733934 -12.9375 73.875 C-18.4814551 70.22102959 -20.10837363 64.95009586 -22.6875 59.0625 C-25.73877422 52.34969673 -31.90429946 49.74693388 -38.4375 47.0625 C-42.32162155 45.3720015 -44.66067533 43.93990372 -46.6875 40.0625 C-47.38262392 35.19663255 -47.29927636 33.17680693 -44.9375 28.875 C-41.56364759 25.30668924 -37.03455977 23.84575086 -32.52734375 22.140625 C-27.92286031 20.64838269 -27.92286031 20.64838269 -24.65234375 17.37890625 C-24.33394531 16.61449219 -24.01554687 15.85007812 -23.6875 15.0625 C-22.54633343 12.70592228 -21.40038336 10.3520577 -20.25 8 C-19.95029297 7.37544922 -19.65058594 6.75089844 -19.34179688 6.10742188 C-15.83695331 -1.01630573 -15.83695331 -1.01630573 -11.9375 -2.6875 C-7.26796092 -3.20633768 -3.84750426 -2.77378214 0 0 Z M-8.6875 22.0625 C-9.03941406 22.58199219 -9.39132812 23.10148437 -9.75390625 23.63671875 C-12.37901462 27.34477 -14.77831751 30.37103815 -18.5625 32.9375 C-19.59375 33.63875 -20.625 34.34 -21.6875 35.0625 C-21.6875 35.7225 -21.6875 36.3825 -21.6875 37.0625 C-20.06048218 38.40188366 -20.06048218 38.40188366 -18 39.75 C-13.86305202 42.72595725 -11.42365941 45.78725092 -8.6875 50.0625 C-8.048125 49.4025 -7.40875 48.7425 -6.75 48.0625 C-2.9045765 44.20596256 1.22174419 40.65416578 5.3125 37.0625 C4.18813746 33.68941239 3.23907267 32.91126903 0.5625 30.6875 C-2.68418841 27.93715784 -5.72655179 25.11597784 -8.6875 22.0625 Z " fill="#000000" transform="translate(365.6875,13.9375)"/>
<path d="M0 0 C5.57175765 4.34839347 9.60360801 10.73734979 10.921875 17.71484375 C11.87865022 27.53355336 9.90662978 35.37130294 3.671875 43.08984375 C-1.26759049 48.34798443 -7.36394762 51.32880088 -14.55859375 51.91796875 C-24.89161468 52.09689552 -31.53681471 50.10084984 -39.12890625 42.90625 C-44.74803758 36.58895004 -46.41062801 29.64579841 -46.2890625 21.3671875 C-45.6753951 13.65088819 -42.44342413 7.24931898 -37.078125 1.71484375 C-25.76513004 -7.34474978 -12.1923976 -7.54003536 0 0 Z M-27.078125 14.71484375 C-29.55498729 18.1205294 -30.31876909 20.64992036 -30.015625 24.77734375 C-29.20036132 29.41194052 -27.07746844 32.26704333 -23.265625 35.02734375 C-18.6124789 36.4897611 -15.18190061 36.26673155 -10.828125 34.08984375 C-7.69864212 31.38710853 -6.36327014 29.64587595 -5.078125 25.71484375 C-4.78033495 21.12165786 -5.48380917 18.45372289 -8.390625 14.83984375 C-11.46978541 12.40515877 -13.51671377 10.96804557 -17.390625 10.33984375 C-21.18590391 10.86941755 -24.11227601 12.36261869 -27.078125 14.71484375 Z " fill="#000000" transform="translate(154.078125,47.28515625)"/>
<path d="M0 0 C2.67431489 1.81163267 2.95920359 2.87761077 4 6 C4.0685495 7.89470816 4.08480372 9.7916834 4.0625 11.6875 C4.05347656 12.68136719 4.04445313 13.67523438 4.03515625 14.69921875 C4.02355469 15.45847656 4.01195312 16.21773437 4 17 C5.35544922 16.94779297 5.35544922 16.94779297 6.73828125 16.89453125 C7.91777344 16.86746094 9.09726562 16.84039062 10.3125 16.8125 C11.48425781 16.77769531 12.65601563 16.74289063 13.86328125 16.70703125 C17 17 17 17 18.8671875 18.36328125 C20.42487726 20.61387438 20.80499762 22.2699667 21 25 C20.0638375 28.09653751 19.29576678 29.70423322 17 32 C13.9609375 32.1953125 13.9609375 32.1953125 10.375 32.125 C8.59222656 32.09792969 8.59222656 32.09792969 6.7734375 32.0703125 C5.40058594 32.03550781 5.40058594 32.03550781 4 32 C4.05220703 33.10408203 4.05220703 33.10408203 4.10546875 34.23046875 C4.37509588 43.94988494 4.37509588 43.94988494 1 48 C-0.8503199 49.8503199 -3.42472082 49.29140132 -5.89453125 49.42578125 C-9.03060663 48.79158419 -10.12871289 47.56312154 -12 45 C-12.390625 41.765625 -12.390625 41.765625 -12.25 38.25 C-12.21390625 37.07953125 -12.1778125 35.9090625 -12.140625 34.703125 C-12.09421875 33.81109375 -12.0478125 32.9190625 -12 32 C-12.89203125 32.04640625 -13.7840625 32.0928125 -14.703125 32.140625 C-15.87359375 32.17671875 -17.0440625 32.2128125 -18.25 32.25 C-19.41015625 32.29640625 -20.5703125 32.3428125 -21.765625 32.390625 C-25 32 -25 32 -27.390625 30.203125 C-29.7309759 26.99934366 -29.55235041 24.86645287 -29 21 C-27.390625 18.796875 -27.390625 18.796875 -25 17 C-21.765625 16.609375 -21.765625 16.609375 -18.25 16.75 C-17.07953125 16.78609375 -15.9090625 16.8221875 -14.703125 16.859375 C-13.81109375 16.90578125 -12.9190625 16.9521875 -12 17 C-12.04640625 16.10796875 -12.0928125 15.2159375 -12.140625 14.296875 C-12.19476563 12.54117188 -12.19476563 12.54117188 -12.25 10.75 C-12.29640625 9.58984375 -12.3428125 8.4296875 -12.390625 7.234375 C-12 4 -12 4 -10.23828125 1.60546875 C-6.59967801 -1.00441944 -4.40274494 -0.48919388 0 0 Z " fill="#000000" transform="translate(429,65)"/>
<path d="M0 0 C2.74643199 2.08708006 3.8623342 3.28147541 4.51757812 6.70141602 C4.52208984 7.70873779 4.52660156 8.71605957 4.53125 9.75390625 C4.53640625 10.85541016 4.5415625 11.95691406 4.546875 13.09179688 C4.53140625 14.23712891 4.5159375 15.38246094 4.5 16.5625 C4.51546875 17.71169922 4.5309375 18.86089844 4.546875 20.04492188 C4.54171875 21.14513672 4.5365625 22.24535156 4.53125 23.37890625 C4.52673828 24.3851001 4.52222656 25.39129395 4.51757812 26.42797852 C4 29 4 29 2.09399414 30.82641602 C-1.45228008 32.81393382 -3.97453743 32.38337739 -8 32 C-10.40782558 30.52423593 -10.84581899 29.58849372 -11.5546875 26.8828125 C-12.11290202 23.26910798 -12.18411382 19.7094125 -12.1875 16.0625 C-12.19974609 15.37220703 -12.21199219 14.68191406 -12.22460938 13.97070312 C-12.23703514 9.60097504 -11.79409246 5.99945529 -10 2 C-6.2794164 -0.48038907 -4.40203429 -0.46337203 0 0 Z " fill="#000000" transform="translate(381,369)"/>
</svg>
