<?xml version="1.0" encoding="UTF-8"?>
<svg version="1.1" xmlns="http://www.w3.org/2000/svg" width="512" height="512">
<path d="M0 0 C0.7762114 -0.00382555 1.55242279 -0.00765109 2.35215575 -0.01159257 C4.93752308 -0.0218619 7.52266581 -0.01794204 10.10804749 -0.01396179 C11.96799931 -0.0183116 13.82794935 -0.02349565 15.68789673 -0.02944946 C20.72920115 -0.04282111 25.77043052 -0.04342022 30.81174922 -0.04088616 C35.0239839 -0.0398153 39.23620346 -0.04470272 43.44843489 -0.04949158 C53.38706729 -0.06058023 63.32566189 -0.06102765 73.26429749 -0.05497742 C83.51002548 -0.04893607 93.7556162 -0.06125423 104.00132078 -0.08254749 C112.80576926 -0.10017118 121.61017407 -0.10616366 130.41463953 -0.10290974 C135.66973356 -0.10109812 140.92472964 -0.10372115 146.17980766 -0.11762428 C151.121889 -0.13021061 156.06375648 -0.12825084 161.00583458 -0.11521339 C162.8166079 -0.1128499 164.6273963 -0.11557414 166.43815231 -0.12383652 C168.91596476 -0.13432499 171.39306236 -0.12618687 173.87084961 -0.11352539 C174.93765352 -0.12458682 174.93765352 -0.12458682 176.02600902 -0.13587171 C183.66018339 -0.05417973 190.25979656 2.4984883 195.87391663 7.66304016 C199.28627351 11.83439554 201.62953844 16.55216197 204.15785217 21.29341125 C218.08430253 47.20688577 241.1520377 64.63913245 267.39344788 76.83882141 C274.5875009 80.20964774 280.08120425 83.31729349 283.04962158 90.96916199 C284.04576489 94.42313555 284.25892006 97.24365809 284.27357483 100.83149719 C284.28310684 102.12210052 284.29263885 103.41270386 284.30245972 104.74241638 C284.30219768 106.1469475 284.30125769 107.55147863 284.29969788 108.95600891 C284.30359734 110.4273541 284.30793452 111.8986982 284.31268311 113.37004089 C284.3201431 116.46513997 284.319863 119.56012514 284.31459045 122.65522766 C284.31002094 125.76963483 284.31663584 128.88364588 284.33509827 131.9980011 C284.48104329 156.84868741 283.67404208 181.50262601 278.31141663 205.88569641 C278.05650452 207.07260071 277.80159241 208.259505 277.53895569 209.4823761 C265.95684304 261.58112654 241.3183298 310.26503694 205.99891663 350.26069641 C205.2538385 351.10503235 204.50876038 351.94936829 203.74110413 352.81929016 C201.51153893 355.31656301 199.2582059 357.79029322 196.99891663 360.26069641 C196.01699506 361.34779986 195.03523336 362.43504773 194.05360413 363.52241516 C189.26385914 368.80200327 184.51386011 373.95842332 179.03407288 378.53804016 C176.57398162 380.62038228 174.23388875 382.81561317 171.87391663 385.01069641 C165.51950442 390.78981204 158.85283156 396.08776909 151.99891663 401.26069641 C151.32473694 401.77003723 150.65055725 402.27937805 149.95594788 402.80415344 C103.1061275 437.95234355 103.1061275 437.95234355 84.57313538 437.79585266 C77.3578259 436.71552764 71.27022427 432.81485383 64.99891663 429.26069641 C63.26641663 428.32483704 63.26641663 428.32483704 61.49891663 427.37007141 C47.26788765 419.5298286 33.80052625 410.24897295 20.99891663 400.26069641 C20.18680725 399.63034485 19.37469788 398.99999329 18.53797913 398.35054016 C8.16644431 390.17750221 -1.77523566 381.50601368 -11.43858337 372.51069641 C-12.08843201 371.90926819 -12.73828064 371.30783997 -13.40782166 370.68818665 C-17.32289741 367.00982472 -20.92433529 363.16762999 -24.42222595 359.09126282 C-26.42341793 356.77103127 -28.5256188 354.55354837 -30.62608337 352.32319641 C-80.90160377 297.15021285 -109.88786356 221.67652733 -110.23936462 147.31147766 C-110.24344015 146.57246908 -110.24751568 145.8334605 -110.25171471 145.07205772 C-110.27238341 141.17131729 -110.28677489 137.27061018 -110.29624939 133.36982727 C-110.30736667 129.36883112 -110.34188197 125.36838289 -110.38142109 121.36758137 C-110.40765685 118.26100695 -110.41594658 115.15456324 -110.41953087 112.0478878 C-110.42436667 110.57322103 -110.4358937 109.0985589 -110.45456886 107.62400246 C-110.55985082 98.77264239 -110.61047017 90.44270083 -104.42359924 83.48724365 C-99.96336321 79.17639118 -94.41822471 76.86107547 -88.81358337 74.38569641 C-80.62553161 70.62359943 -73.23238433 66.68139513 -66.00108337 61.26069641 C-64.78872009 60.37897766 -64.78872009 60.37897766 -63.55186462 59.47944641 C-49.32853602 48.66880051 -38.07117423 35.77551228 -29.63658142 20.05757141 C-25.30609937 12.01298639 -20.99653029 4.3001329 -11.85515499 1.19056416 C-7.82935776 0.21926435 -4.10982643 -0.02177129 0 0 Z M-12.00108337 21.26069641 C-13.2467495 23.02716919 -13.2467495 23.02716919 -14.10655212 24.79194641 C-14.4447699 25.43099915 -14.78298767 26.07005188 -15.13145447 26.72846985 C-15.48030701 27.39910461 -15.82915955 28.06973938 -16.18858337 28.76069641 C-20.42712138 36.56617939 -25.27053014 43.4856898 -31.00108337 50.26069641 C-31.4367865 50.77616028 -31.87248962 51.29162415 -32.32139587 51.82270813 C-38.86320691 59.45721202 -45.9554286 66.19656171 -54.00108337 72.26069641 C-54.53620544 72.66497864 -55.07132751 73.06926086 -55.62266541 73.48579407 C-64.57516302 80.11542467 -74.09313436 84.93243106 -84.32066345 89.33076477 C-85.27223328 89.75623596 -86.2238031 90.18170715 -87.20420837 90.62007141 C-88.48279724 91.16872864 -88.48279724 91.16872864 -89.78721619 91.72846985 C-92.91273348 93.89165319 -93.73236705 95.67136142 -95.00108337 99.26069641 C-95.40473196 102.59909442 -95.39758741 105.89739349 -95.36436462 109.25679016 C-95.36581482 110.22981079 -95.36726501 111.20283142 -95.36875916 112.20533752 C-95.36750314 115.36994248 -95.3423212 118.53372942 -95.31358337 121.69819641 C-95.30765167 122.77936737 -95.30171997 123.86053833 -95.29560852 124.97447205 C-95.0901473 161.76634207 -92.10462259 196.96338624 -81.00108337 232.26069641 C-80.73070251 233.12952454 -80.46032166 233.99835266 -80.18174744 234.89350891 C-69.20955804 269.59624747 -50.78681174 301.98302326 -28.00108337 330.26069641 C-26.91633728 331.63354797 -26.91633728 331.63354797 -25.80967712 333.03413391 C-13.36470697 348.57364941 0.69453235 363.84351627 16.35047913 376.17085266 C19.15186867 378.38138866 21.85081395 380.68997494 24.56141663 383.01069641 C37.1353291 393.47543647 50.58133659 402.66046522 64.69618225 410.91255188 C66.28273053 411.84140256 67.86451192 412.77842757 69.442276 413.72212219 C71.86743606 415.17024278 74.30549902 416.5936446 76.74891663 418.01069641 C77.48754944 418.45373108 78.22618225 418.89676575 78.98719788 419.35322571 C79.68715881 419.75065979 80.38711975 420.14809387 81.10829163 420.55757141 C81.71640686 420.91174133 82.32452209 421.26591125 82.95106506 421.6308136 C86.72953646 422.79300437 89.98711702 421.71131577 93.50575256 420.14424133 C94.32334045 419.6812262 95.14092834 419.21821106 95.98329163 418.74116516 C96.9093219 418.21973938 97.83535217 417.6983136 98.78944397 417.16108704 C99.76606995 416.59583313 100.74269592 416.03057922 101.74891663 415.44819641 C103.27766418 414.57131165 103.27766418 414.57131165 104.83729553 413.67671204 C139.4915869 393.5831839 173.21588472 366.93759986 197.99891663 335.26069641 C198.90225858 334.16714183 199.80869137 333.07613552 200.71766663 331.98725891 C209.30426303 321.62486665 216.77362756 310.60528138 223.99891663 299.26069641 C224.460401 298.53656555 224.92188538 297.81243469 225.39735413 297.06636047 C251.2019793 256.07219458 266.31585336 207.14169476 268.54579163 158.75679016 C268.58742432 157.85859055 268.62905701 156.96039093 268.67195129 156.03497314 C269.10732441 145.85858973 269.22018938 135.68300707 269.239151 125.49824524 C269.24906906 122.2736373 269.28033978 119.04961485 269.31141663 115.82514954 C269.31793063 113.7528876 269.32318734 111.68062125 269.32704163 109.60835266 C269.34556183 108.17870934 269.34556183 108.17870934 269.36445618 106.72018433 C269.34699345 101.52540499 269.10474621 97.64791952 265.99891663 93.26069641 C263.76309724 91.60634231 263.76309724 91.60634231 261.09657288 90.54975891 C260.12937317 90.11381409 259.16217346 89.67786926 258.16566467 89.22871399 C257.14126282 88.78551819 256.11686096 88.34232239 255.06141663 87.88569641 C246.43452047 83.95904938 238.57059219 80.01374347 230.99891663 74.26069641 C230.14684631 73.61616516 229.294776 72.97163391 228.41688538 72.30757141 C225.897776 70.34181479 223.44092308 68.32126224 220.99891663 66.26069641 C220.18809631 65.58522766 219.377276 64.90975891 218.54188538 64.21382141 C204.33778992 51.95579888 194.51551381 36.86556282 185.50672913 20.58882141 C184.05690203 18.01274668 184.05690203 18.01274668 180.99891663 16.26069641 C178.47445923 16.06122282 176.05966241 15.97806428 173.53459167 15.98654175 C172.76784839 15.98130507 172.0011051 15.97606839 171.21112716 15.97067302 C168.63399035 15.95563436 166.0570514 15.95496703 163.47987366 15.95429993 C161.63534712 15.94668106 159.79082377 15.93825403 157.94630432 15.92907715 C152.92977122 15.90709887 147.91329908 15.89832882 142.89672327 15.8932507 C139.76406153 15.88961118 136.63141585 15.88337325 133.49876022 15.87624931 C122.57416327 15.85174363 111.64961388 15.83870042 100.72499084 15.8351593 C90.53487684 15.83152275 80.3450638 15.80162164 70.15504181 15.75975472 C61.41186522 15.72508909 52.66878854 15.70961151 43.92554367 15.70891327 C38.70113821 15.7081192 33.4770392 15.69932123 28.25270462 15.6709156 C23.33931038 15.6447987 18.42647804 15.64249401 13.51304626 15.65857124 C11.70906731 15.6603908 9.90505652 15.65364942 8.1011467 15.63775253 C5.63916462 15.61737805 3.17916453 15.62779102 0.71720886 15.64596558 C-0.35512271 15.62616562 -0.35512271 15.62616562 -1.44911754 15.60596567 C-6.66080677 15.69391916 -8.76710649 17.28390208 -12.00108337 21.26069641 Z " fill="#000000" transform="translate(169.00108337402344,32.73930358886719)"/>
<path d="M0 0 C1.04800781 0.90685547 1.04800781 0.90685547 2.1171875 1.83203125 C14.40448269 13.18702194 22.37307903 30.56968439 23.09967041 47.29418945 C23.24570874 53.75861125 23.18242974 60.22231973 23.125 66.6875 C23.11495115 68.66080276 23.10582867 70.63411046 23.09765625 72.60742188 C23.07579134 77.40507165 23.04136616 82.20248036 23 87 C23.95261719 86.98549805 24.90523437 86.97099609 25.88671875 86.95605469 C27.14097656 86.94477539 28.39523437 86.93349609 29.6875 86.921875 C30.92886719 86.90737305 32.17023438 86.89287109 33.44921875 86.87792969 C40.48955366 87.1199654 46.59033734 89.45096549 52 94 C55.72904462 98.99227112 58.11195124 103.37614742 58.15390015 109.69728088 C58.16250061 110.66299515 58.17110107 111.62870941 58.17996216 112.62368774 C58.18635208 114.21097183 58.18635208 114.21097183 58.19287109 115.83032227 C58.20513733 117.50400627 58.20513733 117.50400627 58.21765137 119.21150208 C58.24251178 122.91313134 58.25902536 126.61472216 58.2734375 130.31640625 C58.27876118 131.58095076 58.28408485 132.84549526 58.28956985 134.1483593 C58.31080299 139.46618006 58.32993113 144.7839874 58.34119225 150.10183811 C58.35740064 157.70449162 58.39050117 165.30663157 58.44759309 172.90909153 C58.4911158 178.91105931 58.50695295 184.91279518 58.51332474 190.91493034 C58.52003049 193.46054675 58.53523472 196.00615589 58.55921555 198.55166817 C58.59093234 202.12281039 58.59089285 205.69266917 58.58349609 209.26391602 C58.59990143 210.30793579 58.61630676 211.35195557 58.63320923 212.4276123 C58.56823947 220.12428725 56.74099733 226.69924249 51.59261131 232.61797428 C45.88862026 237.7464186 39.96266726 239.37439296 32.4924469 239.38095093 C31.76932168 239.3856309 31.04619647 239.39031087 30.30115837 239.39513266 C27.89532454 239.40703054 25.49006586 239.39764619 23.08422852 239.38818359 C21.35235259 239.39225166 19.62047927 239.39759485 17.88861084 239.40411377 C13.1964241 239.41776627 8.50443572 239.41249698 3.81224561 239.40297651 C-1.10475359 239.39536801 -6.02173608 239.40242895 -10.93873596 239.40713501 C-19.19624878 239.4125896 -27.45368105 239.40540925 -35.71118164 239.39111328 C-45.24801133 239.37479276 -54.78464853 239.38007214 -64.32147354 239.3965925 C-72.51871618 239.41022225 -80.715901 239.41211958 -88.91315132 239.40427649 C-93.80494563 239.39960747 -98.69664959 239.39895379 -103.58843803 239.40888596 C-108.18909554 239.41757482 -112.78950582 239.41149869 -117.39013672 239.39420319 C-119.07512566 239.39024835 -120.76013553 239.39135515 -122.44511604 239.39799118 C-140.26428821 239.46167959 -140.26428821 239.46167959 -147.20703125 234.38671875 C-155.31261634 225.80781482 -156.14803138 217.96242997 -156.16113281 206.56347656 C-156.16609772 205.52527771 -156.17106262 204.48707886 -156.17617798 203.41741943 C-156.19075112 199.99181448 -156.19759354 196.56625583 -156.203125 193.140625 C-156.20888044 190.75177001 -156.21463812 188.36291503 -156.22039795 185.97406006 C-156.23089415 180.96740505 -156.23674586 175.96076602 -156.24023438 170.95410156 C-156.24571614 164.55423946 -156.2697435 158.15459042 -156.29820633 151.75479507 C-156.316875 146.8201232 -156.32204057 141.88550223 -156.32357025 136.95079803 C-156.32658774 134.59220973 -156.33458556 132.23362213 -156.34775543 129.87506866 C-156.36490412 126.56791693 -156.36291398 123.26128032 -156.35644531 119.95410156 C-156.3656601 118.98960083 -156.37487488 118.0251001 -156.3843689 117.03137207 C-156.32677984 107.58197589 -154.53153735 99.56596524 -147.8984375 92.625 C-141.80327559 87.40774207 -134.42070095 86.86522709 -126.6875 86.9375 C-125.43324219 86.94652344 -124.17898437 86.95554687 -122.88671875 86.96484375 C-121.93410156 86.97644531 -120.98148438 86.98804688 -120 87 C-120.00888245 86.45479706 -120.01776489 85.90959412 -120.0269165 85.34786987 C-120.11634018 79.60392896 -120.17612198 73.86018994 -120.21972656 68.11572266 C-120.23967547 65.98022411 -120.26684458 63.84477898 -120.30175781 61.70947266 C-120.49640313 49.48689188 -120.55512046 38.52286696 -116 27 C-115.72269043 26.27490234 -115.44538086 25.54980469 -115.15966797 24.80273438 C-107.14085284 5.45932583 -91.92386979 -7.14750597 -73 -15 C-69.36145573 -16.30302267 -65.79536328 -17.28262116 -62 -18 C-61.31550781 -18.14050781 -60.63101563 -18.28101562 -59.92578125 -18.42578125 C-38.16761414 -21.86564386 -16.22466163 -14.43719891 0 0 Z M-92 17 C-108.7776792 37.41455853 -105 60.86572677 -105 87 C-68.04 87 -31.08 87 7 87 C8.83723595 45.69135519 8.83723595 45.69135519 -9 13 C-20.17777753 2.22347602 -33.53597598 -2.89248291 -48.875 -3.3125 C-66.47950533 -2.98860759 -80.16373009 4.42506243 -92 17 Z M-139 107 C-140.17038277 109.34076554 -140.13562326 110.73583344 -140.15390015 113.34492493 C-140.16250061 114.25759125 -140.17110107 115.17025757 -140.17996216 116.11058044 C-140.18422211 117.11476517 -140.18848206 118.11894989 -140.19287109 119.15356445 C-140.20104858 120.20896423 -140.20922607 121.26436401 -140.21765137 122.35174561 C-140.2425298 125.85558499 -140.25902684 129.35938382 -140.2734375 132.86328125 C-140.27876118 134.05775564 -140.28408485 135.25223003 -140.28956985 136.48290062 C-140.31631084 142.8039422 -140.33568358 149.12496395 -140.35009766 155.44604492 C-140.36675648 161.98341501 -140.41154262 168.52028205 -140.4624691 175.05746174 C-140.49608088 180.07686459 -140.50766844 185.09614711 -140.51332474 190.11565208 C-140.52005293 192.52584876 -140.53531533 194.93603709 -140.55921555 197.34612465 C-140.59074115 200.71725421 -140.59092229 204.08701443 -140.58349609 207.45825195 C-140.6081041 208.95542 -140.6081041 208.95542 -140.63320923 210.48283386 C-140.59153348 215.09769099 -140.51951067 217.29647329 -137.71353149 221.09635925 C-133.28436764 224.20357832 -129.64097716 224.12627876 -124.28858948 224.13371277 C-123.61491347 224.13597833 -122.94123746 224.13824388 -122.24714702 224.14057809 C-119.99100048 224.14690548 -117.7349142 224.14608954 -115.47875977 224.14526367 C-113.86068647 224.14825592 -112.24261388 224.1516586 -110.62454224 224.15544128 C-106.22995162 224.16427807 -101.83538047 224.16661924 -97.44078183 224.16725707 C-93.77270583 224.16820656 -90.10463435 224.17188525 -86.43656009 224.17542917 C-77.78346937 224.18357225 -69.13038904 224.18601351 -60.47729492 224.18530273 C-51.54887652 224.18470173 -42.62051849 224.19525835 -33.69211537 224.2110464 C-26.02747359 224.22411715 -18.36285157 224.22948684 -10.69819874 224.22884732 C-6.1200164 224.22859223 -1.54188774 224.23144975 3.03628349 224.24202538 C7.34135511 224.2516987 11.64632165 224.2517908 15.95139694 224.24450874 C17.53122041 224.243462 19.11105038 224.24583111 20.69086266 224.2518692 C22.84790094 224.25957943 25.00457546 224.25495097 27.16160583 224.24723816 C28.36856833 224.24778293 29.57553083 224.24832769 30.81906796 224.24888897 C34.76782109 223.93992258 37.6777218 223.08615709 40.75 220.5625 C42.98429919 217.76962601 43.12619855 215.1170223 43.13371277 211.68667603 C43.13797775 210.80629166 43.14224274 209.92590729 43.14663696 209.0188446 C43.14618378 208.05565811 43.14573059 207.09247162 43.14526367 206.10009766 C43.14862228 205.08356613 43.1519809 204.06703461 43.15544128 203.0196991 C43.16495909 199.65114122 43.16689483 196.282633 43.16796875 192.9140625 C43.1711808 190.57620218 43.17454483 188.23834207 43.17805481 185.90048218 C43.18404819 180.99615004 43.1858945 176.09183554 43.18530273 171.1875 C43.18520111 164.90032689 43.19885272 158.61326671 43.21607494 152.32612038 C43.22718859 147.49630208 43.22922213 142.66651114 43.22869301 137.83668137 C43.22987411 135.51862575 43.23430313 133.20056945 43.24202538 130.8825264 C43.25181211 127.64116742 43.24895228 124.40005426 43.24291992 121.15869141 C43.24853943 120.19955338 43.25415894 119.24041534 43.25994873 118.25221252 C43.29526947 111.86307342 43.29526947 111.86307342 41 106 C37.54112864 102.61834491 34.74575623 102.62144459 30.01611328 102.61231995 C28.96166362 102.60424164 28.96166362 102.60424164 27.88591194 102.59600013 C25.53053402 102.58169318 23.17571594 102.58883072 20.8203125 102.59594727 C19.13164823 102.59024516 17.44298781 102.58328152 15.7543335 102.57514954 C11.16761576 102.55718656 6.58108899 102.55839224 1.99434662 102.56409192 C-1.83289663 102.56717886 -5.66010293 102.56109693 -9.48734093 102.55505317 C-18.51437825 102.54099961 -27.54132094 102.5425765 -36.56835938 102.55395508 C-45.88655452 102.56544097 -55.20446201 102.55135463 -64.52261925 102.5245586 C-72.51931984 102.50242218 -80.51593 102.49575946 -88.51265907 102.50163502 C-93.29039014 102.50501028 -98.06793674 102.50255172 -102.84564209 102.48538399 C-107.337141 102.46994935 -111.8282127 102.47383142 -116.31969452 102.49268913 C-117.96927558 102.49638452 -119.61888806 102.49323896 -121.26844025 102.48280334 C-123.51816111 102.46965596 -125.7664545 102.48108318 -128.01611328 102.49879456 C-129.27561798 102.49900384 -130.53512268 102.49921312 -131.83279419 102.49942875 C-135.57186239 103.09038183 -136.71114511 104.05283111 -139 107 Z " fill="#000000" transform="translate(305,94)"/>
<path d="M0 0 C1.04658028 -0.00779995 2.09316055 -0.01559991 3.17145538 -0.02363622 C6.66609769 -0.04352397 10.15964716 -0.02780323 13.65429688 -0.01205444 C16.16463861 -0.01883194 18.67497538 -0.0277358 21.18530273 -0.03860474 C27.28844911 -0.05902392 33.39119314 -0.05605393 39.49434471 -0.04154153 C44.45597225 -0.03023357 49.41751366 -0.02872509 54.37915039 -0.03416061 C55.08624917 -0.03492678 55.79334794 -0.03569294 56.52187395 -0.03648233 C57.95848785 -0.03808101 59.39510173 -0.03970208 60.83171558 -0.04134528 C74.29188762 -0.05559116 87.75188919 -0.03922837 101.21203327 -0.01234345 C112.75276898 0.00999434 124.2932532 0.00611388 135.83398438 -0.01693726 C149.24712003 -0.04371587 162.66010642 -0.05421798 176.07326508 -0.03887594 C177.50449115 -0.03728325 178.93571724 -0.0357114 180.36694336 -0.03416061 C181.07106999 -0.03338924 181.77519662 -0.03261786 182.50066042 -0.03182311 C187.45433426 -0.02751227 192.40791314 -0.03477931 197.36157227 -0.04655838 C204.03315885 -0.06207424 210.70419804 -0.05097289 217.37576294 -0.0220871 C219.82348848 -0.01547866 222.27125401 -0.01736972 224.71896362 -0.02840042 C228.06187869 -0.04207588 231.40327528 -0.02491336 234.74609375 0 C235.71341682 -0.01115361 236.6807399 -0.02230722 237.67737579 -0.03379881 C244.09130077 0.05884038 248.43144494 1.46278542 253.37304688 5.63491821 C257.6913722 10.35468445 258.9013965 15.48367938 260.18554688 21.63491821 C262.85091364 34.35808781 268.61881464 45.96431869 277.37304688 55.63491821 C278.22576172 56.62491821 278.22576172 56.62491821 279.09570312 57.63491821 C292.18341379 71.86189881 311.92420911 80.00876818 330.74804688 82.57241821 C337.5500405 83.60632124 342.03704625 86.17597019 346.74804688 91.13491821 C350.43143242 96.80166521 350.6619475 101.47738358 350.63183594 108.06484985 C350.6370929 109.48079185 350.6370929 109.48079185 350.64245605 110.92533875 C350.65126038 114.04865879 350.64542163 117.17175205 350.63867188 120.29507446 C350.64002058 122.48204084 350.64196282 124.66900693 350.64447021 126.85597229 C350.64742112 131.45004111 350.64313107 136.04403225 350.63378906 140.63809204 C350.6224956 146.47086195 350.62888939 152.30344573 350.64093399 158.13620853 C350.64824036 162.66210777 350.6458232 167.18796461 350.64067841 171.71386528 C350.63936072 173.86042745 350.6409222 176.0069937 350.64563751 178.1535511 C350.66376873 188.74384692 350.51707542 199.30245492 349.66894531 209.8631897 C349.61663883 210.69269921 349.56433235 211.52220873 349.51044083 212.3768549 C349.12686406 216.41131981 348.84254491 218.12599512 346.01861572 221.1870575 C342.37895549 223.17896222 340.31066323 222.72870054 336.37304688 221.63491821 C334.17400041 219.99895722 333.45912244 219.1507029 333.00390339 216.422925 C333.00666877 215.5555178 333.00943415 214.6881106 333.01228333 213.79441833 C333.00609734 212.29892708 333.00609734 212.29892708 332.99978638 210.77322388 C333.0105722 209.68062256 333.02135803 208.58802124 333.0324707 207.46231079 C333.03203262 206.31095139 333.03159454 205.15959198 333.03114319 203.9733429 C333.03323723 200.15854069 333.05659799 196.34417513 333.08007812 192.52944946 C333.08567187 189.88815043 333.08994301 187.2468483 333.09294128 184.60554504 C333.10226854 178.35819277 333.1268914 172.11099784 333.15698975 165.86371487 C333.19051269 158.75134819 333.20701445 151.63897403 333.22207606 144.52654803 C333.25344045 129.89592356 333.30621411 115.26542309 333.37304688 100.63491821 C332.76804352 100.50051331 332.16304016 100.3661084 331.53970337 100.22763062 C330.7391452 100.04976013 329.93858704 99.87188965 329.11376953 99.68862915 C328.32314117 99.51297424 327.53251282 99.33731934 326.71792603 99.15634155 C297.74156968 92.71296109 272.6157468 80.54528347 255.68554688 54.94741821 C249.06707648 44.52887593 245.15503854 33.51352475 243.01367188 21.36538696 C242.59589642 18.5065031 242.59589642 18.5065031 240.37304688 16.63491821 C238.4833806 16.33307431 238.4833806 16.33307431 236.29066467 16.38323593 C235.43100066 16.37802044 234.57133665 16.37280494 233.68562222 16.3674314 C232.26064718 16.37412357 232.26064718 16.37412357 230.80688477 16.38095093 C229.80203317 16.37783095 228.79718157 16.37471097 227.76187992 16.37149644 C224.37309578 16.36347813 220.9844888 16.36985498 217.59570312 16.37612915 C215.17503758 16.37342099 212.75437286 16.36986105 210.33370972 16.36550903 C204.42838912 16.35731322 198.52311504 16.35854436 192.61779571 16.36433432 C187.81999147 16.36884433 183.02220149 16.36946658 178.22439575 16.36728668 C177.20156009 16.36682698 177.20156009 16.36682698 176.15806109 16.366358 C174.77297361 16.36571857 173.38788614 16.36507014 172.00279868 16.36441281 C159.00356881 16.35870469 146.00436711 16.36527497 133.00514185 16.37601355 C121.84228098 16.3849495 110.67946169 16.38339759 99.51660156 16.37417603 C86.56505746 16.3634819 73.61353807 16.35925405 60.66199017 16.36540055 C59.28189278 16.36603768 57.90179539 16.36666642 56.521698 16.36728668 C55.84259827 16.36759523 55.16349855 16.36790378 54.46382004 16.36822169 C49.66973184 16.36995121 44.87565927 16.367028 40.08157349 16.36232758 C33.63350343 16.35614467 27.18549361 16.36052337 20.73743057 16.37211609 C18.36458594 16.37477075 15.99173472 16.37398396 13.61889267 16.36959076 C10.39224043 16.36416556 7.16584466 16.37093249 3.93920898 16.38095093 C2.98922563 16.37648948 2.03924227 16.37202804 1.06047153 16.3674314 C-0.22902448 16.37525464 -0.22902448 16.37525464 -1.54457092 16.38323593 C-2.29001695 16.38356064 -3.03546297 16.38388534 -3.80349827 16.38421988 C-5.87704682 16.48220772 -5.87704682 16.48220772 -7.62695312 18.63491821 C-8.27557896 21.21762835 -8.8440469 23.77858944 -9.37695312 26.38491821 C-14.50497306 49.40629929 -28.25148164 69.28104499 -47.90039062 82.31851196 C-62.24362172 91.41671698 -77.56891726 96.95981012 -94.40429688 99.27554321 C-96.65921611 99.52658439 -96.65921611 99.52658439 -98.62695312 100.63491821 C-98.62326595 101.23937145 -98.61957878 101.84382469 -98.61577988 102.4665947 C-98.52745438 117.17218013 -98.461256 131.87774989 -98.41970444 146.58353806 C-98.39907641 153.6951627 -98.37095154 160.80661032 -98.32519531 167.91812134 C-98.28107866 174.77807549 -98.25783104 181.63784539 -98.24744415 188.49793243 C-98.24003977 191.11827748 -98.22558122 193.73861218 -98.2040329 196.35887909 C-98.17509687 200.02240462 -98.17099317 203.68516443 -98.17285156 207.3487854 C-98.15127991 208.98229446 -98.15127991 208.98229446 -98.12927246 210.64880371 C-98.16953429 217.95898002 -98.16953429 217.95898002 -100.43658447 221.30905151 C-103.68152135 223.27326596 -105.91434038 223.16529146 -109.62695312 222.63491821 C-111.9960048 220.9951093 -113.35363166 219.63484848 -114.12544632 216.81121063 C-114.47400846 214.49263122 -114.68571097 212.19512808 -114.85595703 209.8565979 C-114.96854072 208.53603456 -114.96854072 208.53603456 -115.08339882 207.18879318 C-115.915352 196.50111015 -115.95536949 185.80199086 -115.96289062 175.08804321 C-115.96933804 172.89376748 -115.97606775 170.69949256 -115.98306274 168.50521851 C-115.99492126 163.95044965 -115.99875447 159.39575606 -115.99755859 154.8409729 C-115.99735368 149.01740728 -116.02488317 143.19432021 -116.05910301 137.37086868 C-116.08134802 132.85834538 -116.0853972 128.34593892 -116.08433914 123.83336639 C-116.08668992 121.6852424 -116.09548374 119.53711493 -116.11100388 117.38904572 C-116.13065644 114.39415963 -116.12483314 111.40033004 -116.11279297 108.40542603 C-116.12403198 107.53053528 -116.135271 106.65564453 -116.14685059 105.75424194 C-116.08159768 99.34864706 -114.69040693 93.86861526 -110.17963219 89.10716629 C-106.21259259 85.66499553 -102.46299835 83.61824427 -97.31835938 82.74038696 C-96.4952124 82.59230591 -95.67206543 82.44422485 -94.82397461 82.29165649 C-93.95458252 82.13680786 -93.08519043 81.98195923 -92.18945312 81.82241821 C-75.20547065 78.59333835 -60.68032001 72.07568218 -47.62695312 60.63491821 C-46.92699219 60.0303479 -46.22703125 59.42577759 -45.50585938 58.80288696 C-33.74007403 47.90864128 -27.34875878 32.67683165 -24.14550781 17.24111938 C-22.76907904 11.00564622 -20.43187779 6.63266248 -15.14245605 2.99735451 C-10.15337853 -0.01319615 -5.71402531 -0.06588492 0 0 Z " fill="#000000" transform="translate(138.626953125,-0.634918212890625)"/>
<path d="M0 0 C3.74677605 0.71746775 4.58599003 1.56293611 6.9375 4.5625 C8.1042366 7.51320202 8.8488476 10.551918 9.625 13.625 C24.1342176 67.21854042 49.3203089 116.12842071 86.84375 157.25 C88.62654386 159.21905591 90.34868447 161.22140202 92.0625 163.25 C95.66010896 167.37840372 99.5123899 171.24675755 103.375 175.125 C103.99584473 175.75043701 104.61668945 176.37587402 105.25634766 177.02026367 C109.65268495 181.40221128 114.21559613 185.53480752 118.9375 189.5625 C119.57582764 190.10753174 120.21415527 190.65256348 120.87182617 191.21411133 C142.57757911 209.60245097 165.86444172 225.15177982 190.9375 238.5625 C191.90961426 239.08473145 192.88172852 239.60696289 193.88330078 240.14501953 C197.000541 241.81460383 200.12391717 243.47203825 203.25 245.125 C204.23516602 245.65029297 205.22033203 246.17558594 206.23535156 246.71679688 C207.16444336 247.20341797 208.09353516 247.69003906 209.05078125 248.19140625 C209.87360596 248.62525635 210.69643066 249.05910645 211.54418945 249.50610352 C215.44865858 251.22951859 217.67583578 252.04683658 221.77392578 250.47363281 C222.7998584 249.90999023 223.82579102 249.34634766 224.8828125 248.765625 C226.03281738 248.14212158 227.18282227 247.51861816 228.36767578 246.8762207 C229.59962747 246.18892936 230.83122822 245.50100864 232.0625 244.8125 C233.33136748 244.11521707 234.60074023 243.41885285 235.87060547 242.72338867 C239.57101234 240.68991078 243.25489484 238.62803736 246.9375 236.5625 C247.88753906 236.03414551 248.83757812 235.50579102 249.81640625 234.96142578 C274.54990872 221.1739142 297.69787197 204.75225432 318.625 185.65625 C320.59405591 183.87345614 322.59640202 182.15131553 324.625 180.4375 C334.17677385 172.08940497 343.13837675 162.9751362 350.984375 153.0078125 C352.78134544 150.75800551 354.66143336 148.6663214 356.625 146.5625 C388.29200823 111.18107133 409.74744942 65.25871283 422.4296875 19.9453125 C422.80625488 18.60581543 422.80625488 18.60581543 423.19042969 17.23925781 C423.70013389 15.41298431 424.20039136 13.58405439 424.69238281 11.75292969 C424.94084961 10.86250977 425.18931641 9.97208984 425.4453125 9.0546875 C425.66074707 8.26175293 425.87618164 7.46881836 426.09814453 6.65185547 C427.03529429 4.31906675 428.0000327 3.14471427 429.9375 1.5625 C432.9217702 0.54156546 434.55801343 0.46542204 437.625 1.25 C440.3394041 2.79060773 440.82546328 3.7011378 441.9375 6.5625 C443.83691711 53.18244412 404.51396064 112.43084466 376.9375 147.5625 C376.30972656 148.37074219 375.68195313 149.17898438 375.03515625 150.01171875 C365.7107326 161.85316474 355.79580429 173.04381163 345.10083008 183.65991211 C343.36495269 185.38498477 341.6401491 187.12061991 339.91601562 188.85742188 C333.23025569 195.55108074 326.36408978 201.6904399 318.9375 207.5625 C317.90965907 208.42554193 316.88624902 209.29394668 315.87109375 210.171875 C292.46218763 230.24711844 246.19144487 268.49833639 214.4765625 268.08203125 C208.1077631 267.14709712 202.86101345 263.94724529 197.31152344 260.85888672 C194.74569949 259.45776319 192.14942478 258.13261321 189.5390625 256.81640625 C160.00504488 241.86923514 132.86761804 223.31781791 107.9375 201.5625 C107.05449219 200.79292969 106.17148438 200.02335938 105.26171875 199.23046875 C98.56397314 193.23060691 92.16742653 186.91963287 85.78656006 180.58679199 C84.77933768 179.58761139 83.77063969 178.58991559 82.76031494 177.59387207 C76.01633504 170.93514504 69.83588886 163.99141335 63.9375 156.5625 C62.96105258 155.38857055 61.98116523 154.21748348 60.99609375 153.05078125 C48.01838205 137.43765563 36.91028845 120.12542322 26.98730469 102.43164062 C25.99803089 100.67027313 24.98794558 98.92064096 23.9765625 97.171875 C10.95895374 73.89957851 -10.22606248 32.99338144 -8.0625 5.5625 C-5.57647551 2.19905511 -4.14824477 0.76192251 0 0 Z " fill="#000000" transform="translate(39.0625,244.4375)"/>
<path d="M0 0 C4.83981609 2.53014247 7.66558842 6.22236645 9.61328125 11.25390625 C10.41777955 17.89101726 9.79977769 22.84591692 5.86328125 28.31640625 C5.0021875 28.80753906 4.14109375 29.29867188 3.25390625 29.8046875 C-0.67504304 33.93265219 0.23941958 38.83906939 0.30078125 44.31640625 C0.31738847 46.48300966 0.31678838 48.6498307 0.296875 50.81640625 C0.30775146 51.77546875 0.31862793 52.73453125 0.32983398 53.72265625 C-0.27584838 57.08988252 -1.4532746 58.25502373 -4.13671875 60.31640625 C-7.85811239 60.78158046 -10.17047454 60.82495583 -13.51171875 59.06640625 C-16.36573861 55.9928464 -16.25368204 52.55593667 -16.27734375 48.5078125 C-16.29667969 47.59580078 -16.31601563 46.68378906 -16.3359375 45.74414062 C-16.36971867 43.8381028 -16.38801537 41.931726 -16.390625 40.02539062 C-16.52973252 34.18708871 -16.52973252 34.18708871 -19.5703125 29.2890625 C-20.41722656 28.63808594 -21.26414063 27.98710937 -22.13671875 27.31640625 C-25.62863447 23.22243609 -25.64175037 19.22213337 -25.48828125 14.0390625 C-24.80354111 8.73613052 -22.50241727 5.58217561 -18.57421875 1.94140625 C-13.24123689 -1.61391499 -6.0734841 -1.94307078 0 0 Z " fill="#000000" transform="translate(264.13671875,232.68359375)"/>
</svg>
