<?xml version="1.0" encoding="UTF-8"?>
<svg version="1.1" xmlns="http://www.w3.org/2000/svg" width="512" height="512">
<path d="M0 0 C0.83917969 0.66773438 1.67835938 1.33546875 2.54296875 2.0234375 C23.17685237 19.42550802 36.13121786 46.01346063 38.81689453 72.70556641 C41.04915278 100.67725044 34.57414487 129.91532496 16.05078125 151.67578125 C15.03564453 152.82626953 15.03564453 152.82626953 14 154 C13.31292969 154.81855469 12.62585938 155.63710938 11.91796875 156.48046875 C-6.44090012 177.81645149 -32.84003287 191.03576065 -60.91455078 193.22753906 C-80.65000531 194.2505015 -99.07795049 191.41239059 -117 183 C-118.09570312 182.48695313 -119.19140625 181.97390625 -120.3203125 181.4453125 C-145.50143395 168.76373567 -164.35462417 146.0907367 -173.8125 119.6875 C-183.20895546 89.14901975 -180.10837333 58.01988948 -165.171875 29.796875 C-162.00671523 24.09269414 -158.15171354 19.02925158 -154 14 C-153.38769531 13.22398437 -152.77539062 12.44796875 -152.14453125 11.6484375 C-144.02688708 1.85187759 -133.14686331 -5.98925401 -122 -12 C-121.23816406 -12.42667969 -120.47632813 -12.85335937 -119.69140625 -13.29296875 C-81.09208617 -33.89194909 -33.56078689 -26.72674858 0 0 Z M-63 -2 C-64.90701775 0.54269034 -65.00587759 1.85599893 -64.875 5.0625 C-63.86341702 8.45852857 -63.0437667 9.29907155 -60 11 C-59.01 11.33 -58.02 11.66 -57 12 C-63.63280152 16.60222515 -70.49273909 20.61085166 -77.5625 24.5 C-86.50301196 29.46590917 -95.40554641 34.4897304 -104.25 39.625 C-105.25490479 40.20443359 -106.25980957 40.78386719 -107.29516602 41.38085938 C-115.71388377 45.71027443 -115.71388377 45.71027443 -121.0625 52.9375 C-121.25150805 56.10876812 -121.25150805 56.10876812 -119.3125 58.8125 C-116.91374016 61.08159715 -116.19530132 61.70695649 -113 62 C-100.78678132 57.59373398 -89.37685878 49.48502344 -78.25341797 42.91992188 C-72.73775282 39.66499236 -67.21377804 36.42436791 -61.6875 33.1875 C-60.14860107 32.28052368 -60.14860107 32.28052368 -58.57861328 31.35522461 C-57.62841309 30.79843018 -56.67821289 30.24163574 -55.69921875 29.66796875 C-54.86221436 29.17578857 -54.02520996 28.6836084 -53.1628418 28.17651367 C-51 27 -51 27 -48 26 C-48.33 26.66 -48.66 27.32 -49 28 C-49.38503376 31.54231061 -49.41935959 33.36257342 -47.4375 36.375 C-44.04129157 38.63913895 -41.99900698 38.64269755 -38 38 C-33.03577536 33.57767903 -32.09016514 27.1994353 -30.5625 21 C-30.12260742 19.37964844 -30.12260742 19.37964844 -29.67382812 17.7265625 C-29.41150391 16.68242187 -29.14917969 15.63828125 -28.87890625 14.5625 C-28.6372876 13.61503906 -28.39566895 12.66757813 -28.14672852 11.69140625 C-27.95772404 8.22454208 -28.96721868 6.75567274 -31 4 C-33.38339129 1.61660871 -34.88156062 1.32770928 -38.12109375 0.4921875 C-39.13880859 0.22792969 -40.15652344 -0.03632813 -41.20507812 -0.30859375 C-42.27177734 -0.57800781 -43.33847656 -0.84742188 -44.4375 -1.125 C-46.03174805 -1.54072266 -46.03174805 -1.54072266 -47.65820312 -1.96484375 C-55.52604283 -4.36201405 -55.52604283 -4.36201405 -63 -2 Z M-33 57 C-33 86.04 -33 115.08 -33 145 C-25.08 145 -17.16 145 -9 145 C-9 115.96 -9 86.92 -9 57 C-16.92 57 -24.84 57 -33 57 Z M-82 70 C-82 94.75 -82 119.5 -82 145 C-74.08 145 -66.16 145 -58 145 C-58 120.25 -58 95.5 -58 70 C-65.92 70 -73.84 70 -82 70 Z M-131 92 C-131 109.49 -131 126.98 -131 145 C-123.08 145 -115.16 145 -107 145 C-107 127.51 -107 110.02 -107 92 C-114.92 92 -122.84 92 -131 92 Z " fill="#000000" transform="translate(326,160)"/>
<path d="M0 0 C0.9286084 0.30695801 0.9286084 0.30695801 1.87597656 0.62011719 C23.88619669 8.01581647 42.37251109 19.93884245 59 36 C59.92554688 36.86238281 60.85109375 37.72476563 61.8046875 38.61328125 C83.52094167 59.37598885 97.14701743 87.73508716 103 117 C103.33644531 118.65128906 103.33644531 118.65128906 103.6796875 120.3359375 C109.48510327 155.0889059 102.72366792 190.28926436 86 221 C82.21205797 219.24585235 79.17133151 216.90609326 75.90234375 214.33984375 C71.80476543 211.4538697 68.13334043 212.05099161 63.375 212.35546875 C61 212 61 212 59.1875 209.98828125 C58.795625 209.33214844 58.40375 208.67601562 58 208 C58.50789063 207.05382812 59.01578125 206.10765625 59.5390625 205.1328125 C75.26986461 175.19403891 79.98822791 141.73401711 70.05004883 109.00878906 C63.81671924 89.91883031 53.88917211 73.5159398 40 59 C39.08347656 57.98873047 39.08347656 57.98873047 38.1484375 56.95703125 C16.82137994 34.22329542 -14.57749771 23.57992429 -44.9921875 21.71875 C-76.11609169 20.91555247 -109.93734129 33.11235625 -133 54 C-134.32837891 55.37091797 -134.32837891 55.37091797 -135.68359375 56.76953125 C-138 59 -138 59 -140 59 C-140.26683594 59.59167969 -140.53367188 60.18335938 -140.80859375 60.79296875 C-142.02053689 63.03804375 -143.29081898 64.49055853 -145.0625 66.3125 C-162.96678286 86.41751763 -170.43887993 114.38238506 -170.3125 140.75 C-170.30758545 141.97428711 -170.3026709 143.19857422 -170.29760742 144.45996094 C-169.85941946 178.4813237 -155.54223863 210.69648186 -132.125 235.25 C-106.20161333 259.90883122 -74.13586362 269.00922022 -38.96142578 268.13623047 C-32.1493567 267.82286406 -25.60212164 266.66693727 -19 265 C-18.34128906 264.83371094 -17.68257812 264.66742188 -17.00390625 264.49609375 C-5.22798745 261.39716775 6.83912448 256.77391702 17 250 C19.1875 250.375 19.1875 250.375 21 251 C20.96519531 251.72445313 20.93039062 252.44890625 20.89453125 253.1953125 C20.62594959 262.78751479 23.09606643 267.344866 29.57421875 274.265625 C31 276 31 276 31 278 C29.81966019 278.8328286 28.60386246 279.61559062 27.375 280.375 C21.59970493 284.61431234 19.67521245 289.37566442 17 296 C16.34 300.62 15.68 305.24 15 310 C-26.58 310 -68.16 310 -111 310 C-111.99 304.39 -112.98 298.78 -114 293 C-118.09248821 283.12988139 -125.0274434 278.9306082 -133.75 273.25 C-167.60772148 250.92197275 -190.66364686 215.29936755 -198.875 175.75 C-206.37534201 135.30511777 -198.10755115 93.07400588 -175 59 C-151.42140333 24.88751376 -115.82888507 2.62115354 -75.35229492 -5.4831543 C-50.46972933 -9.86071845 -23.93852919 -7.97950973 0 0 Z " fill="#000000" transform="translate(304,99)"/>
<path d="M0 0 C41.58 0 83.16 0 126 0 C126 25.95393474 126 25.95393474 119.96484375 32.05859375 C118.96130859 32.74115234 118.96130859 32.74115234 117.9375 33.4375 C117.26589844 33.91058594 116.59429687 34.38367188 115.90234375 34.87109375 C111.4570918 37.50903587 106.97235305 37.16162947 101.97387695 37.17700195 C101.04994644 37.18357315 100.12601593 37.19014435 99.17408752 37.19691467 C96.11215128 37.216647 93.05026411 37.22831105 89.98828125 37.23828125 C88.41869691 37.24439454 88.41869691 37.24439454 86.81740379 37.25063133 C81.27744112 37.27149323 75.73750322 37.28579363 70.19750977 37.29516602 C64.48221439 37.30622192 58.76730925 37.34061231 53.05215168 37.38033772 C48.65198556 37.40651657 44.25191218 37.41485907 39.85167503 37.41844749 C37.74540768 37.42331127 35.6391444 37.43491927 33.53295326 37.45348549 C30.57935552 37.47790022 27.62676401 37.4769073 24.6730957 37.4699707 C23.80890015 37.48278076 22.94470459 37.49559082 22.05432129 37.50878906 C15.30993716 37.45128589 9.81834767 35.78626022 4.94140625 30.96484375 C4.48636719 30.29582031 4.03132812 29.62679688 3.5625 28.9375 C3.08941406 28.26589844 2.61632812 27.59429687 2.12890625 26.90234375 C-2.83349189 18.5401019 0 10.81068723 0 0 Z " fill="#000000" transform="translate(193,424)"/>
<path d="M0 0 C3.84646396 1.58933851 6.31491335 4.04250703 9.25585938 6.94946289 C10.02250664 7.70362488 10.02250664 7.70362488 10.80464172 8.47302246 C12.48981491 10.13413597 14.16726526 11.80277701 15.84375 13.47265625 C17.01665013 14.63658429 18.1896249 15.80043711 19.3626709 16.96421814 C21.82087346 19.40593717 24.27465262 21.85201137 26.72607422 24.30053711 C29.85464903 27.42374072 32.99902901 30.5304892 36.14769745 33.63341618 C38.57728568 36.03312474 40.9954081 38.44414499 43.41059875 40.85833549 C44.56423876 42.0077919 45.72196695 43.15316137 46.88395691 44.2941761 C53.8384476 51.13307932 59.78138581 57.21778169 61.56640625 67.15234375 C61.55627733 74.37426324 60.49491067 80.18244895 56 86 C50.60082207 90.64272568 45.59247706 93.1324584 38.4375 93.375 C37.46683594 93.42398438 36.49617188 93.47296875 35.49609375 93.5234375 C24.14929994 91.82458792 16.84677245 83.51311196 9.2109375 75.69921875 C8.01563904 74.49457663 6.81921832 73.29104715 5.62173462 72.08857727 C2.49690775 68.94480306 -0.61259895 65.78630244 -3.71899414 62.62432861 C-6.90107917 59.39078486 -10.09764629 56.17162578 -13.29296875 52.95117188 C-19.54277985 46.64798998 -25.77647646 40.3291312 -32 34 C-30.68623083 31.09456128 -29.27943508 29.03338941 -27.01904297 26.79199219 C-26.41857147 26.19167175 -25.81809998 25.59135132 -25.19943237 24.97283936 C-24.55354156 24.33727112 -23.90765076 23.70170288 -23.2421875 23.046875 C-22.57913605 22.38665344 -21.91608459 21.72643188 -21.23294067 21.04620361 C-19.11828168 18.94272176 -16.99676788 16.84630858 -14.875 14.75 C-13.43834443 13.32337739 -12.00214102 11.89629928 -10.56640625 10.46875 C-7.04949196 6.97386339 -3.52641453 3.48529938 0 0 Z " fill="#000000" transform="translate(393,347)"/>
<path d="M0 0 C27.72 0 55.44 0 84 0 C84 10.07398873 81.80588343 15.84679244 75.00390625 23.20703125 C68.32812567 29.18009808 61.49311154 31.15590099 52.7109375 31.23828125 C51.8930777 31.246353 51.0752179 31.25442474 50.23257446 31.26274109 C48.49930939 31.27657017 46.76601722 31.28729759 45.03271484 31.29516602 C43.27156519 31.30665248 41.51044943 31.3270512 39.74951172 31.35668945 C20.9698644 31.67268465 20.9698644 31.67268465 14 27 C13.20207031 26.505 12.40414062 26.01 11.58203125 25.5 C5.9712429 20.74383504 2.28655469 15.00690434 0 8 C0 5.36 0 2.72 0 0 Z " fill="#000000" transform="translate(214,476)"/>
<path d="M0 0 C4.29378813 1.92287034 6.77153701 4.62478869 10 8 C12.46800047 6.84826645 14.04783565 5.95216435 16 4 C20.65885781 4.1800903 22.70642475 6.27098742 25.8125 9.5625 C26.60269531 10.38878906 27.39289063 11.21507812 28.20703125 12.06640625 C28.79871094 12.70449219 29.39039063 13.34257812 30 14 C28.68623083 16.90543872 27.27943508 18.96661059 25.01904297 21.20800781 C24.41857147 21.80832825 23.81809998 22.40864868 23.19943237 23.02716064 C22.55354156 23.66272888 21.90765076 24.29829712 21.2421875 24.953125 C20.57913605 25.61334656 19.91608459 26.27356812 19.23294067 26.95379639 C17.11828168 29.05727824 14.99676788 31.15369142 12.875 33.25 C11.43834443 34.67662261 10.00214102 36.10370072 8.56640625 37.53125 C5.04949196 41.02613661 1.52641453 44.51470062 -2 48 C-5.28615979 46.43202618 -7.66880952 44.71519675 -10.3125 42.1875 C-11.03050781 41.52105469 -11.74851562 40.85460937 -12.48828125 40.16796875 C-14 38 -14 38 -13.828125 35.3515625 C-12.94446828 32.84231088 -12.03141615 31.67812639 -10 30 C-11.65091778 25.70761377 -14.73754566 23.1206085 -18 20 C-16.54350941 16.51675266 -14.69615118 14.65221544 -11.8125 12.25 C-7.44101673 8.48684612 -3.67193568 4.43938204 0 0 Z " fill="#000000" transform="translate(353,321)"/>
<path d="M0 0 C2.64553432 2.08478982 2.99357464 2.97521648 3.875 6.375 C4.01968939 10.57099224 3.47535564 11.69437486 1 15 C-1.69555664 16.92871094 -1.69555664 16.92871094 -4.91015625 18.734375 C-5.47826523 19.05786926 -6.04637421 19.38136353 -6.63169861 19.71466064 C-8.4356127 20.73820855 -10.24866391 21.74416078 -12.0625 22.75 C-13.28514315 23.44027753 -14.50715574 24.13167318 -15.72851562 24.82421875 C-27.62254625 31.5497805 -27.62254625 31.5497805 -34 31 C-37.27522945 28.84524379 -37.90229594 27.3358577 -39 23.5625 C-39 19.11136461 -37.99801742 18.1921582 -35 15 C-31.50990886 12.48451941 -27.81125744 10.36044607 -24.08422852 8.21411133 C-22.32206652 7.19304323 -20.580533 6.14183876 -18.83789062 5.08789062 C-12.29101684 1.28418319 -7.62039255 -1.25848428 0 0 Z " fill="#000000" transform="translate(86,339)"/>
<path d="M0 0 C2.4375 1.0625 2.4375 1.0625 4 3 C5.03544445 6.72760002 5.48494461 8.94967844 3.84155273 12.5090332 C1.69547691 15.41191158 -0.27061869 16.70201314 -3.40234375 18.48046875 C-4.45744141 19.08697266 -5.51253906 19.69347656 -6.59960938 20.31835938 C-7.70111328 20.93517578 -8.80261719 21.55199219 -9.9375 22.1875 C-11.03513672 22.81591797 -12.13277344 23.44433594 -13.26367188 24.09179688 C-16.1657564 25.74734845 -19.07133289 27.39195928 -22 29 C-22.7019751 29.38583252 -23.4039502 29.77166504 -24.12719727 30.16918945 C-27.19021933 31.5280037 -29.70957075 31.35254599 -33 31 C-36.27522945 28.84524379 -36.90229594 27.3358577 -38 23.5625 C-38 19.11077217 -37.0001564 18.19146442 -34 15 C-30.4906973 12.48546275 -26.77261448 10.36238269 -23.02929688 8.21411133 C-21.25717869 7.19164193 -19.50397223 6.14110966 -17.75 5.08789062 C-7.07381087 -1.09723036 -7.07381087 -1.09723036 0 0 Z " fill="#000000" transform="translate(460,120)"/>
<path d="M0 0 C4.27932659 1.89863184 8.2053579 4.29795404 12.1875 6.75 C13.78754883 7.70132812 13.78754883 7.70132812 15.41992188 8.671875 C28.58585452 16.5763749 28.58585452 16.5763749 30 21.4375 C30 25.37108373 29.41868244 26.95425175 27 30 C23.64487561 31.6775622 20.60430611 31.66295901 17 31 C12.72067341 29.10136816 8.7946421 26.70204596 4.8125 24.25 C3.74580078 23.61578125 2.67910156 22.9815625 1.58007812 22.328125 C-11.58585452 14.4236251 -11.58585452 14.4236251 -13 9.5625 C-13 5.62891627 -12.41868244 4.04574825 -10 1 C-6.64487561 -0.6775622 -3.60430611 -0.66295901 0 0 Z " fill="#000000" transform="translate(436,337)"/>
<path d="M0 0 C1.03874268 0.60408691 2.07748535 1.20817383 3.14770508 1.83056641 C4.28788086 2.49056641 5.42805664 3.15056641 6.6027832 3.83056641 C7.18793701 4.17571289 7.77309082 4.52085938 8.37597656 4.87646484 C10.16684853 5.93190036 11.96593904 6.97205244 13.7668457 8.01025391 C25.50720699 14.85602328 25.50720699 14.85602328 26.91723633 19.93212891 C26.97973633 23.55712891 26.97973633 23.55712891 25.16723633 26.43212891 C22.62322935 28.90344998 21.73843931 29.48968864 18.22216797 29.80224609 C14.45522611 29.51747766 12.37127988 28.49979852 9.10083008 26.63525391 C7.47177734 25.71486328 7.47177734 25.71486328 5.80981445 24.77587891 C4.69026367 24.12619141 3.57071289 23.47650391 2.41723633 22.80712891 C1.29381836 22.17291016 0.17040039 21.53869141 -0.98706055 20.88525391 C-14.26295402 13.31255175 -14.26295402 13.31255175 -15.86791992 9.59228516 C-16.28960584 5.72044169 -16.33218784 4.08071591 -14.27026367 0.61962891 C-9.62997241 -3.63397142 -5.34873194 -2.55525065 0 0 Z " fill="#000000" transform="translate(62.020263671875,123.44287109375)"/>
<path d="M0 0 C4.70545771 0.88227332 7.19660592 3.44127858 9.94458008 7.27636719 C13.31546178 12.97101524 13.31546178 12.97101524 14.78588867 15.53320312 C15.80835807 17.30532131 16.85889034 19.05852777 17.91210938 20.8125 C24.16176611 31.60008482 24.16176611 31.60008482 23 38.5625 C21.09496794 41.31421298 19.7143524 42.28051879 16.625 43.5 C13.00176165 43.58626758 11.09146293 42.42324887 8 40.5625 C6.06542969 38.08227539 6.06542969 38.08227539 4.421875 35.16015625 C3.81859375 34.10505859 3.2153125 33.04996094 2.59375 31.96289062 C1.9853125 30.86138672 1.376875 29.75988281 0.75 28.625 C-0.18585938 26.97854492 -0.18585938 26.97854492 -1.140625 25.29882812 C-2.78297793 22.39816384 -4.40940235 19.49184154 -6 16.5625 C-6.38381836 15.85923584 -6.76763672 15.15597168 -7.16308594 14.43139648 C-8.55575557 11.32145307 -8.41116196 8.91053311 -8 5.5625 C-5.54999553 2.17572911 -4.13607554 0.77551416 0 0 Z " fill="#000000" transform="translate(139,35.4375)"/>
<path d="M0 0 C2.875 1.4375 2.875 1.4375 5 4 C6.38397468 12.97292191 2.23593014 18.91586553 -2.3125 26.375 C-3.01146009 27.56020025 -3.7087403 28.74639288 -4.40429688 29.93359375 C-10.1774261 39.65030014 -10.1774261 39.65030014 -13 42 C-17.21225944 42.86106961 -20.88159776 42.68195258 -24.5625 40.4375 C-26.60435009 36.97523246 -26.41546438 35.01615569 -26 31 C-24.58298665 27.53639401 -22.75576882 24.35543972 -20.875 21.125 C-20.400625 20.27808594 -19.92625 19.43117188 -19.4375 18.55859375 C-8.35389706 -1.00246765 -8.35389706 -1.00246765 0 0 Z " fill="#000000" transform="translate(374,35)"/>
<path d="M0 0 C1.07454941 -0.00855011 1.07454941 -0.00855011 2.17080688 -0.01727295 C3.68547087 -0.02671036 5.20015527 -0.03325193 6.71484375 -0.03710938 C9.02380453 -0.04681089 11.33187319 -0.07784275 13.640625 -0.109375 C15.11457807 -0.11590605 16.58853748 -0.12115612 18.0625 -0.125 C18.74911713 -0.1373468 19.43573425 -0.1496936 20.14315796 -0.16241455 C24.48767487 -0.14237483 27.20705744 0.54588088 30.6640625 3.203125 C32.22877483 6.33254965 32.36108208 9.81394723 31.6640625 13.203125 C30.15673828 15.29711914 30.15673828 15.29711914 27.6640625 17.203125 C24.76541491 17.6131428 22.25335068 17.7881252 19.35546875 17.76953125 C18.14986549 17.77882912 18.14986549 17.77882912 16.91990662 17.78831482 C15.22290252 17.79540699 13.52582876 17.7922494 11.82885742 17.77954102 C9.23811132 17.76568676 6.65098726 17.79973437 4.06054688 17.83789062 C2.40885329 17.83884201 0.75715519 17.83698196 -0.89453125 17.83203125 C-2.05099403 17.85191856 -2.05099403 17.85191856 -3.2308197 17.87220764 C-7.23160073 17.80328166 -9.12988377 17.36264559 -12.32836914 14.88647461 C-14.3359375 12.203125 -14.3359375 12.203125 -14.8984375 8.640625 C-14.25507471 4.70896349 -13.49145352 3.54722261 -10.3359375 1.203125 C-6.83211953 0.03518568 -3.64739861 0.02244357 0 0 Z " fill="#000000" transform="translate(464.3359375,234.796875)"/>
<path d="M0 0 C2.09399414 1.49145508 2.09399414 1.49145508 4 4 C4.40979806 6.97980392 4.5849234 9.58321317 4.56640625 12.5625 C4.57570412 13.80495483 4.57570412 13.80495483 4.58518982 15.07250977 C4.59228217 16.82078884 4.58912411 18.56913554 4.57641602 20.31738281 C4.5625441 22.99149824 4.59663146 25.66211732 4.63476562 28.3359375 C4.63571681 30.03645919 4.63385802 31.73698525 4.62890625 33.4375 C4.64216446 34.23551025 4.65542267 35.03352051 4.66908264 35.85571289 C4.60327856 39.78079784 4.37991862 41.5955107 1.64819336 44.50390625 C-1.61368765 46.34670212 -3.30724619 46.61545897 -7 46 C-11.57891615 43.15089662 -11.57891615 43.15089662 -12.62402344 40.29443359 C-13.46082033 35.18779907 -13.22608392 29.94811847 -13.24023438 24.78320312 C-13.24993698 22.63892779 -13.28098433 20.4956131 -13.3125 18.3515625 C-13.31903147 16.97656815 -13.32428138 15.60156699 -13.328125 14.2265625 C-13.3374707 12.98471191 -13.34681641 11.74286133 -13.35644531 10.46337891 C-12.96470516 6.65705991 -11.99472051 4.24582184 -10 1 C-6.87057535 -0.56471233 -3.38917777 -0.69701958 0 0 Z " fill="#000000" transform="translate(259,5)"/>
<path d="M0 0 C2.16393827 -0.00218237 4.3273631 -0.02033848 6.49121094 -0.03930664 C7.8740217 -0.04224172 9.25683488 -0.04422575 10.63964844 -0.04516602 C11.89310059 -0.0492749 13.14655273 -0.05338379 14.43798828 -0.05761719 C18.43612178 0.23094678 21.28169895 1.18812247 24.61621094 3.37280273 C26.57333647 6.35999434 26.22245331 8.7157231 25.80371094 12.18530273 C24.31152344 14.87255859 24.31152344 14.87255859 21.80371094 17.18530273 C18.75873791 17.68072414 16.28230491 17.86473397 13.24121094 17.81420898 C11.9987561 17.81782692 11.9987561 17.81782692 10.73120117 17.82151794 C8.98286137 17.82054001 7.23449041 17.80715895 5.48632812 17.78222656 C2.81240506 17.7479143 0.14178702 17.76156833 -2.53222656 17.78100586 C-4.23276144 17.7741072 -5.9332878 17.76443463 -7.63378906 17.75170898 C-8.83080444 17.75914879 -8.83080444 17.75914879 -10.05200195 17.76673889 C-13.6773362 17.68994131 -15.77508095 17.50692193 -18.69824219 15.27490234 C-20.77687805 12.37544922 -20.76497071 10.55130445 -20.59082031 7.08764648 C-19.98240799 4.15401478 -18.58482392 2.89139906 -16.19628906 1.18530273 C-11.00506379 -0.54510569 -5.43487502 -0.00061508 0 0 Z " fill="#000000" transform="translate(36.1962890625,236.814697265625)"/>
</svg>
