<?xml version="1.0" encoding="UTF-8"?>
<svg version="1.1" xmlns="http://www.w3.org/2000/svg" width="512" height="512">
<path d="M0 0 C44.88 0 89.76 0 136 0 C136 27.72 136 55.44 136 84 C91.12 84 46.24 84 0 84 C0 56.28 0 28.56 0 0 Z M75 19 C73.17144615 21.67749901 73.17144615 21.67749901 71.58203125 24.578125 C70.97174072 25.64909424 70.3614502 26.72006348 69.73266602 27.82348633 C69.09901123 28.95423584 68.46535645 30.08498535 67.8125 31.25 C66.81814314 33.00813332 65.82145845 34.76493126 64.82444763 36.52156067 C63.83673647 38.26216807 62.85097663 40.00388228 61.86523438 41.74560547 C60.2133406 44.62777092 58.52393137 47.47886363 56.796875 50.31640625 C56.32918701 51.08758789 55.86149902 51.85876953 55.37963867 52.65332031 C54.52620575 54.05234919 53.66485399 55.44659038 52.79418945 56.83496094 C50.67834526 60.32781203 49.31686405 62.87890815 50 67 C51.59616005 69.00965774 51.59616005 69.00965774 54 70 C56.48615871 70.06664011 56.48615871 70.06664011 59 69 C61.08365595 66.46796996 61.08365595 66.46796996 62.875 63.0625 C63.23940186 62.42368896 63.60380371 61.78487793 63.97924805 61.12670898 C64.82728705 59.63884035 65.66844688 58.14703929 66.50439453 56.65234375 C68.23408041 53.58487601 70.00371593 50.54226745 71.77734375 47.5 C79.91892953 34.02464834 79.91892953 34.02464834 87 20 C85.91376995 16.80919923 84.99335895 15.59601537 82.125 13.875 C78.63928264 14.0800422 77.27408299 16.49680923 75 19 Z M27.125 24.0625 C26.26519531 24.73216797 25.40539062 25.40183594 24.51953125 26.09179688 C22.81765499 27.41791745 21.12179434 28.75179833 19.43237305 30.09375 C16.52661991 32.37098783 13.55107072 34.54096434 10.54663086 36.68579102 C8.74593771 38.05592781 8.74593771 38.05592781 7.4375 40.875 C8.85778022 48.76544569 21.05452644 55.35947031 27.1875 60.0625 C28.05052734 60.75021484 28.91355469 61.43792969 29.80273438 62.14648438 C34.6603894 66.04640553 34.6603894 66.04640553 40.61328125 66.93359375 C41.40089844 66.62550781 42.18851562 66.31742188 43 66 C43.94271002 62.74360341 43.94271002 62.74360341 44 59 C39.82271874 54.023161 34.37066715 50.54219755 29.08789062 46.84179688 C27.35859193 45.60658352 25.67475904 44.308208 24 43 C24 42.34 24 41.68 24 41 C25.51293945 39.62719727 25.51293945 39.62719727 27.61328125 38.06640625 C28.7434668 37.2165918 28.7434668 37.2165918 29.89648438 36.34960938 C30.69376953 35.75986328 31.49105469 35.17011719 32.3125 34.5625 C33.87259588 33.39914712 35.43124556 32.23385173 36.98828125 31.06640625 C37.68477783 30.55021729 38.38127441 30.03402832 39.09887695 29.50219727 C41.73416993 27.43865041 41.73416993 27.43865041 44 25 C43.76522801 21.35458155 43.76522801 21.35458155 43 18 C36.20385333 15.314965 32.18061352 20.00223386 27.125 24.0625 Z M93.8125 18.1875 C91.76913038 19.86290096 91.76913038 19.86290096 91.68359375 22.41015625 C92.07474347 25.6117891 92.77226268 26.25572362 95.25 28.25 C95.96671875 28.83394531 96.6834375 29.41789062 97.421875 30.01953125 C102.24769549 33.72663881 107.09641416 37.39586441 112 41 C110.45819061 45.16193946 107.72160333 46.95509699 104.1875 49.5 C96.7078599 54.17391374 96.7078599 54.17391374 92 61.0625 C91.74811145 63.94462025 91.74811145 63.94462025 93.125 65.875 C95.71426704 67.42856022 96.99175841 67.40446946 100 67 C102.33447594 65.44957785 104.3730642 63.92115865 106.5 62.125 C107.73239958 61.11896626 108.96549004 60.11377834 110.19921875 59.109375 C110.82489746 58.59439453 111.45057617 58.07941406 112.09521484 57.54882812 C115.11719906 55.0915777 118.21402957 52.73453745 121.3125 50.375 C124.78059582 47.83110057 124.78059582 47.83110057 128 45 C128.48028062 42.13999162 128.48028062 42.13999162 128 39 C126.03223289 36.62971091 126.03223289 36.62971091 123.25 34.6875 C122.25097656 33.924375 121.25195312 33.16125 120.22265625 32.375 C119.69430176 31.98570312 119.16594727 31.59640625 118.62158203 31.1953125 C117.00294659 30.00217201 115.4042851 28.78610848 113.80859375 27.5625 C104.60468485 19.00732429 104.60468485 19.00732429 93.8125 18.1875 Z " fill="#000000" transform="translate(298,214)"/>
<path d="M0 0 C3.96 0 7.92 0 12 0 C12.1953125 3.05989583 12.390625 6.11979167 12.5859375 9.1796875 C12.73253491 12.13046474 12.73253491 12.13046474 15 14 C16.9413859 14.63747 18.90396139 15.21115491 20.875 15.75 C26.88299642 17.48845573 31.97240713 19.94108169 37.34375 23.12109375 C40.03413691 24.3400935 40.03413691 24.3400935 42.66796875 22.828125 C45.33518207 20.73724421 47.67238908 18.46061726 50 16 C53.82792868 17.5595265 56.36359864 19.83631836 59 23 C58.6370368 27.21206131 56.04155165 29.27901207 53.1796875 32.12109375 C51.76791543 33.96561378 51.76791543 33.96561378 52.140625 36.3671875 C53.11199257 39.34310451 54.39454657 41.92914273 55.875 44.6875 C58.3097773 49.39978429 60.06282688 53.90273724 61.359375 59.0390625 C61.90327213 61.20497968 61.90327213 61.20497968 64 63 C67.98938913 63.58569979 71.97186456 63.74288497 76 64 C76 67.96 76 71.92 76 76 C74.246875 76.12375 72.49375 76.2475 70.6875 76.375 C66.83095639 76.64722661 65.28491373 76.81005752 62 79 C60.96936614 81.72975718 60.96936614 81.72975718 60.1875 84.9375 C58.54297042 90.73832114 56.27892418 95.47221728 53.07421875 100.5625 C51.74419725 103.58043969 51.88374359 104.92398121 53 108 C54.48445211 109.70511391 56.08497041 111.0292035 57.8203125 112.47265625 C59 114 59 114 58.87109375 115.98046875 C57.87762729 118.28370714 56.76266702 119.541333 54.9375 121.25 C54.11572266 122.03117187 54.11572266 122.03117187 53.27734375 122.828125 C52.85582031 123.21484375 52.43429688 123.6015625 52 124 C49.07368315 122.80779684 47.80035559 121.76798082 45.6875 119.3125 C43.18745396 116.67638531 43.18745396 116.67638531 39.8125 116.875 C35.799138 118.05927075 32.45542141 119.70587248 28.7734375 121.66015625 C24.76828139 123.59504153 20.61208303 124.88490668 16.37109375 126.203125 C14.07137294 126.78029247 14.07137294 126.78029247 13 128 C12.76572222 130.01594582 12.58663876 132.038474 12.4375 134.0625 C12.293125 136.021875 12.14875 137.98125 12 140 C8.04 140 4.08 140 0 140 C-0.66 135.71 -1.32 131.42 -2 127 C-2.94359375 126.70867187 -3.8871875 126.41734375 -4.859375 126.1171875 C-6.15703073 125.7055783 -7.45384762 125.29131902 -8.75 124.875 C-9.42724121 124.65779297 -10.10448242 124.44058594 -10.80224609 124.21679688 C-16.3759472 122.35933253 -21.35575361 119.84756369 -26.4140625 116.84375 C-29.04245663 115.6660231 -29.04245663 115.6660231 -31.62890625 117.17578125 C-34.51278581 119.38026431 -34.51278581 119.38026431 -37.3125 121.6875 C-38.199375 122.450625 -39.08625 123.21375 -40 124 C-42.64 121.36 -45.28 118.72 -48 116 C-46 112 -46 112 -43.375 109.5625 C-40.83397945 107.29762229 -40.83397945 107.29762229 -40.64453125 104.7578125 C-41.11575172 101.1019702 -42.56146512 98.5499206 -44.3125 95.3125 C-46.99574316 90.23759768 -49.03099883 85.40266923 -50.39453125 79.79296875 C-50.83712658 77.78796503 -50.83712658 77.78796503 -53 77 C-54.87056791 76.7724985 -56.74685958 76.59037189 -58.625 76.4375 C-60.39875 76.293125 -62.1725 76.14875 -64 76 C-64 72.04 -64 68.08 -64 64 C-61.23307292 63.83723958 -58.46614583 63.67447917 -55.69921875 63.51171875 C-52.62403428 62.9287243 -51.75348606 62.55694098 -50 60 C-48.94722243 57.1233107 -48.94722243 57.1233107 -48.125 53.875 C-46.89109277 49.55392411 -45.56137377 45.93898002 -43.1875 42.125 C-41.41608649 39.11029627 -41.00064976 38.01256212 -40.8125 34.375 C-42.3955295 29.87586353 -44.70622918 27.43393128 -48 24 C-45.36 21.36 -42.72 18.72 -40 16 C-33.125 21.875 -33.125 21.875 -32 23 C-26.80512073 23.5310321 -23.71837683 22.14363188 -19.1875 19.6875 C-15.12467022 17.53026428 -11.1713064 15.57567534 -6.75 14.25 C-2.79535313 13.35813202 -2.79535313 13.35813202 -1 10 C-0.54398739 7.49103314 -0.54398739 7.49103314 -0.375 4.8125 C-0.25125 3.224375 -0.1275 1.63625 0 0 Z M-26.4921875 44.703125 C-34.07798064 53.98723004 -36.27908241 64.25634588 -35.26171875 76.03515625 C-33.71888735 87.61790542 -27.14430469 95.81839743 -18.45703125 103.14453125 C-9.33144598 110.03587148 0.75165005 111.91793529 12 111 C24.13103044 108.86450796 33.9298398 101.97073874 41 92 C47.04162487 80.4214206 48.84789307 69.33555279 45.0390625 56.734375 C40.90678357 45.85995676 33.43802401 37.19049282 23 32 C4.53512502 23.97599674 -13.76821432 30.18047498 -26.4921875 44.703125 Z " fill="#000000" transform="translate(139,184)"/>
<path d="M0 0 C1.7734375 1.3359375 1.7734375 1.3359375 3 3 C3.64606181 8.16849452 3.64606181 8.16849452 1.734375 10.62890625 C-0.3028919 12.23944832 -1.57009161 12.54135567 -4.125 12.9375 C-30.01102107 17.57211513 -51.35051645 26.03745558 -70 45 C-70.83402344 45.8353125 -71.66804687 46.670625 -72.52734375 47.53125 C-91.04321069 67.02829963 -98.46432894 92.27126229 -100.421875 118.49609375 C-101.77148789 136.46160364 -105.09671051 151.72825854 -113 168 C-113.70962891 169.48113281 -113.70962891 169.48113281 -114.43359375 170.9921875 C-118.37567931 178.69768052 -123.57920374 185.29954036 -129 192 C-129.55945313 192.70382812 -130.11890625 193.40765625 -130.6953125 194.1328125 C-149.2310303 216.72005332 -178.56280617 229.534217 -207 233 C-210.05774658 233.17550841 -212.93900051 233.16696361 -216 233 C-216.66 234.65 -217.32 236.3 -218 238 C-222.252444 239.0158316 -224.40862135 239.26461689 -228.45703125 237.453125 C-229.58819629 236.73842839 -230.70679159 236.00348158 -231.8125 235.25 C-232.67004883 234.70859375 -232.67004883 234.70859375 -233.54492188 234.15625 C-236.40955735 232.29810807 -238.08144536 230.87783196 -240 228 C-240.125 225.125 -240.125 225.125 -239 222 C-236.54543553 219.91857597 -233.84722199 218.47866777 -231 217 C-229.96875 216.401875 -228.9375 215.80375 -227.875 215.1875 C-224.55665518 213.81687931 -222.54740705 213.38305964 -219 214 C-218.38125 214.825 -217.7625 215.65 -217.125 216.5 C-216.42375 217.325 -215.7225 218.15 -215 219 C-209.26036714 219.41086309 -204.0824809 218.66070338 -198.5 217.375 C-197.72100342 217.19606201 -196.94200684 217.01712402 -196.1394043 216.83276367 C-168.64481669 210.22592601 -145.36961834 194.49959459 -130.3125 170.3125 C-119.0871118 151.64718573 -115.1810784 133.09636821 -113.77929688 111.6184082 C-111.53012741 79.40000065 -97.43588717 49.43740736 -73 28 C-54.59970599 12.73744034 -24.92369088 -4.57233178 0 0 Z " fill="#000000" transform="translate(363,139)"/>
<path d="M0 0 C6.61033853 6.03579703 12.14780129 12.41861504 16.85180664 20.05664062 C19.78559243 24.56856971 22.30074729 25.3902735 27.41162109 26.60058594 C29.91351499 30.35342679 29.71092778 32.4986555 29.72412109 36.97558594 C29.74087891 38.28269531 29.75763672 39.58980469 29.77490234 40.93652344 C29.39702567 44.7477957 28.82431932 46.65543017 26.41162109 49.60058594 C21.70898568 50.69226916 19.67107717 50.35252535 15.51318359 47.87011719 C11.94648788 45.30041122 8.52286387 42.71182871 5.41162109 39.60058594 C5.66723433 37.25746464 6.00432882 34.92215191 6.41162109 32.60058594 C6.41162109 25.16410997 -2.21077187 17.63587064 -7.27587891 12.47558594 C-27.03015228 -7.01334084 -53.54873237 -17.07847017 -81.08837891 -17.64941406 C-105.35598483 -17.14630516 -130.03981907 -9.50159624 -148.27587891 7.03808594 C-151.54155661 9.24462493 -153.7424068 9.17035958 -157.58837891 8.60058594 C-159.58837891 7.03808594 -159.58837891 7.03808594 -160.58837891 4.60058594 C-160.46042755 0.37819132 -160.18093799 -1.74271198 -157.31494141 -4.91894531 C-109.05979555 -40.59371939 -45.42250225 -40.01871855 0 0 Z " fill="#000000" transform="translate(224.58837890625,165.3994140625)"/>
<path d="M0 0 C2.2109375 2.00390625 2.2109375 2.00390625 4.375 4.5625 C5.16261719 5.47257812 5.95023437 6.38265625 6.76171875 7.3203125 C8.07012077 8.88674145 9.36916928 10.46124238 10.64453125 12.0546875 C26.5389315 31.44987971 52.34645233 43.30070646 77 46 C103.95047233 47.36767601 127.47078077 42.07331275 150 27 C150.96550781 26.401875 151.93101562 25.80375 152.92578125 25.1875 C155.30584625 23.58845166 157.21012088 22.23974179 159 20 C159.43102629 17.48145424 159.36073044 15.52866479 158.92578125 13.015625 C159 11 159 11 160.61328125 9.375 C163.31048412 7.82112863 165.92796825 6.75484034 168.875 5.75 C169.88304687 5.39421875 170.89109375 5.0384375 171.9296875 4.671875 C175.35216989 3.92293483 177.62551693 4.12388599 181 5 C182.9375 6.625 182.9375 6.625 184 9 C183.7569861 15.07534746 182.19563419 22.61076602 178.8359375 27.796875 C177 29 177 29 173.72265625 28.875 C168.97450566 29.03443423 166.8303484 30.98397057 163.4375 34 C138.55319738 54.75139682 107.82045498 61.82218871 76 60 C69.19975323 59.25033006 62.59976796 57.77285295 56 56 C55.3282373 55.82339844 54.65647461 55.64679688 53.96435547 55.46484375 C37.78781222 51.06084408 23.77676529 42.66815228 11 32 C10.25363281 31.40574219 9.50726563 30.81148438 8.73828125 30.19921875 C3.01319434 25.48642618 -1.43813778 19.81380185 -6 14 C-6.73992187 13.12859375 -7.47984375 12.2571875 -8.2421875 11.359375 C-10.48277615 8.35200712 -10.47883845 6.67109479 -10 3 C-7.12398147 -1.3140278 -4.73098834 -1.55079225 0 0 Z " fill="#000000" transform="translate(280,316)"/>
<path d="M0 0 C2.45179582 2.08319814 3.81070721 3.69302533 4.28125 6.94189453 C4.31406297 9.17266349 4.18698766 11.3396365 4 13.5625 C3.96777344 14.31724609 3.93554688 15.07199219 3.90234375 15.84960938 C3.65009505 19.52015142 3.37045631 21.49957267 1.140625 24.51171875 C-1.68162343 26.47390242 -3.63907748 26.30553841 -7 26 C-7.27972656 26.8559375 -7.55945313 27.711875 -7.84765625 28.59375 C-8.97486376 31.92569899 -10.20252326 35.20672869 -11.4375 38.5 C-20.74424319 64.69065782 -20.13988117 93.09876528 -8.14770508 118.31860352 C-6.51822764 121.59506292 -4.78719516 124.80725492 -3 128 C-2.16662109 129.49660156 -2.16662109 129.49660156 -1.31640625 131.0234375 C3.17673996 138.54433931 8.88211417 144.7949648 15 151 C15.71929687 151.7321875 16.43859375 152.464375 17.1796875 153.21875 C24.59688707 160.27208695 33.74547241 165.66178731 43.04296875 169.87890625 C43.68661377 170.17531006 44.33025879 170.47171387 44.9934082 170.77709961 C46.77274553 171.57892114 48.56961026 172.34151306 50.3671875 173.1015625 C53 175 53 175 53.97265625 178.5546875 C54 182 54 182 52.5625 184.5 C48.94860112 186.615453 45.92218071 185.88024581 42 185 C39.33870751 184.06350052 36.87416614 182.8665219 34.375 181.5625 C33.68623779 181.20833008 32.99747559 180.85416016 32.2878418 180.48925781 C3.71868811 165.37038956 -17.22616325 139.76087272 -27 109 C-35.17090004 80.54618082 -32.68139579 52.27298899 -21.26953125 25.14453125 C-19.07181656 20.1456778 -19.07181656 20.1456778 -20.125 15.0625 C-21 12 -21 12 -19.953125 9.546875 C-17.52871889 6.38544943 -15.1434548 5.03529262 -11.625 3.1875 C-10.50351562 2.58292969 -9.38203125 1.97835937 -8.2265625 1.35546875 C-3.28631791 -0.71991245 -3.28631791 -0.71991245 0 0 Z " fill="#000000" transform="translate(56,179)"/>
<path d="M0 0 C0.6875 3.125 0.6875 3.125 1 6 C1.80308594 6.0825 2.60617187 6.165 3.43359375 6.25 C8.00026417 7.21035128 11.86977506 8.98859969 16.0625 11 C16.90304932 11.40299316 17.74359863 11.80598633 18.60961914 12.22119141 C30.96857649 18.29495215 41.23247707 26.38046984 51 36 C51.85335937 36.82886719 52.70671875 37.65773437 53.5859375 38.51171875 C76.86236422 62.48570399 84.56534434 94.08874687 84.21484375 126.52734375 C83.9210889 141.22420893 81.20828752 159.02390352 72 171 C68.60358816 172.20289586 66.95048779 172.40020538 63.625 171 C61.17644911 167.9863989 61.72556249 165.8306902 62 162 C62.77031712 158.99092686 63.80985468 156.10330059 64.875 153.1875 C74.45680566 125.53857778 71.92904435 97.44213072 59.28125 71.17041016 C47.1201788 47.13224882 26.4171289 28.91518342 1 20 C-2.92941451 19.62354406 -2.92941451 19.62354406 -5.375 21.625 C-8 23 -8 23 -10.83203125 22.34765625 C-16.45636993 19.95505842 -22.21953513 15.56092973 -25.00390625 9.9921875 C-25.375 8.1875 -25.375 8.1875 -25 5 C-19.6993692 -1.54927824 -7.24181688 -4.82787792 0 0 Z " fill="#000000" transform="translate(403,138)"/>
<path d="M0 0 C8.27484831 4.77504089 13.12004691 11.1678114 15.890625 20.33203125 C17.67194135 29.38111831 15.76675617 37.88012607 10.80859375 45.61328125 C5.89558215 51.79229347 -0.94617561 55.8076124 -8.71875 57.31640625 C-18.09875336 58.15882451 -26.29308189 56.28922626 -33.71875 50.31640625 C-40.97849999 43.30645411 -43.80684271 37.53054186 -44.15625 27.44140625 C-43.96798423 19.0770269 -41.86167118 11.29330253 -35.71875 5.31640625 C-24.96442279 -2.88813783 -12.77539063 -5.95217063 0 0 Z " fill="#000000" transform="translate(158.71875,226.68359375)"/>
</svg>
