<?xml version="1.0" encoding="UTF-8"?>
<svg version="1.1" xmlns="http://www.w3.org/2000/svg" width="512" height="512">
<path d="M0 0 C0.95390625 -0.0038269 1.9078125 -0.00765381 2.890625 -0.01159668 C4.90105245 -0.01431036 6.91151553 -0.00698737 8.921875 0.00976562 C11.99038787 0.03118291 15.05655952 0.00994534 18.125 -0.015625 C20.08333848 -0.01298163 22.0416755 -0.00785645 24 0 C25.36898437 -0.01214539 25.36898437 -0.01214539 26.765625 -0.02453613 C32.34736295 0.05719497 35.57411798 0.80874566 40 4.53125 C44.4639657 9.21693585 44.42622861 13.42988975 44.3515625 19.58984375 C44.30128906 21.23146484 44.30128906 21.23146484 44.25 22.90625 C44.23195313 24.02386719 44.21390625 25.14148438 44.1953125 26.29296875 C44.14835555 29.0399503 44.08269468 31.78515047 44 34.53125 C45.17691406 34.7271875 46.35382813 34.923125 47.56640625 35.125 C67.21154387 38.60508809 85.48231215 45.01033717 103 54.53125 C104.04800781 55.07910156 105.09601563 55.62695312 106.17578125 56.19140625 C110.326237 58.38738487 114.21072 60.60683456 117.9375 63.46875 C120.64239352 65.71765788 120.64239352 65.71765788 122.86328125 65.4921875 C125.98741518 64.08718394 127.9708907 61.69630312 130.25 59.21875 C135.51728103 53.74678643 139.77604319 50.04998154 147.5625 49.09375 C155.03698766 50.04504843 159.41359316 53.34411396 164.51953125 58.5546875 C165.10417648 59.1378775 165.68882172 59.7210675 166.29118347 60.32192993 C167.51692061 61.54931791 168.73775424 62.78162064 169.95385742 64.01855469 C171.81231855 65.90606571 173.68883927 67.77410771 175.56835938 69.640625 C176.76153408 70.84003527 177.95362959 72.04052029 179.14453125 73.2421875 C179.70284134 73.79756195 180.26115143 74.3529364 180.83638 74.92514038 C185.07254641 79.26507401 186.78491141 82.34451602 187.375 88.34375 C187.03185076 96.71971092 182.40725727 101.33905461 176.6875 106.78125 C176.12321289 107.28881836 175.55892578 107.79638672 174.97753906 108.31933594 C171.98434828 110.88221841 171.98434828 110.88221841 170.890625 114.46875 C172.50875887 117.47711156 174.2461559 120.3904171 176.0625 123.28125 C185.81190119 139.23765291 199 161.40835714 199 180.53125 C198.1440625 180.21671875 197.288125 179.9021875 196.40625 179.578125 C181.5794697 175.0212705 166.68389279 178.20713207 153 184.53125 C152.01 184.86125 151.02 185.19125 150 185.53125 C149.8047876 185.0144165 149.6095752 184.49758301 149.40844727 183.96508789 C133.47681034 142.12895115 108.37080285 111.52568356 67 92.53125 C32.00959627 77.75465474 -7.05868378 78.55810628 -42.1875 92.21875 C-76.37556723 106.20522999 -104.71874213 133.48262499 -119.19140625 167.57421875 C-126.65584087 185.95642738 -130.23332147 204.06360304 -130.25 223.90625 C-130.25067474 224.62467072 -130.25134949 225.34309143 -130.25204468 226.08328247 C-130.23593482 236.87041497 -129.73462213 247.04304061 -127 257.53125 C-126.82839355 258.22138184 -126.65678711 258.91151367 -126.47998047 259.62255859 C-123.81951281 270.19072548 -120.00085946 279.86492405 -115 289.53125 C-114.67547852 290.17416992 -114.35095703 290.81708984 -114.01660156 291.47949219 C-96.92876869 325.04310584 -66.89870138 348.74486225 -31.55908203 360.71044922 C-0.25618392 370.75055067 29.80626544 367.47411008 61 359.53125 C61.19822574 364.42399496 61.34312625 369.31439169 61.43945312 374.21020508 C61.47961164 375.8740307 61.53415464 377.53757522 61.60351562 379.20043945 C62.16788023 393.08131881 62.16788023 393.08131881 59.2824707 396.66357422 C57.21815595 397.9275751 55.26372227 398.70104411 53 399.53125 C45.9714999 406.40356121 44.7370899 414.06638313 44.57617188 423.56054688 C44.56700662 425.67772094 44.56184179 427.79491586 44.56054688 429.91210938 C44.45080552 435.91761025 44.28495727 439.93153794 40 444.53125 C34.73923526 448.96268144 30.57520713 449.12083407 24 449.0625 C22.56914062 449.06824036 22.56914062 449.06824036 21.109375 449.07409668 C19.09894755 449.07681036 17.08848447 449.06948737 15.078125 449.05273438 C12.00961213 449.03131709 8.94344048 449.05255466 5.875 449.078125 C3.91666152 449.07548163 1.9583245 449.07035645 0 449.0625 C-1.36898437 449.07464539 -1.36898437 449.07464539 -2.765625 449.08703613 C-8.34736295 449.00530503 -11.57411798 448.25375434 -16 444.53125 C-20.4639657 439.84556415 -20.42622861 435.63261025 -20.3515625 429.47265625 C-20.30128906 427.83103516 -20.30128906 427.83103516 -20.25 426.15625 C-20.23195312 425.03863281 -20.21390625 423.92101562 -20.1953125 422.76953125 C-20.14835555 420.0225497 -20.08269468 417.27734953 -20 414.53125 C-21.76537109 414.23734375 -21.76537109 414.23734375 -23.56640625 413.9375 C-43.21154387 410.45741191 -61.48231215 404.05216283 -79 394.53125 C-80.04800781 393.98339844 -81.09601563 393.43554688 -82.17578125 392.87109375 C-86.326237 390.67511513 -90.21072 388.45566544 -93.9375 385.59375 C-96.64073877 383.34715607 -96.64073877 383.34715607 -98.8515625 383.56640625 C-102.023629 384.99095248 -104.1046151 387.40329234 -106.4375 389.90625 C-110.78919027 394.54161494 -114.7495363 398.61437504 -121.3125 399.40625 C-122.00988281 399.50679688 -122.70726563 399.60734375 -123.42578125 399.7109375 C-130.67756165 399.20474342 -135.48779537 395.79714489 -140.36328125 390.796875 C-140.92194382 390.24062439 -141.48060638 389.68437378 -142.05619812 389.11126709 C-143.22591874 387.94057346 -144.38950725 386.76372312 -145.54711914 385.58105469 C-147.30975462 383.78404892 -149.09521506 382.01234779 -150.88476562 380.2421875 C-152.02487642 379.09517847 -153.16359708 377.94678564 -154.30078125 376.796875 C-154.82891922 376.2736969 -155.35705719 375.7505188 -155.90119934 375.21148682 C-160.25010221 370.72330817 -162.63303239 366.41456692 -163.4375 360.09375 C-162.34686099 351.21283232 -157.32023332 346.44766736 -150.97753906 340.7434082 C-147.95716795 338.16032492 -147.95716795 338.16032492 -146.921875 334.53125 C-148.35976527 331.86385935 -149.91301455 329.32487923 -151.5625 326.78125 C-164.84240954 305.7492008 -174.82730605 281.29108741 -178 256.53125 C-178.69561035 256.55219727 -179.3912207 256.57314453 -180.10791016 256.59472656 C-183.28012458 256.6782198 -186.45210731 256.73001529 -189.625 256.78125 C-190.71941406 256.81476563 -191.81382812 256.84828125 -192.94140625 256.8828125 C-199.10136025 256.95747861 -203.31431415 256.9952157 -208 252.53125 C-212.42840875 247.26608094 -212.58960584 243.10891084 -212.53125 236.53125 C-212.5350769 235.57734375 -212.53890381 234.6234375 -212.54284668 233.640625 C-212.54556036 231.63019755 -212.53823737 229.61973447 -212.52148438 227.609375 C-212.50006709 224.54086213 -212.52130466 221.47469048 -212.546875 218.40625 C-212.54423163 216.44791152 -212.53910645 214.4895745 -212.53125 212.53125 C-212.53934692 211.61859375 -212.54744385 210.7059375 -212.55578613 209.765625 C-212.47405503 204.18388705 -211.72250434 200.95713202 -208 196.53125 C-203.31431415 192.0672843 -199.10136025 192.10502139 -192.94140625 192.1796875 C-191.29978516 192.22996094 -191.29978516 192.22996094 -189.625 192.28125 C-188.50738281 192.29929688 -187.38976562 192.31734375 -186.23828125 192.3359375 C-183.4912997 192.38289445 -180.74609953 192.44855532 -178 192.53125 C-177.8040625 191.35433594 -177.608125 190.17742187 -177.40625 188.96484375 C-173.15647424 164.97727535 -164.65312492 142.08180409 -151.23681641 121.70532227 C-148.34273679 117.42149839 -148.34273679 117.42149839 -147 112.53125 C-148.83901783 110.42435559 -150.62214949 108.63900388 -152.6875 106.78125 C-158.38983855 101.35562805 -162.98170314 96.7363306 -163.4375 88.40625 C-162.62184678 81.18189286 -158.93623862 77.01521245 -153.9765625 72.109375 C-153.3933725 71.52331482 -152.8101825 70.93725464 -152.20932007 70.33343506 C-150.98079568 69.10287856 -149.74851209 67.87606478 -148.51269531 66.65283203 C-146.62726702 64.78349767 -144.75841533 62.89865835 -142.890625 61.01171875 C-141.6910651 59.81414087 -140.49057514 58.61749371 -139.2890625 57.421875 C-138.73368805 56.86042786 -138.1783136 56.29898071 -137.60610962 55.72052002 C-133.268463 51.46019462 -130.20083331 49.74772541 -124.1875 49.15625 C-115.81153908 49.49939924 -111.19219539 54.12399273 -105.75 59.84375 C-104.98864746 60.69018066 -104.98864746 60.69018066 -104.21191406 61.55371094 C-101.62903415 64.5741542 -101.62903415 64.5741542 -98 65.609375 C-95.33260935 64.17148473 -92.79362923 62.61823545 -90.25 60.96875 C-69.2179508 47.68884046 -44.75983741 37.70394395 -20 34.53125 C-20.02094727 33.83563965 -20.04189453 33.1400293 -20.06347656 32.42333984 C-20.1469698 29.25112542 -20.19876529 26.07914269 -20.25 22.90625 C-20.28351563 21.81183594 -20.31703125 20.71742187 -20.3515625 19.58984375 C-20.42622861 13.42988975 -20.4639657 9.21693585 -16 4.53125 C-10.73483094 0.10284125 -6.57766084 -0.05835584 0 0 Z " fill="#000000" transform="translate(244,31.46875)"/>
<path d="M0 0 C4.16347012 3.4964018 8.08707008 7.22822917 12 11 C12.71800781 11.65484375 13.43601562 12.3096875 14.17578125 12.984375 C29.68672001 27.53170834 43.43656639 51.42199725 46.36328125 72.6328125 C45.49414409 78.29622241 41.41658063 83.46460894 37 87 C33.69123068 88.62168931 30.22384208 89.42621855 26.65576172 90.28271484 C12.92967725 93.58020972 2.72740301 101.02204267 -7 111 C-7.66515625 111.65613281 -8.3303125 112.31226563 -9.015625 112.98828125 C-25.33962425 130.15789308 -29.19794542 153.47977435 -29.4140625 176.2734375 C-29.44311172 178.20807358 -29.44311172 178.20807358 -29.4727478 180.18179321 C-29.52334776 183.55828087 -29.56335148 186.93480768 -29.60089111 190.3114624 C-29.64139219 193.77804662 -29.69227021 197.24447835 -29.7421875 200.7109375 C-29.83808835 207.473846 -29.92275801 214.23685326 -30 221 C-32.07171117 221.80698481 -34.14441355 222.6114253 -36.2175293 223.41479492 C-37.94872261 224.08716438 -37.94872261 224.08716438 -39.71488953 224.77311707 C-70.18010321 236.15089296 -105.56492324 231.20354572 -134.609375 218.41015625 C-147.5897663 212.28052703 -158.66090104 203.89876255 -169 194 C-170.11955078 192.97519531 -170.11955078 192.97519531 -171.26171875 191.9296875 C-177.88236958 185.66722196 -182.97963336 178.55651738 -188 171 C-188.6290625 170.06671875 -189.258125 169.1334375 -189.90625 168.171875 C-207.23601593 140.60179284 -211.95805078 104.20535241 -204.83911133 72.62255859 C-198.98202063 49.42699349 -187.50045466 29.23446065 -171 12 C-170.31679687 11.25363281 -169.63359375 10.50726563 -168.9296875 9.73828125 C-162.66722196 3.11763042 -155.55651738 -1.97963336 -148 -7 C-147.06671875 -7.6290625 -146.1334375 -8.258125 -145.171875 -8.90625 C-101.48549496 -36.36626031 -40.1181882 -31.82981753 0 0 Z " fill="#000000" transform="translate(335,154)"/>
<path d="M0 0 C0.85464844 -0.020625 1.70929688 -0.04125 2.58984375 -0.0625 C6.08313588 -0.08429901 8.79507611 -0.05024536 12.03125 1.328125 C14.22166302 4.19430374 14.23944583 6.68548058 14.5 10.25 C13.67626953 13.39624023 13.67626953 13.39624023 12.3828125 16.55859375 C11.72152344 18.29786133 11.72152344 18.29786133 11.046875 20.07226562 C10.09711099 22.48711889 9.12559383 24.89352669 8.1328125 27.29101562 C6.86527031 30.68810414 5.85389884 33.63896383 5.5 37.25 C7.14336713 40.76999992 9.52318825 42.82497857 12.5 45.25 C13.2940625 46.136875 14.088125 47.02375 14.90625 47.9375 C15.5971875 48.700625 16.288125 49.46375 17 50.25 C19.67048344 53.20869751 22.32298058 56.17926472 24.9375 59.1875 C27.74822525 62.41559512 30.615799 65.58738443 33.5 68.75 C56.03232759 93.49137931 56.03232759 93.49137931 55.89453125 104.0390625 C55.23145047 109.43562091 52.64528952 112.92988889 49.5 117.25 C48.69249105 118.434279 47.88798994 119.62061254 47.0859375 120.80859375 C46.22598794 122.06129154 45.36401147 123.31260034 44.5 124.5625 C44.0973291 125.14950684 43.6946582 125.73651367 43.27978516 126.34130859 C39.87389729 131.12430635 36.22048292 135.34317236 30.5 137.25 C24.81100393 137.81348152 20.31312685 137.59826216 15.5 134.25 C12.96802915 131.73346799 10.5831446 129.15284351 8.5 126.25 C8.5 125.59 8.5 124.93 8.5 124.25 C7.5934668 124.26571045 6.68693359 124.2814209 5.75292969 124.29760742 C2.33099439 124.34928972 -1.09051541 124.38661492 -4.51269531 124.41479492 C-5.98281473 124.42971429 -7.452891 124.45005727 -8.92285156 124.47631836 C-21.65705062 124.69782046 -33.77663936 124.44895467 -43.5 115.25 C-44.04269531 114.75886719 -44.58539063 114.26773438 -45.14453125 113.76171875 C-49.57244401 109.24412674 -51.3387551 103.9720681 -53.32421875 98.04296875 C-54.31292204 94.9763092 -54.31292204 94.9763092 -57.5 93.25 C-61.07176115 93.33167489 -61.07176115 93.33167489 -64.5 94.25 C-66.81131696 97.71697543 -66.73460717 99.54524983 -66.15625 103.59375 C-63.27904275 115.23958888 -55.5718346 125.32222565 -45.5 131.6875 C-35.58050464 137.13168815 -25.7194152 138.29495488 -14.5625 138.8125 C-13.68787109 138.85568359 -12.81324219 138.89886719 -11.91210938 138.94335938 C-9.77488005 139.04846901 -7.63745762 139.14963985 -5.5 139.25 C-5.0978125 140.46623047 -5.0978125 140.46623047 -4.6875 141.70703125 C0.92826647 157.57526611 9.1350677 166.19617516 24.0625 173.5625 C25.07441406 174.03300781 26.08632813 174.50351562 27.12890625 174.98828125 C29.5 176.25 29.5 176.25 30.5 178.25 C30.5 185.51 30.5 192.77 30.5 200.25 C-14.05 200.25 -58.6 200.25 -104.5 200.25 C-104.561875 182.595 -104.62375 164.94 -104.6875 146.75 C-104.71481201 141.20509766 -104.74212402 135.66019531 -104.77026367 129.94726562 C-104.78381348 123.10058594 -104.78381348 123.10058594 -104.78633118 119.8807373 C-104.79089447 117.66392197 -104.80135386 115.44711341 -104.81672668 113.23034668 C-105.03566162 79.954586 -105.03566162 79.954586 -97.8125 66.875 C-97.46292236 66.21491943 -97.11334473 65.55483887 -96.75317383 64.87475586 C-87.99878898 48.83191879 -74.3146684 37.61528781 -56.75 32.375 C-52.21145548 31.2485978 -48.15953709 30.98625262 -43.5 31.25 C-43.26410156 30.56679687 -43.02820313 29.88359375 -42.78515625 29.1796875 C-37.35304705 16.79645983 -27.97438484 7.18462389 -15.54296875 1.9765625 C-10.32578805 0.12112156 -5.49260764 0.0331379 0 0 Z " fill="#000000" transform="translate(424.5,223.75)"/>
<path d="M0 0 C0.98094572 -0.01041829 0.98094572 -0.01041829 1.98170853 -0.02104706 C4.17142158 -0.03933297 6.36005312 -0.02904948 8.54980469 -0.01878357 C10.12024751 -0.02584126 11.69068353 -0.03458565 13.2611084 -0.04489136 C17.52557819 -0.06741092 21.78967731 -0.06443993 26.05418396 -0.05556989 C29.61302338 -0.05046365 33.17179293 -0.05774949 36.73062515 -0.06504196 C45.12484076 -0.08204875 53.51887461 -0.07846688 61.91308594 -0.06175232 C70.57697986 -0.04482404 79.24037021 -0.06067329 87.90420914 -0.0929752 C95.34042213 -0.11965111 102.77647818 -0.12695272 110.21273422 -0.11846012 C114.65516079 -0.11352576 119.09728421 -0.11577395 123.53967285 -0.13624763 C127.7161008 -0.15457396 131.89180284 -0.14868416 136.06819153 -0.12404823 C137.60166561 -0.11903082 139.13519471 -0.12255429 140.66862488 -0.13519669 C142.76104223 -0.15108424 144.85105633 -0.1362233 146.94335938 -0.11352539 C148.11437195 -0.11293908 149.28538452 -0.11235277 150.49188232 -0.1117487 C153.47167969 0.5146637 153.47167969 0.5146637 155.84735107 2.8512888 C157.90421872 6.22388817 157.98811775 8.45392096 158.00292969 12.3896637 C158.01066406 14.36192932 158.01066406 14.36192932 158.01855469 16.3740387 C158.01017578 17.05401917 158.00179687 17.73399963 157.99316406 18.43458557 C157.97173465 20.50934263 157.99299028 22.58063831 158.01855469 24.6552887 C158.01339844 25.97013245 158.00824219 27.2849762 158.00292969 28.6396637 C157.99841797 29.83849182 157.99390625 31.03731995 157.98925781 32.2724762 C157.35653206 36.23596578 156.32037565 37.7127886 153.47167969 40.5146637 C150.49188232 41.14107609 150.49188232 41.14107609 146.94335938 41.14285278 C146.28939556 41.14994717 145.63543175 41.15704156 144.96165085 41.16435093 C142.77168643 41.18194477 140.58349381 41.16382221 138.39355469 41.14576721 C136.82311189 41.15090558 135.25267486 41.15818624 133.68225098 41.16744995 C129.41767574 41.185983 125.15372476 41.17301373 120.88917542 41.15335965 C116.42806253 41.13698737 111.96698963 41.14578406 107.50585938 41.15087891 C100.01389583 41.15540147 92.52218181 41.13952006 85.03027344 41.11158752 C76.36642633 41.07953481 67.70302931 41.07955077 59.03915024 41.09680229 C50.70756126 41.11266163 42.37613742 41.10593767 34.04455566 41.08886528 C30.49755462 41.08198952 26.95068573 41.08303258 23.40368652 41.09041023 C19.22731358 41.09806689 15.05145333 41.08596766 10.87516785 41.05856133 C9.34170555 41.05166983 7.80819543 41.05158774 6.2747345 41.05877686 C4.18258265 41.06745557 2.09201892 41.05154602 0 41.02932739 C-1.75651886 41.02511701 -1.75651886 41.02511701 -3.54852295 41.02082157 C-7.16802162 40.40600199 -8.35345292 39.42796973 -10.52832031 36.5146637 C-11.04589844 33.1865387 -11.04589844 33.1865387 -11.05957031 29.2646637 C-11.06339722 28.56953674 -11.06722412 27.87440979 -11.07116699 27.15821838 C-11.07388211 25.69238329 -11.06654866 24.22649942 -11.04980469 22.76075745 C-11.0283845 20.52137395 -11.04961474 18.28519783 -11.07519531 16.0459137 C-11.07255196 14.61882331 -11.06742681 13.19173491 -11.05957031 11.7646637 C-11.05505859 10.47044495 -11.05054688 9.1762262 -11.04589844 7.8427887 C-10.00904871 1.17564932 -6.25910305 0.01500309 0 0 Z " fill="#000000" transform="translate(314.5283203125,439.48533630371094)"/>
</svg>
