<?xml version="1.0" encoding="UTF-8"?>
<svg version="1.1" xmlns="http://www.w3.org/2000/svg" width="512" height="512">
<path d="M0 0 C0.78697266 0.19867676 1.57394531 0.39735352 2.38476562 0.60205078 C17.83234368 4.62046791 32.57730718 10.30463264 46.125 18.8125 C47.0229126 19.37191284 47.0229126 19.37191284 47.93896484 19.94262695 C49.5703125 21.01953125 49.5703125 21.01953125 52 23 C52 26.80296862 50.96597974 27.61395025 48.5625 30.5 C47.83546875 31.38171875 47.1084375 32.2634375 46.359375 33.171875 C45.58078125 34.10515625 44.8021875 35.0384375 44 36 C41.68191534 38.8400375 39.3671734 41.68274604 37.0546875 44.52734375 C35.8431581 45.98532494 34.60734104 47.42461957 33.3203125 48.81640625 C31.23938569 51.06780447 30.06405086 52.53019114 29.64428711 55.60913086 C30.12542319 60.19560921 31.82250561 63.78790026 33.75390625 67.94140625 C34.53326143 69.6764061 35.3125565 71.41143296 36.09179688 73.14648438 C37.32817075 75.86266708 38.56902689 78.57674339 39.81225586 81.28979492 C41.01230263 83.91877438 42.19612067 86.55462641 43.37890625 89.19140625 C43.94442955 90.40407921 43.94442955 90.40407921 44.52137756 91.64125061 C47.03834435 97.26821099 47.03834435 97.26821099 46.84716797 100.91674805 C45.66395296 103.82636582 43.95664294 105.23309331 41.5625 107.25 C40.20705078 108.41402344 40.20705078 108.41402344 38.82421875 109.6015625 C37.89222656 110.39304687 36.96023437 111.18453125 36 112 C34.28665869 113.5360991 32.57816644 115.07762708 30.875 116.625 C27.14594818 119.98349935 23.38589614 123.30279905 19.59375 126.58984375 C18.3569701 127.68415145 17.16771869 128.83228131 16 130 C15.83322718 133.58343976 15.83322718 133.58343976 16 137 C19.08077858 137.53913625 21.19100861 137.54969927 23.828125 135.7578125 C25.94244539 133.89274126 27.97254626 131.95915299 30 130 C31.66165788 128.49445329 33.32849799 126.99460992 35 125.5 C35.845625 124.736875 36.69125 123.97375 37.5625 123.1875 C39.69417481 121.27445851 41.8401911 119.38112388 44 117.5 C44.94359375 116.66662109 44.94359375 116.66662109 45.90625 115.81640625 C47.48819475 114.44401015 49.09734573 113.10288833 50.71875 111.77734375 C51.6365625 111.00519531 52.554375 110.23304688 53.5 109.4375 C54.3559375 108.73496094 55.211875 108.03242188 56.09375 107.30859375 C58.20965809 105.15910057 58.20965809 105.15910057 58.3515625 102.41455078 C57.87868422 97.82172049 56.20170435 94.22340098 54.28125 90.05859375 C53.90391724 89.21329605 53.52658447 88.36799835 53.13781738 87.49708557 C51.93567778 84.805709 50.71940049 82.12109574 49.5 79.4375 C48.28126132 76.75006813 47.06601688 74.06134662 45.86218262 71.36720276 C45.11430987 69.69372071 44.35788152 68.02402929 43.59191895 66.35874939 C40.35997523 59.13177476 40.35997523 59.13177476 41 55 C42.43359375 52.9296875 42.43359375 52.9296875 44.4375 50.875 C47.70134623 47.40788933 50.80478251 43.88058263 53.8125 40.1875 C54.54082031 39.29417969 55.26914062 38.40085938 56.01953125 37.48046875 C57.72193106 35.34827175 59.37868228 33.19414922 61 31 C84.05321944 41.1875275 100.04100719 72.69317348 108.83813477 94.91894531 C122.45752923 130.66848838 122.31439161 172.98476774 107.62890625 208.296875 C102.28706094 219.73720094 94.37612016 229.5350496 86.18139648 239.03930664 C80.72519107 245.40887719 75.75935038 252.09704255 71 259 C70.40856201 259.85271484 70.40856201 259.85271484 69.80517578 260.72265625 C49.65841548 290.34569656 41.2541385 330.05322016 31.17915344 363.97451782 C30.90693466 364.88317596 30.63471588 365.79183411 30.35424805 366.72802734 C30.11594772 367.53122406 29.8776474 368.33442078 29.63212585 369.16195679 C29 371 29 371 28 372 C16.45 372 4.9 372 -7 372 C-7 329.1 -7 286.2 -7 242 C3.89 241.67 14.78 241.34 26 241 C37.16406289 237.45724341 37.16406289 237.45724341 46 231 C46.54269531 230.49855469 47.08539063 229.99710938 47.64453125 229.48046875 C53.70999516 223.16931517 57.55965362 214.00258079 58.0625 205.265625 C57.78191023 195.09424572 54.70050951 185.32608564 47.88671875 177.60546875 C39.34221724 169.65126096 29.51256134 165.38438301 17.7734375 165.69140625 C6.10399324 166.98983737 -2.93818495 171.7321867 -10.3125 180.8125 C-17.38998509 191.39903466 -17.64586332 201.27632739 -17.75 213.625 C-17.77820664 215.31383206 -17.8081405 217.00263621 -17.83984375 218.69140625 C-17.91634964 222.79453812 -17.95738134 226.89582286 -18 231 C-29.22 231 -40.44 231 -52 231 C-52.25 215.8125 -52.25 215.8125 -52.29785156 211.10864258 C-52.57835149 199.50111264 -53.95135119 188.59336385 -61.828125 179.48828125 C-63 178 -63 178 -63 176 C-63.56203125 175.731875 -64.1240625 175.46375 -64.703125 175.1875 C-67.15191922 173.92145673 -69.42528754 172.48070857 -71.75 171 C-80.24219368 165.91708116 -88.76921136 164.69428855 -98.57421875 166.46484375 C-109.17022247 169.27602841 -117.21195721 174.64061165 -123 184 C-127.87938173 193.28272621 -129.70937479 202.5471259 -127.31640625 212.98046875 C-123.62478884 223.84087016 -117.91167807 231.87216797 -107.6640625 237.21875 C-93.22498349 243.9346007 -80.23137419 241.47783715 -63 242 C-63 284.9 -63 327.8 -63 372 C-74.22 372 -85.44 372 -97 372 C-97.94359375 368.94105469 -98.8871875 365.88210938 -99.859375 362.73046875 C-118.46409319 297.85675883 -118.46409319 297.85675883 -153.3984375 240.96484375 C-176.10446646 214.05973341 -186.69881331 186.22751763 -186.5 150.9375 C-186.49823761 150.09304321 -186.49647522 149.24858643 -186.49465942 148.37854004 C-186.39620882 127.09817803 -184.22994324 99.77926616 -171 82 C-168.69726562 81.38525391 -168.69726562 81.38525391 -165.90625 81.3515625 C-160.6945451 81.12708244 -155.67563661 80.58478808 -150.53125 79.7734375 C-149.79648438 79.66066467 -149.06171875 79.54789185 -148.3046875 79.43170166 C-145.25830163 78.96355453 -142.21315801 78.48793411 -139.16894531 78.00585938 C-136.91571037 77.65073511 -134.66115855 77.30525007 -132.40625 76.9609375 C-131.37812195 76.79384781 -131.37812195 76.79384781 -130.32922363 76.62338257 C-126.93932264 76.11119447 -124.21153332 75.70785303 -121 77 C-119.88705444 78.71905518 -119.88705444 78.71905518 -119.01708984 80.98144531 C-118.68349457 81.82612366 -118.34989929 82.670802 -118.00619507 83.54107666 C-117.66126007 84.46080261 -117.31632507 85.38052856 -116.9609375 86.328125 C-116.59400787 87.26928162 -116.22707825 88.21043823 -115.84902954 89.18011475 C-114.67629456 92.19794985 -113.5254428 95.2236056 -112.375 98.25 C-111.59258074 100.27529451 -110.80874348 102.30004182 -110.0234375 104.32421875 C-108.581475 108.04647704 -107.14786211 111.77171174 -105.72412109 115.50097656 C-105.41512878 116.29088989 -105.10613647 117.08080322 -104.78778076 117.89465332 C-104 120 -104 120 -103.13916016 123.05371094 C-102.11000491 125.28711014 -102.11000491 125.28711014 -99.28491211 125.98730469 C-95.26368509 126.00284566 -93.02904842 125.00713166 -89.44140625 123.203125 C-88.82339142 122.89816605 -88.20537659 122.59320709 -87.56863403 122.27900696 C-85.55911983 121.2835995 -83.5612233 120.26687444 -81.5625 119.25 C-80.1783408 118.56070796 -78.79332259 117.87313833 -77.4074707 117.18725586 C-74.61038302 115.80126309 -71.81698144 114.40825625 -69.02636719 113.00927734 C-63.27627801 110.13217388 -57.48552711 107.34164982 -51.6875 104.5625 C-50.72851807 104.09682617 -49.76953613 103.63115234 -48.78149414 103.15136719 C-47.90871826 102.73145508 -47.03594238 102.31154297 -46.13671875 101.87890625 C-45.00302856 101.33085327 -45.00302856 101.33085327 -43.84643555 100.77172852 C-42 100 -42 100 -40 100 C-40 97.69 -40 95.38 -40 93 C-43.05073267 91.36428207 -44.41841031 90.83252971 -47.8046875 91.80761719 C-48.81789062 92.29907227 -49.83109375 92.79052734 -50.875 93.296875 C-52.01614258 93.83932861 -53.15728516 94.38178223 -54.33300781 94.94067383 C-55.55550962 95.54343571 -56.77783699 96.14655148 -58 96.75 C-59.25018203 97.35150768 -60.50116645 97.95135038 -61.75292969 98.54956055 C-64.28584967 99.76320547 -66.81380114 100.98635895 -69.33789062 102.21826172 C-73.69860785 104.34489222 -78.08337899 106.41989698 -82.46875 108.49511719 C-86.3180941 110.31841957 -90.15975827 112.15761938 -94 114 C-96.48427415 111.78205676 -97.68174857 109.83657806 -98.88525391 106.74389648 C-99.2221524 105.88968613 -99.5590509 105.03547577 -99.90615845 104.15538025 C-100.25939178 103.2365657 -100.61262512 102.31775116 -100.9765625 101.37109375 C-101.53263687 99.95293114 -101.53263687 99.95293114 -102.09994507 98.50611877 C-103.28237966 95.48608154 -104.45393124 92.46196039 -105.625 89.4375 C-106.80558914 86.41044065 -107.98834191 83.38423408 -109.17147827 80.35816956 C-109.90690247 78.47478596 -110.64037534 76.59063904 -111.37173462 74.70567322 C-111.7023288 73.85461502 -112.03292297 73.00355682 -112.37353516 72.12670898 C-112.6642691 71.37630844 -112.95500305 70.6259079 -113.25454712 69.85276794 C-113.99025214 67.95196912 -113.99025214 67.95196912 -115 66 C-117.88519644 64.95662186 -120.13573503 64.97342249 -123.13842773 65.43725586 C-123.94283798 65.5574559 -124.74724823 65.67765594 -125.57603455 65.80149841 C-126.43652908 65.93790237 -127.29702362 66.07430634 -128.18359375 66.21484375 C-129.07611343 66.34943497 -129.96863312 66.48402618 -130.88819885 66.62269592 C-133.73914233 67.0536132 -136.58834923 67.49489713 -139.4375 67.9375 C-142.28326636 68.37510664 -145.12933826 68.81043792 -147.97608948 69.24159241 C-149.74635787 69.51015712 -151.51603606 69.78264922 -153.28501892 70.05955505 C-157.226769 70.66164296 -160.99782113 71.17577998 -165 71 C-150.54130736 40.80449824 -118.95724607 17.15192132 -88 6 C-60.18248242 -3.64020868 -28.89171417 -7.4093267 0 0 Z " fill="#000000" transform="translate(202,21)"/>
<path d="M0 0 C0.92941406 -0.01224609 1.85882813 -0.02449219 2.81640625 -0.03710938 C9.08946643 -0.05023293 15.06180373 0.4954634 21.125 2.1875 C22.72568712 3.78818712 22.57482707 5.67102697 22.87890625 7.87890625 C23.01103516 8.82314453 23.14316406 9.76738281 23.27929688 10.74023438 C23.41400391 11.73345703 23.54871094 12.72667969 23.6875 13.75 C23.89536133 15.24563477 23.89536133 15.24563477 24.10742188 16.77148438 C24.45035906 19.24299716 24.78937454 21.71498545 25.125 24.1875 C26.23359375 24.59742188 27.3421875 25.00734375 28.484375 25.4296875 C29.94796029 25.97384101 31.41149955 26.51811835 32.875 27.0625 C33.60460937 27.33191406 34.33421875 27.60132813 35.0859375 27.87890625 C35.79492188 28.14316406 36.50390625 28.40742188 37.234375 28.6796875 C37.88374023 28.92058105 38.53310547 29.16147461 39.20214844 29.40966797 C41.23708447 30.23284042 43.17458935 31.18193809 45.125 32.1875 C45.58874023 31.82398438 46.05248047 31.46046875 46.53027344 31.0859375 C48.63756432 29.44307204 50.75600667 27.81523882 52.875 26.1875 C53.60460937 25.61515625 54.33421875 25.0428125 55.0859375 24.453125 C55.79492188 23.91171875 56.50390625 23.3703125 57.234375 22.8125 C57.88374023 22.30976563 58.53310547 21.80703125 59.20214844 21.2890625 C61.125 20.1875 61.125 20.1875 65.125 20.1875 C74.47254184 25.94504389 88.46281563 38.0822728 93.125 48.1875 C92.64726446 51.3029754 91.63047705 53.10260544 89.5859375 55.46484375 C89.08835937 56.06103516 88.59078125 56.65722656 88.078125 57.27148438 C87.02467214 58.50876997 85.96473065 59.74055975 84.8984375 60.96679688 C81.89569727 64.41867929 81.89569727 64.41867929 81.1328125 68.75390625 C81.62394531 69.95853516 81.62394531 69.95853516 82.125 71.1875 C82.5065625 72.156875 82.888125 73.12625 83.28125 74.125 C83.7246875 75.135625 84.168125 76.14625 84.625 77.1875 C86.30075657 81.00666613 87.2944223 84.03461149 88.125 88.1875 C95.715 89.1775 103.305 90.1675 111.125 91.1875 C111.89753741 95.82272444 112.2535542 99.70341645 112.2578125 104.34375 C112.25876923 105.00910767 112.25972595 105.67446533 112.26071167 106.35998535 C112.26138827 107.75838313 112.25957047 109.15678414 112.25537109 110.55517578 C112.2500154 112.68138766 112.25533375 114.80738834 112.26171875 116.93359375 C112.26105788 118.29947963 112.25977652 119.66536537 112.2578125 121.03125 C112.25668457 122.26037109 112.25555664 123.48949219 112.25439453 124.75585938 C112.125 128.1875 112.125 128.1875 111.125 134.1875 C103.535 135.1775 95.945 136.1675 88.125 137.1875 C87.135 140.8175 86.145 144.4475 85.125 148.1875 C84.3825 149.651875 83.64 151.11625 82.875 152.625 C80.90028584 155.83382836 80.90028584 155.83382836 81.35693359 158.203125 C82.19335472 160.36410113 83.16095551 161.74261785 84.6640625 163.5 C85.16164063 164.10070312 85.65921875 164.70140625 86.171875 165.3203125 C87.22722072 166.56896412 88.28715865 167.81374838 89.3515625 169.0546875 C89.8465625 169.65539062 90.3415625 170.25609375 90.8515625 170.875 C91.31127441 171.41511719 91.77098633 171.95523438 92.24462891 172.51171875 C93.125 174.1875 93.125 174.1875 92.85620117 176.25976562 C88.40659136 187.9906902 73.64056354 199.94234488 63.125 206.1875 C62.65602295 205.82922119 62.1870459 205.47094238 61.70385742 205.10180664 C59.57656224 203.48034609 57.4446098 201.86512359 55.3125 200.25 C54.57451172 199.68603516 53.83652344 199.12207031 53.07617188 198.54101562 C52.36396484 198.00283203 51.65175781 197.46464844 50.91796875 196.91015625 C50.2633667 196.41265869 49.60876465 195.91516113 48.93432617 195.40258789 C47.03206838 194.00853223 47.03206838 194.00853223 44.125 193.1875 C41.86903254 194.06786915 41.86903254 194.06786915 39.5 195.4375 C34.87336957 197.98289538 30.14371617 199.60959911 25.125 201.1875 C25.05506836 201.81317871 24.98513672 202.43885742 24.91308594 203.08349609 C24.58608631 205.91241084 24.23092881 208.73708571 23.875 211.5625 C23.76542969 212.54734375 23.65585937 213.5321875 23.54296875 214.546875 C23.42050781 215.48789062 23.29804688 216.42890625 23.171875 217.3984375 C23.06713867 218.26774902 22.96240234 219.13706055 22.85449219 220.03271484 C22.125 222.1875 22.125 222.1875 20.25170898 223.44848633 C13.86064193 225.66932894 6.99357048 225.37044576 0.3125 225.375 C-0.62142578 225.38724609 -1.55535156 225.39949219 -2.51757812 225.41210938 C-8.80739849 225.42520407 -14.79578835 224.88597635 -20.875 223.1875 C-22.47568712 221.58681288 -22.32482707 219.70397303 -22.62890625 217.49609375 C-22.76103516 216.55185547 -22.89316406 215.60761719 -23.02929688 214.63476562 C-23.16400391 213.64154297 -23.29871094 212.64832031 -23.4375 211.625 C-23.57607422 210.62791016 -23.71464844 209.63082031 -23.85742188 208.60351562 C-24.20035906 206.13200284 -24.53937454 203.66001455 -24.875 201.1875 C-25.97199219 200.77757812 -27.06898438 200.36765625 -28.19921875 199.9453125 C-29.65365686 199.40107114 -31.10808333 198.85679867 -32.5625 198.3125 C-33.28373047 198.04308594 -34.00496094 197.77367187 -34.74804688 197.49609375 C-38.47446483 196.10081397 -42.18824655 194.68547083 -45.875 193.1875 C-46.31368408 193.54577881 -46.75236816 193.90405762 -47.2043457 194.27319336 C-49.19513365 195.89493665 -51.19122568 197.51001591 -53.1875 199.125 C-54.22293945 199.97094727 -54.22293945 199.97094727 -55.27929688 200.83398438 C-55.94638672 201.37216797 -56.61347656 201.91035156 -57.30078125 202.46484375 C-57.91348877 202.96234131 -58.52619629 203.45983887 -59.1574707 203.97241211 C-60.875 205.1875 -60.875 205.1875 -63.875 206.1875 C-73.51612285 200.05224 -88.045045 187.65636797 -92.875 177.1875 C-92.39726446 174.0720246 -91.38047705 172.27239456 -89.3359375 169.91015625 C-88.83835937 169.31396484 -88.34078125 168.71777344 -87.828125 168.10351562 C-86.77467214 166.86623003 -85.71473065 165.63444025 -84.6484375 164.40820312 C-81.64569727 160.95632071 -81.64569727 160.95632071 -80.8828125 156.62109375 C-81.21023438 155.81800781 -81.53765625 155.01492188 -81.875 154.1875 C-82.2565625 153.218125 -82.638125 152.24875 -83.03125 151.25 C-83.4746875 150.239375 -83.918125 149.22875 -84.375 148.1875 C-86.05075657 144.36833387 -87.0444223 141.34038851 -87.875 137.1875 C-95.465 136.1975 -103.055 135.2075 -110.875 134.1875 C-112.74545851 119.44388588 -113.3269321 105.89909259 -110.875 91.1875 C-99.49 89.7025 -99.49 89.7025 -87.875 88.1875 C-86.885 84.5575 -85.895 80.9275 -84.875 77.1875 C-84.1325 75.723125 -83.39 74.25875 -82.625 72.75 C-80.65028584 69.54117164 -80.65028584 69.54117164 -81.10693359 67.171875 C-81.94335472 65.01089887 -82.91095551 63.63238215 -84.4140625 61.875 C-84.91164063 61.27429688 -85.40921875 60.67359375 -85.921875 60.0546875 C-86.97722072 58.80603588 -88.03715865 57.56125162 -89.1015625 56.3203125 C-89.5965625 55.71960938 -90.0915625 55.11890625 -90.6015625 54.5 C-91.06127441 53.95988281 -91.52098633 53.41976562 -91.99462891 52.86328125 C-92.875 51.1875 -92.875 51.1875 -92.59033203 49.09936523 C-88.18017394 37.31235226 -73.4063238 25.3641313 -62.875 19.1875 C-62.41125977 19.55101562 -61.94751953 19.91453125 -61.46972656 20.2890625 C-59.36243568 21.93192796 -57.24399333 23.55976118 -55.125 25.1875 C-54.39539063 25.75984375 -53.66578125 26.3321875 -52.9140625 26.921875 C-52.20507812 27.46328125 -51.49609375 28.0046875 -50.765625 28.5625 C-50.11625977 29.06523437 -49.46689453 29.56796875 -48.79785156 30.0859375 C-46.66587184 31.51889187 -46.66587184 31.51889187 -42.875 31.1875 C-40.3078029 30.26803291 -37.82089986 29.30705954 -35.3125 28.25 C-28.0115 25.233 -28.0115 25.233 -24.875 24.1875 C-24.76224731 23.24898193 -24.76224731 23.24898193 -24.6472168 22.29150391 C-24.29953345 19.46325886 -23.9312915 16.63806671 -23.5625 13.8125 C-23.44455078 12.82765625 -23.32660156 11.8428125 -23.20507812 10.828125 C-23.07939453 9.88710938 -22.95371094 8.94609375 -22.82421875 7.9765625 C-22.65925903 6.67259521 -22.65925903 6.67259521 -22.4909668 5.34228516 C-21.875 3.1875 -21.875 3.1875 -18.875 1.1875 C-12.59298608 0.0891969 -6.36549481 0.00437792 0 0 Z M-47.625 74.375 C-57.25262995 86.72422146 -62.41238848 102.48881483 -60.875 118.1875 C-58.67909402 134.90408154 -51.0076816 149.51298601 -38.125 160.4375 C-22.88574891 171.97179555 -6.21543625 175.04363819 12.41796875 172.7890625 C28.35977846 169.47591986 41.96284807 159.62218855 51.01733398 146.32202148 C60.84590056 131.06792852 62.96550299 114.53830368 59.2265625 97.1015625 C55.06797037 81.07945325 44.30366716 67.86743526 30.2421875 59.46484375 C3.36577242 45.18455532 -27.68936837 51.47731292 -47.625 74.375 Z " fill="#000000" transform="translate(383.875,264.8125)"/>
<path d="M0 0 C0.67933594 0.2784375 1.35867188 0.556875 2.05859375 0.84375 C14.53402121 6.48565872 22.91210259 16.18420908 27.9375 28.8125 C32.30855018 40.740281 32.44616174 53.8198068 27.484375 65.59765625 C20.71506215 79.89486353 11.39892998 88.2564901 -3.2734375 94.08984375 C-15.25532085 98.08952687 -28.51068115 96.90673933 -40 92 C-53.87122234 84.97781393 -61.66688031 75.56454699 -67.0546875 61.078125 C-71.03548948 48.11584418 -69.45743657 34.18743754 -63.25 22.1875 C-55.43294727 8.9866438 -44.79141305 1.57831581 -30.09570312 -2.53271484 C-20.63906643 -4.64128924 -8.85499077 -3.83992123 0 0 Z M-42.25 14.5 C-44.24088444 15.9439079 -44.24088444 15.9439079 -44.88671875 18.70703125 C-45.03632944 23.05605919 -43.26934549 25.04746307 -40.5625 28.1875 C-39.63791924 29.31916714 -38.71476558 30.45200157 -37.79296875 31.5859375 C-37.32552246 32.15151367 -36.85807617 32.71708984 -36.37646484 33.29980469 C-34.27173307 35.89954788 -32.32886709 38.59743155 -30.375 41.3125 C-29.72273438 42.21613281 -29.07046875 43.11976563 -28.3984375 44.05078125 C-27.93695313 44.69402344 -27.47546875 45.33726562 -27 46 C-30.4007443 52.44042193 -34.71653824 57.65282944 -39.48632812 63.12695312 C-42.72685937 66.9734674 -44.94502403 69.73801415 -45 75 C-43.21220342 77.59230504 -42.03997185 77.98667605 -39 79 C-33.28904354 75.71041928 -29.33795819 69.86421801 -25.5625 64.625 C-25.02173828 63.88894531 -24.48097656 63.15289062 -23.92382812 62.39453125 C-22.60829806 60.60168497 -21.30064625 58.80365684 -20 57 C-16.03298513 58.32233829 -15.06910799 60.26330881 -12.625 63.625 C-12.02510254 64.43880127 -12.02510254 64.43880127 -11.41308594 65.26904297 C-9.28101605 68.17271085 -7.24478484 71.12646992 -5.25 74.125 C-2.9133307 77.11074411 -1.7223355 78.3318885 2 79 C4.33333333 78.66666667 4.33333333 78.66666667 6 77 C7.04180663 74.24832272 7.04180663 74.24832272 7 71 C5.60234173 68.6212641 4.32765905 66.81431729 2.5625 64.75 C1.88320435 63.90900757 1.88320435 63.90900757 1.19018555 63.05102539 C-0.99358873 60.35679818 -3.23961199 57.71781544 -5.484375 55.07421875 C-6.21140625 54.20410156 -6.9384375 53.33398438 -7.6875 52.4375 C-8.35136719 51.67308594 -9.01523437 50.90867187 -9.69921875 50.12109375 C-11 48 -11 48 -10.72460938 46.06567383 C-9.52090813 42.63423305 -7.08564238 40.03374345 -4.8125 37.25 C-3.81371222 35.99486317 -2.81501372 34.73965529 -1.81640625 33.484375 C-0.20032115 31.47329477 1.43296832 29.4872107 3.09765625 27.515625 C6.33488825 23.58025756 6.33488825 23.58025756 7.1875 18.625 C6.21350743 15.84275155 6.21350743 15.84275155 3.6875 14.5 C0.48573177 13.90432219 -0.29105035 14.31400806 -3 16 C-4.55890045 17.6243552 -4.55890045 17.6243552 -5.91015625 19.5546875 C-6.42513672 20.25207031 -6.94011719 20.94945312 -7.47070312 21.66796875 C-8.25864258 22.76044922 -8.25864258 22.76044922 -9.0625 23.875 C-9.59166016 24.59558594 -10.12082031 25.31617188 -10.66601562 26.05859375 C-11.65483806 27.40597288 -12.64034099 28.75579936 -13.62133789 30.10888672 C-15.06297302 32.08638021 -16.52779593 34.04519047 -18 36 C-21.96701487 34.67766171 -22.93089201 32.73669119 -25.375 29.375 C-25.77493164 28.83246582 -26.17486328 28.28993164 -26.58691406 27.73095703 C-28.71898395 24.82728915 -30.75521516 21.87353008 -32.75 18.875 C-35.54940667 15.29798037 -37.6381589 13.47514642 -42.25 14.5 Z " fill="#000000" transform="translate(403,331)"/>
<path d="M0 0 C11.22 0 22.44 0 34 0 C34 42.9 34 85.8 34 130 C22.78 130 11.56 130 0 130 C0 87.1 0 44.2 0 0 Z " fill="#000000" transform="translate(150,263)"/>
<path d="M0 0 C2.28359127 -0.37752342 2.28359127 -0.37752342 5.19358826 -0.38095093 C6.29425629 -0.3894104 7.39492432 -0.39786987 8.52894592 -0.40658569 C9.74198898 -0.400513 10.95503204 -0.39444031 12.20483398 -0.38818359 C14.11462036 -0.39606903 14.11462036 -0.39606903 16.06298828 -0.40411377 C19.56098025 -0.41781995 23.05870753 -0.41247495 26.55670428 -0.40297651 C30.21351521 -0.39539526 33.87030307 -0.40242139 37.52711487 -0.40713501 C43.66989216 -0.41259776 49.81256137 -0.40538814 55.95532227 -0.39111328 C63.0604022 -0.37479295 70.16522381 -0.38006856 77.27029747 -0.3965925 C83.36547351 -0.41020132 89.46057173 -0.41212979 95.55575806 -0.40427649 C99.1983066 -0.39959568 102.84073369 -0.39898606 106.48327446 -0.40888596 C110.54426268 -0.41915143 114.6048049 -0.40492813 118.66577148 -0.38818359 C120.48229973 -0.39729263 120.48229973 -0.39729263 122.33552551 -0.40658569 C123.99075729 -0.39389648 123.99075729 -0.39389648 125.6794281 -0.38095093 C126.64010413 -0.37981985 127.60078016 -0.37868877 128.59056759 -0.37752342 C131 0 131 0 132.80909824 1.33630943 C134.66076572 3.92309017 134.38546363 5.91629095 134 9 C132.91870117 10.66918945 132.91870117 10.66918945 131 12 C127.8137207 12.34057617 127.8137207 12.34057617 123.92578125 12.29296875 C123.2419487 12.28872391 122.55811615 12.28447906 121.8535614 12.28010559 C119.67280439 12.26333353 117.49297691 12.22568657 115.3125 12.1875 C113.83269565 12.17245114 112.3528768 12.15876308 110.87304688 12.14648438 C107.24839664 12.11343569 103.62428906 12.06166446 100 12 C100.01450195 13.03495605 100.02900391 14.06991211 100.04394531 15.13623047 C100.05567324 16.50487999 100.0670479 17.87353256 100.078125 19.2421875 C100.08859863 19.9230542 100.09907227 20.6039209 100.10986328 21.30541992 C100.15502297 28.74322077 98.26079708 33.58889443 93 39 C87.7882419 42.31648222 83.4141109 42.44020728 77.4375 42.3984375 C76.07322876 42.40274277 76.07322876 42.40274277 74.68139648 42.40713501 C72.76513036 42.40916966 70.84884318 42.40368187 68.93261719 42.39111328 C66.00929057 42.37505105 63.08734641 42.39098234 60.1640625 42.41015625 C58.29687197 42.40817371 56.42968229 42.40432982 54.5625 42.3984375 C53.69359131 42.40451019 52.82468262 42.41058289 51.92944336 42.4168396 C46.87462895 42.3586207 43.37185383 41.810359 39 39 C33.76366878 33.52565372 31.75473995 29.48097577 31.82421875 21.87304688 C31.84097656 21.15181641 31.85773438 20.43058594 31.875 19.6875 C31.88402344 18.94693359 31.89304688 18.20636719 31.90234375 17.44335938 C31.92575787 15.62876533 31.96162385 13.81433929 32 12 C30.61494263 12.02356567 30.61494263 12.02356567 29.2019043 12.04760742 C25.77460111 12.09874832 22.34770358 12.13635535 18.92016602 12.16479492 C17.43702801 12.17987768 15.95393456 12.20034689 14.47094727 12.22631836 C12.33859255 12.26272616 10.20682765 12.27973073 8.07421875 12.29296875 C6.79119873 12.3086792 5.50817871 12.32438965 4.1862793 12.34057617 C1 12 1 12 -0.92260742 10.66918945 C-2.59278817 8.08160147 -2.31244044 5.99942826 -2 3 C-1.34 2.01 -0.68 1.02 0 0 Z " fill="#000000" transform="translate(102,452)"/>
<path d="M0 0 C6.44667564 4.68652802 10.0804555 10.28231782 12 18 C12.46367217 23.72232329 12.38067009 29.39030882 12.25 35.125 C12.2298943 36.66924754 12.21165076 38.2135205 12.1953125 39.7578125 C12.15166203 43.5057448 12.08286244 47.25270539 12 51 C7.48345625 51.09987254 2.96752011 51.1719343 -1.54980469 51.21972656 C-3.08214534 51.23967724 -4.61441152 51.26684816 -6.14648438 51.30175781 C-16.80901367 51.53839358 -25.19185194 50.83556947 -34.3125 44.8125 C-41.16365845 37.64268302 -43.50964571 30.05724304 -43.40234375 20.3046875 C-42.49782448 12.87533506 -38.99342254 6.13455757 -33.125 1.4375 C-22.38638087 -5.4571816 -11.43219211 -6.04932138 0 0 Z " fill="#000000" transform="translate(127,201)"/>
<path d="M0 0 C7.94625272 4.91910883 12.27208525 10.26333211 14.66015625 19.3203125 C15.98130904 26.68314152 14.40948068 33.74471967 10.5078125 40.0703125 C5.94441344 46.358899 0.61064968 50.23019661 -6.8671875 52.3203125 C-9.50853696 52.48194265 -12.03603406 52.55500835 -14.671875 52.515625 C-15.3958548 52.5127951 -16.11983459 52.50996521 -16.86575317 52.50704956 C-19.1580724 52.49593337 -21.44998813 52.47084562 -23.7421875 52.4453125 C-25.30468182 52.4352716 -26.86718232 52.42614769 -28.4296875 52.41796875 C-32.24234088 52.39602223 -36.05469598 52.36155263 -39.8671875 52.3203125 C-39.99192252 47.51897382 -40.08205253 42.71860295 -40.1418457 37.91601562 C-40.16680192 36.28661647 -40.20078004 34.65732708 -40.24438477 33.02832031 C-40.5178628 22.53963343 -40.58069364 13.75572958 -33.21899414 5.46386719 C-24.40327195 -3.23300704 -11.0296237 -5.6531763 0 0 Z " fill="#000000" transform="translate(234.8671875,199.6796875)"/>
<path d="M0 0 C1.09362854 -0.00990463 2.18725708 -0.01980927 3.31402588 -0.03001404 C4.51412292 -0.02551239 5.71421997 -0.02101074 6.95068359 -0.01637268 C8.21426697 -0.02323593 9.47785034 -0.03009918 10.77972412 -0.03717041 C14.24665284 -0.05513407 17.71332891 -0.05392768 21.18029022 -0.04822803 C24.07309867 -0.04514115 26.96585824 -0.05122293 29.85865974 -0.05726677 C36.68169331 -0.07132055 43.50460168 -0.06974334 50.32763672 -0.05836487 C57.37087683 -0.04687887 64.41373638 -0.06096514 71.45692635 -0.08776134 C77.50117237 -0.10989753 83.54529875 -0.11656058 89.58958244 -0.11068493 C93.20086656 -0.10730957 96.81190663 -0.10976855 100.42315674 -0.12693596 C104.44820372 -0.14523504 108.47250694 -0.13123974 112.49755859 -0.11402893 C113.69765564 -0.1236969 114.89775269 -0.13336487 116.13421631 -0.14332581 C117.22784485 -0.13349167 118.32147339 -0.12365753 119.44824219 -0.11352539 C120.40024506 -0.11331611 121.35224792 -0.11310682 122.33309937 -0.1128912 C124.72412109 0.38768005 124.72412109 0.38768005 126.56167603 2.19244289 C128.32160441 5.51600656 127.64512314 7.83524361 126.72412109 11.38768005 C123.40745288 13.5987922 122.39101078 13.63990992 118.53089905 13.64837646 C117.45554398 13.65546127 116.3801889 13.66254608 115.27224731 13.66984558 C114.09242279 13.66736816 112.91259827 13.66489075 111.69702148 13.66233826 C109.83331657 13.67000465 109.83331657 13.67000465 107.93196106 13.67782593 C104.52280786 13.68935736 101.11389752 13.69179343 97.70474172 13.68926263 C94.85925828 13.68819362 92.01379732 13.69307449 89.16831869 13.69786805 C82.45553849 13.70896703 75.74281424 13.70939849 69.0300293 13.70335388 C62.10388907 13.69731306 55.17795194 13.70962681 48.25184637 13.73092395 C42.30611184 13.74853459 36.36044198 13.75454216 30.41468233 13.75128621 C26.86320662 13.74947229 23.31187577 13.7521201 19.76042366 13.76600075 C15.80040629 13.78089881 11.84064796 13.77161362 7.88061523 13.75999451 C6.70281494 13.76763824 5.52501465 13.77528198 4.31152344 13.78315735 C3.23334854 13.77614304 2.15517365 13.76912872 1.04432678 13.76190186 C-0.3601718 13.76215347 -0.3601718 13.76215347 -1.79304409 13.76241016 C-4.77701077 13.31204506 -6.15035898 12.51386497 -8.27587891 10.38768005 C-9.01937899 4.43967937 -9.01937899 4.43967937 -7.07827759 1.69316006 C-4.62910113 -0.08078203 -3.01204909 0.00768796 0 0 Z " fill="#000000" transform="translate(108.27587890625,418.61231994628906)"/>
</svg>
